<svg width="89" height="88" viewBox="0 0 89 88" fill="currentColor" xmlns="http://www.w3.org/2000/svg">
<path d="M86.2822 19.3597H73.1688C72.5203 19.3597 71.9268 19.7248 71.6346 20.3037L63.8412 35.7341C63.4133 36.5815 63.7531 37.6152 64.6006 38.0431C64.8489 38.1686 65.1133 38.2281 65.374 38.2281C66.0019 38.2281 66.6072 37.8826 66.9096 37.2838L74.2261 22.7972H86.2822C87.2313 22.7972 88.001 22.0276 88.001 21.0785C88.001 20.1294 87.2315 19.3597 86.2822 19.3597Z" />
<path d="M87.2224 62.1554C86.4276 61.636 85.3627 61.8591 84.8431 62.6533L76.5863 75.2816H66.9744C66.3111 75.2816 65.7068 75.6635 65.4221 76.2625L61.0106 85.5438C60.6031 86.4011 60.9676 87.4265 61.825 87.8338C62.0634 87.9471 62.3143 88.0009 62.5616 88.0007C63.2043 88.0007 63.8208 87.6386 64.115 87.0195L68.0606 78.7191H77.516C78.0961 78.7191 78.637 78.4265 78.9546 77.941L87.7203 64.5347C88.2397 63.7401 88.0168 62.6748 87.2224 62.1554Z" />
<path d="M73.0881 3.43773H86.2823C87.2314 3.43773 88.001 2.66807 88.001 1.71897C88.001 0.769873 87.2314 0.000213623 86.2823 0.000213623H73.0879C72.1388 0.000213623 71.3691 0.769873 71.3691 1.71897C71.3691 2.66807 72.1388 3.43773 73.0881 3.43773Z" />
<path d="M54.031 60.3543V40.0801C54.031 39.6389 53.8614 39.2145 53.557 38.8948L37.1606 21.6719C37.4377 21.3421 37.7051 21.0023 37.9615 20.6511L46.8229 8.57966C46.8238 8.57863 46.8246 8.57743 46.8255 8.57622C47.6513 7.44528 47.9872 6.06066 47.7715 4.67706C47.7041 4.24531 47.5855 3.82989 47.42 3.4375H57.6185C58.5676 3.4375 59.3373 2.66785 59.3373 1.71875C59.3373 0.769657 58.5676 0 57.6185 0H29.7679C29.1593 0 28.5962 0.32175 28.2872 0.846141C27.9782 1.37053 27.9694 2.01902 28.2643 2.55149L32.5549 10.2994L29.497 14.465C28.8608 15.3362 28.077 16.06 27.1884 16.614C27.3355 16.0052 27.4155 15.3704 27.4155 14.7171V10.2248C27.4155 5.7695 23.7908 2.14483 19.3354 2.14483C14.8801 2.14483 11.2554 5.7695 11.2554 10.2248V14.7171C11.2554 17.1922 12.375 19.4097 14.1333 20.893C12.9771 21.6389 11.991 22.6248 11.2449 23.7808C5.02786 23.8802 0 28.9651 0 35.2052V44.8695C0 48.4944 2.94903 51.4434 6.57388 51.4434C8.08552 51.4434 9.47874 50.9292 10.5904 50.0682C11.4665 52.2885 12.9719 54.2311 15.0006 55.6836C18.3628 58.0909 22.5356 58.7069 26.4502 57.3747L32.1035 55.4503L30.1032 71.4093L29.5592 74.6727C29.2806 76.3442 29.8635 78.0218 31.1178 79.161C32.0447 80.0025 33.2288 80.4506 34.4443 80.4506C34.8741 80.4506 35.3078 80.3946 35.7356 80.2799L42.4007 78.495V86.2815C42.4007 87.2306 43.1704 88.0002 44.1195 88.0002C45.0686 88.0002 45.8382 87.2306 45.8382 86.2815V77.5805L59.0601 73.9895C59.5678 73.8516 59.9842 73.4888 60.1907 73.0048C60.3969 72.521 60.3703 71.9691 60.1181 71.5073L54.031 60.3543ZM32.6845 3.43767H37.5918L34.7946 7.24832L32.6845 3.43767ZM32.2706 16.4957L41.1343 4.4208C41.4185 4.0315 41.8375 3.77627 42.3136 3.70185C42.4078 3.68724 42.502 3.68002 42.5955 3.68002C42.9748 3.68002 43.3435 3.79947 43.6559 4.02755C44.0452 4.31183 44.3005 4.73069 44.3747 5.20678C44.449 5.68271 44.3336 6.1588 44.0499 6.54793L35.1876 18.6204C32.7718 21.9289 29.2121 24.0986 25.1641 24.7299C24.6887 24.805 24.2114 24.6887 23.8219 24.4042C23.4324 24.1197 23.1772 23.7009 23.1029 23.2246C23.0285 22.7484 23.1442 22.2717 23.4286 21.8825C23.7129 21.493 24.1318 21.2377 24.6079 21.1635C27.7033 20.6814 30.4255 19.0223 32.2706 16.4957ZM13.1479 43.3531V37.9846H25.5229V40.1237L13.1479 43.3531ZM19.3354 5.5825C21.6351 5.5825 23.5486 7.26361 23.914 9.46121H16.5115C15.8807 9.46121 15.2757 9.5731 14.7149 9.77763C14.9406 7.42689 16.9264 5.5825 19.3354 5.5825ZM14.6929 14.7171C14.6929 13.7144 15.5088 12.8987 16.5115 12.8987H23.9778V14.7171C23.9778 17.2771 21.8952 19.3597 19.3353 19.3597C16.7754 19.3597 14.6929 17.2771 14.6929 14.7171ZM19.646 22.7972C19.6376 23.1143 19.6567 23.4345 19.7065 23.7545C20.1094 26.3381 22.3455 28.1896 24.883 28.1896C25.0943 28.1896 25.3081 28.1729 25.5228 28.1466V34.5471H13.1478V28.9847C13.1478 25.5728 15.9234 22.7972 19.3353 22.7972H19.646ZM6.57405 48.0059C4.84464 48.0059 3.43767 46.5988 3.43767 44.8695V35.2052C3.43767 31.3885 6.127 28.1882 9.71043 27.3998V28.9847V44.8695C9.71043 46.5988 8.30329 48.0059 6.57405 48.0059ZM25.3426 54.1204C22.4919 55.091 19.4513 54.6424 17.0019 52.8885C14.9626 51.4285 13.6508 49.2883 13.2677 46.8743L32.0853 41.9638C34.8453 41.244 37.7427 41.9702 39.8363 43.9077C41.93 45.8453 42.8784 48.6778 42.3739 51.4852L39.3635 68.2356C38.6812 68.2497 37.9957 68.3384 37.3173 68.5084L33.8216 69.3839L35.8564 53.1517C35.93 52.5639 35.6957 51.9797 35.2366 51.6055C34.7775 51.231 34.1579 51.1199 33.5971 51.3107L25.3426 54.1204ZM34.8463 76.9595C34.122 77.1528 33.6134 76.7838 33.4287 76.6159C33.2437 76.4478 32.8268 75.9774 32.9502 75.2378L33.314 73.0545L38.1523 71.8428C39.6255 71.4739 41.1545 71.7006 42.4574 72.4816C43.2623 72.9641 43.9215 73.6224 44.3946 74.4025L34.8463 76.9595ZM47.7971 73.4864C47.0352 71.8519 45.8057 70.4808 44.2247 69.5331C43.7505 69.2488 43.2568 69.0127 42.7505 68.8207L45.7571 52.0931C46.4699 48.1257 45.1294 44.1227 42.1709 41.3848C39.2124 38.6468 35.1172 37.62 31.2175 38.6379L28.9604 39.2269V27.3159C31.0652 26.5903 33.0095 25.5006 34.7186 24.0926L50.5935 40.7674V60.7927C50.5935 61.0805 50.6657 61.3635 50.8037 61.6162L56.0576 71.2429L47.7971 73.4864Z" />
<path d="M65.3516 3.43773C65.8036 3.43773 66.247 3.25382 66.5667 2.93396C66.8881 2.61444 67.0703 2.171 67.0703 1.71897C67.0703 1.26694 66.8881 0.823499 66.5667 0.50381C66.247 0.184121 65.8036 0.000213623 65.3516 0.000213623C64.8995 0.000213623 64.4561 0.183949 64.1366 0.50381C63.8169 0.823499 63.6328 1.26694 63.6328 1.71897C63.6328 2.171 63.8167 2.61444 64.1366 2.93396C64.4561 3.25382 64.8995 3.43773 65.3516 3.43773Z" />
</svg>
