<svg width="104" height="89" viewBox="0 0 104 89" fill="currentColor" xmlns="http://www.w3.org/2000/svg">
<path d="M15.0963 37.9284L24.2608 41.5973C25.1213 41.9406 26.0237 42.3522 26.9524 42.7726C30.0689 44.1855 33.5594 45.768 37.0478 45.768C37.4418 45.768 37.8335 45.7481 38.2275 45.7041C38.4146 45.6843 38.5994 45.6403 38.7755 45.5721L63.3813 36.17C63.5859 36.0907 63.7774 35.9829 63.9491 35.8486C66.0465 34.2112 68.3442 32.6618 70.5693 31.1652C71.749 30.3707 72.9264 29.5761 74.0841 28.7662L99.5988 10.9039C101.221 9.7661 102.088 7.90416 101.916 5.92337C101.745 3.95799 100.583 2.28753 98.8021 1.4556C93.8039 -0.883926 87.8902 -0.375526 83.385 2.78052L73.0673 10.006L36.6671 3.57504C36.0354 3.4628 35.3884 3.63226 34.8932 4.03502L27.9516 9.68906C27.3618 10.1711 27.0625 10.9238 27.1593 11.6787C27.2584 12.4335 27.7403 13.085 28.4336 13.3997L50.8517 23.5766L39.5436 30.6458L26.6663 26.7018C26.0237 26.5037 25.315 26.6138 24.7604 27.0033L14.6518 34.0813C13.9893 34.5457 13.635 35.3336 13.7274 36.1369C13.8198 36.9403 14.3458 37.6291 15.0963 37.9284ZM26.4044 31.2268L39.2135 35.1487C39.8187 35.3336 40.4834 35.2478 41.0248 34.9111L56.6576 25.1326C57.3465 24.7034 57.7404 23.9309 57.6876 23.121C57.6348 22.3111 57.1396 21.598 56.4001 21.2634L33.4824 10.8599L36.8894 8.08463L73.1972 14.498C73.7738 14.6014 74.3636 14.4672 74.8412 14.1326L85.905 6.38555C89.1271 4.12746 93.3527 3.76872 96.9336 5.44138C97.4045 5.66147 97.5102 6.07743 97.53 6.30412C97.5476 6.4956 97.5344 6.97319 97.0722 7.29892L71.5597 25.1612C70.4241 25.9557 69.2686 26.7326 68.1109 27.5117C65.9145 28.9907 63.6476 30.5181 61.5039 32.1732L37.4924 41.3486C34.8206 41.5225 31.6315 40.0567 28.7726 38.7604C27.78 38.3114 26.816 37.8756 25.8982 37.5081L20.5105 35.3512L26.4044 31.2268Z" />
<path d="M25.2679 64.2069C25.7037 64.2069 26.1438 64.0771 26.5268 63.8086L41.6688 53.2048C42.6658 52.5071 42.9079 51.136 42.2102 50.139C41.5125 49.142 40.137 48.9021 39.1444 49.5976L24.0024 60.1992C23.0054 60.8968 22.7633 62.268 23.461 63.265C23.8901 63.879 24.5724 64.2069 25.2679 64.2069Z" />
<path d="M26.5793 47.3833C25.8839 46.3885 24.5083 46.1465 23.5135 46.8419L8.37153 57.4435C7.37454 58.1412 7.13244 59.5124 7.83012 60.5093C8.25708 61.1212 8.94156 61.4469 9.63483 61.4469C10.0706 61.4469 10.5108 61.3171 10.8937 61.0486L26.0357 50.447C27.0349 49.7537 27.277 48.3803 26.5793 47.3833Z" />
<path d="M5.18977 48.5807C5.62554 48.5807 6.06571 48.4508 6.44866 48.1823L13.9294 42.9443C14.9264 42.2466 15.1685 40.8754 14.4708 39.8784C13.7732 38.8814 12.3998 38.6416 11.405 39.337L3.92426 44.5751C2.92727 45.2728 2.68517 46.6439 3.38285 47.6409C3.81202 48.2528 4.49649 48.5807 5.18977 48.5807Z" />
<path d="M101.799 84.4108H2.20087C0.98379 84.4108 0 85.3968 0 86.6117C0 87.8266 0.98379 88.8125 2.20087 88.8125H101.799C103.016 88.8125 104 87.8266 104 86.6117C104 85.3968 103.016 84.4108 101.799 84.4108Z" />
</svg>
