<svg width="50" height="50" viewBox="0 0 50 50" fill="none" xmlns="http://www.w3.org/2000/svg">
<path d="M45.8249 25.0011C45.8249 13.5011 36.4915 4.16772 24.9915 4.16772C13.4915 4.16772 4.1582 13.5011 4.1582 25.0011C4.1582 36.5011 13.4915 45.8344 24.9915 45.8344" stroke="#384BFF" stroke-width="3" stroke-linecap="round" stroke-linejoin="round"/>
<path d="M16.6549 6.25171H18.7383C14.6758 18.4184 14.6758 31.585 18.7383 43.7517H16.6549" stroke="#384BFF" stroke-width="3" stroke-linecap="round" stroke-linejoin="round"/>
<path d="M31.2363 6.25146C33.2572 12.3348 34.278 18.6681 34.278 25.0015" stroke="#384BFF" stroke-width="3" stroke-linecap="round" stroke-linejoin="round"/>
<path d="M6.23633 33.335V31.2517C12.3197 33.2725 18.653 34.2934 24.9863 34.2934" stroke="#384BFF" stroke-width="3" stroke-linecap="round" stroke-linejoin="round"/>
<path d="M6.23633 18.7512C18.403 14.6887 31.5697 14.6887 43.7363 18.7512" stroke="#384BFF" stroke-width="3" stroke-linecap="round" stroke-linejoin="round"/>
<path d="M37.9167 44.5834C41.5986 44.5834 44.5833 41.5986 44.5833 37.9167C44.5833 34.2348 41.5986 31.25 37.9167 31.25C34.2348 31.25 31.25 34.2348 31.25 37.9167C31.25 41.5986 34.2348 44.5834 37.9167 44.5834Z" stroke="#384BFF" stroke-width="3" stroke-linecap="round" stroke-linejoin="round"/>
<path d="M45.8333 45.8333L43.75 43.75" stroke="#384BFF" stroke-width="3" stroke-linecap="round" stroke-linejoin="round"/>
</svg>
