<svg width="90" height="90" viewBox="0 0 90 90" fill="currentColor" xmlns="http://www.w3.org/2000/svg">
<path d="M44.5951 2.97291C46.0336 2.97292 47.4713 3.04638 48.9024 3.19301L49.2065 0.235706C45.1069 -0.184934 40.969 -0.0420734 36.9082 0.660305L37.4174 3.58931C39.7879 3.17879 42.1893 2.97257 44.5951 2.97291Z" />
<path d="M20.1964 10.8695L18.4518 8.46235C12.7349 12.5935 8.08086 18.0234 4.87294 24.305C1.66503 30.5866 -0.00505342 37.5403 0.000177578 44.5936C-0.0192798 51.4544 1.56049 58.2253 4.61414 64.369L7.27787 63.0491C4.42851 57.3153 2.95461 50.9964 2.97309 44.5936C2.96779 38.01 4.52654 31.5193 7.52096 25.6561C10.5154 19.7929 14.8598 14.7249 20.1964 10.8695Z" />
<path d="M46.0312 86.1901L46.1318 89.1612C50.3139 89.0219 54.4554 88.2936 58.4341 86.9978L57.5122 84.1715C53.7991 85.3806 49.9341 86.0602 46.0312 86.1901Z" />
<path d="M17.8379 43.1072H20.8108V77.2957H17.8379V43.1072Z" />
<path d="M26.7559 43.1072H29.7288V77.2957H26.7559V43.1072Z" />
<path d="M35.6758 43.1072H38.6487V77.2957H35.6758V43.1072Z" />
<path d="M88.3445 46.0282L61.5535 33.1412C60.4875 32.6299 59.2622 32.5624 58.1464 32.9535C57.0307 33.3445 56.1156 34.1621 55.6019 35.2269L47.5658 51.9335V37.1614C47.5636 35.1909 46.7798 33.3018 45.3865 31.9085C43.9932 30.5151 42.104 29.7314 40.1336 29.7291H34.1877V5.94583C34.1877 4.36889 33.5613 2.85655 32.4462 1.74149C31.3312 0.626433 29.8188 0 28.2419 0C26.665 0 25.1526 0.626433 24.0376 1.74149C22.9225 2.85655 22.2961 4.36889 22.2961 5.94583V29.7291H16.3503C14.3798 29.7314 12.4906 30.5151 11.0973 31.9085C9.70397 33.3018 8.92021 35.1909 8.91797 37.1614V75.8093C8.91978 77.3358 9.3908 78.8248 10.2672 80.0747C11.1436 81.3245 12.3831 82.2748 13.8176 82.7966C13.4994 83.4581 13.3494 84.1879 13.3809 84.9212C13.4123 85.6545 13.6243 86.3688 13.9981 87.0005C14.3718 87.6323 14.8956 88.162 15.5232 88.5427C16.1507 88.9235 16.8625 89.1434 17.5955 89.1831C18.3284 89.2228 19.0598 89.0809 19.7248 88.7701C20.3897 88.4593 20.9677 87.9892 21.4074 87.4014C21.8471 86.8137 22.1349 86.1265 22.2453 85.4008C22.3557 84.6752 22.2853 83.9335 22.0404 83.2416H34.4434C34.1987 83.9334 34.1285 84.6749 34.239 85.4004C34.3496 86.1258 34.6374 86.8128 35.0771 87.4003C35.5168 87.9879 36.0946 88.4578 36.7594 88.7685C37.4243 89.0792 38.1555 89.221 38.8882 89.1813C39.621 89.1417 40.3326 88.9218 40.9601 88.5412C41.5875 88.1606 42.1113 87.631 42.485 86.9995C42.8587 86.3679 43.0707 85.6539 43.1023 84.9208C43.1339 84.1876 42.9841 83.458 42.6662 82.7966C43.8347 82.3702 44.878 81.6583 45.7011 80.7257C46.5243 79.7932 47.1012 78.6696 47.3794 77.4572L68.37 87.5539C68.5459 87.6387 68.7368 87.688 68.9317 87.699C69.1267 87.7099 69.3219 87.6823 69.5061 87.6177C69.6904 87.5532 69.8601 87.4529 70.0056 87.3227C70.1511 87.1925 70.2695 87.0348 70.354 86.8588L89.0397 48.0121C89.2106 47.6568 89.2333 47.2482 89.103 46.8762C88.9726 46.5041 88.6997 46.1991 88.3445 46.0282ZM59.6231 35.6737C59.8453 35.6736 60.0647 35.7238 60.2649 35.8203L85.7162 48.0629L84.4276 50.742L58.9762 38.4996C58.6215 38.3285 58.3491 38.0237 58.2187 37.6521C58.0883 37.2805 58.1104 36.8724 58.2803 36.5171L58.281 36.5156L58.281 36.5156C58.4027 36.2631 58.5933 36.0502 58.8307 35.9013C59.0681 35.7523 59.3428 35.6734 59.6231 35.6737ZM25.269 5.94583C25.269 5.15736 25.5822 4.40119 26.1397 3.84366C26.6973 3.28613 27.4534 2.97291 28.2419 2.97291C29.0304 2.97291 29.7865 3.28613 30.3441 3.84366C30.9016 4.40119 31.2148 5.15736 31.2148 5.94583V29.7291H25.269V5.94583ZM19.3232 84.728C19.3232 85.022 19.236 85.3094 19.0726 85.5538C18.9093 85.7983 18.6772 85.9888 18.4055 86.1013C18.1339 86.2138 17.8351 86.2433 17.5467 86.1859C17.2584 86.1285 16.9935 85.987 16.7856 85.7791C16.5777 85.5712 16.4362 85.3063 16.3788 85.018C16.3215 84.7297 16.3509 84.4308 16.4634 84.1592C16.5759 83.8876 16.7664 83.6554 17.0109 83.4921C17.2553 83.3287 17.5427 83.2416 17.8367 83.2416C18.2308 83.242 18.6086 83.3988 18.8873 83.6774C19.166 83.9561 19.3227 84.3339 19.3232 84.728ZM38.6471 86.2145C38.3531 86.2145 38.0657 86.1273 37.8213 85.964C37.5768 85.8006 37.3863 85.5685 37.2738 85.2969C37.1613 85.0252 37.1318 84.7264 37.1892 84.438C37.2466 84.1497 37.3881 83.8848 37.596 83.6769C37.8039 83.469 38.0688 83.3275 38.3571 83.2701C38.6454 83.2128 38.9443 83.2422 39.2159 83.3547C39.4876 83.4672 39.7197 83.6577 39.883 83.9022C40.0464 84.1466 40.1336 84.434 40.1336 84.728C40.1331 85.1221 39.9763 85.4999 39.6977 85.7786C39.419 86.0573 39.0412 86.214 38.6471 86.2145ZM40.1336 80.2686H16.3503C15.168 80.2673 14.0345 79.797 13.1985 78.961C12.3625 78.125 11.8922 76.9916 11.8909 75.8093V37.1614C11.8922 35.9791 12.3625 34.8456 13.1985 34.0097C14.0345 33.1736 15.168 32.7034 16.3503 32.702H22.2961V40.1343H25.269V32.702H31.2148V40.1343H34.1877V32.702H40.1336C41.3158 32.7034 42.4493 33.1736 43.2853 34.0097C44.1213 34.8456 44.5916 35.9791 44.5929 37.1614V58.1141L39.4935 68.7156C39.2396 69.2433 39.0922 69.8159 39.0596 70.4006C39.0271 70.9853 39.11 71.5707 39.3036 72.1233C39.4973 72.676 39.7979 73.1851 40.1884 73.6216C40.5788 74.0581 41.0514 74.4134 41.5791 74.6672L44.5815 76.1114C44.5038 77.2386 44.0016 78.2943 43.1761 79.0658C42.3507 79.8373 41.2634 80.2672 40.1336 80.2686ZM68.3192 84.2306L42.8678 71.9883C42.5125 71.8173 42.2397 71.5123 42.1093 71.1402C41.979 70.7681 42.0017 70.3595 42.1726 70.0042L56.4588 40.3038C56.8155 40.6634 57.2311 40.9592 57.6876 41.1786L83.1389 53.421L68.3192 84.2306Z" />
<path d="M68.4555 49.6568C66.601 48.7649 64.5237 48.4429 62.4862 48.7316C60.4488 49.0202 58.5426 49.9066 57.0089 51.2785C55.4751 52.6505 54.3827 54.4464 53.8696 56.4393C53.3565 58.4321 53.4459 60.5323 54.1265 62.4744C54.807 64.4164 56.0481 66.113 57.6929 67.3497C59.3377 68.5864 61.3122 69.3076 63.3669 69.4221C65.4215 69.5366 67.4639 69.0392 69.2359 67.993C71.0079 66.9467 72.4299 65.3985 73.322 63.5441C74.515 61.0567 74.6727 58.1976 73.7603 55.5942C72.848 52.9907 70.9402 50.8554 68.4555 49.6568ZM71.1524 60.851L68.4874 59.5692C69.0828 57.9262 69.3753 56.1889 69.3505 54.4415L69.3426 53.9264C70.2007 54.8363 70.8162 55.9474 71.1324 57.1575C71.4486 58.3675 71.4555 59.6376 71.1524 60.851V60.851ZM61.9115 63.7723L61.5199 64.0755L61.5123 63.5804C61.4947 62.2948 61.6934 61.0153 62.1001 59.7956L64.5015 60.9508C63.8024 62.0298 62.9269 62.9836 61.9115 63.7723V63.7723ZM63.3887 57.1167C64.0878 56.0375 64.9634 55.0836 65.9788 54.2949L66.3704 53.9917L66.378 54.4869C66.3956 55.7725 66.1969 57.052 65.7902 58.2718L63.3887 57.1167ZM63.957 51.6018C64.1592 51.6018 64.362 51.6129 64.5649 51.6296L64.1588 51.944C62.7782 53.0154 61.6034 54.3285 60.6915 55.8193L58.0295 54.5388C58.725 53.6262 59.6216 52.8864 60.6497 52.377C61.6778 51.8676 62.8096 51.6023 63.957 51.6018V51.6018ZM56.7368 57.2158L59.4029 58.4982C58.8074 60.1411 58.515 61.8784 58.5398 63.6257L58.5478 64.1458C57.6878 63.236 57.071 62.124 56.7545 60.9128C56.438 59.7015 56.4319 58.43 56.7368 57.2158ZM63.3243 66.4385L63.7315 66.1232C65.1121 65.0518 66.2869 63.7389 67.1987 62.2481L69.8638 63.5301C69.105 64.5243 68.1084 65.3117 66.9657 65.8199C65.8229 66.3281 64.5707 66.5409 63.3243 66.4385V66.4385Z" />
<path d="M49.4766 71.8623L50.7638 69.1839L64.1567 75.6202L62.8695 78.2986L49.4766 71.8623Z" />
<path d="M64.2262 20.5024C63.3553 19.6338 62.1755 19.1459 60.9454 19.1459C59.7154 19.1459 58.5355 19.6338 57.6647 20.5024C57.3518 20.8146 56.928 20.9898 56.486 20.9898C56.0441 20.9898 55.6203 20.8146 55.3074 20.5024L54.9358 20.1308C52.98 18.1796 50.33 17.0838 47.5673 17.0838C44.8046 17.0838 42.1546 18.1796 40.1988 20.1308C39.8009 20.5309 39.3277 20.848 38.8064 21.0639C38.2852 21.2798 37.7263 21.3902 37.1621 21.3887V24.3616C38.1169 24.3642 39.0626 24.1774 39.9447 23.8121C40.8268 23.4467 41.6276 22.9101 42.3009 22.2331C43.6987 20.8384 45.5927 20.0552 47.5673 20.0552C49.5419 20.0552 51.4359 20.8384 52.8337 22.2331L53.2053 22.6048C54.0762 23.4734 55.256 23.9613 56.486 23.9613C57.7161 23.9613 58.8959 23.4734 59.7668 22.6048C60.0796 22.2925 60.5035 22.1171 60.9454 22.1171C61.3874 22.1171 61.8113 22.2925 62.124 22.6048L64.8638 25.3445C70.1918 30.7022 77.3466 33.8502 84.8963 34.1587C85.5356 36.6367 85.9445 39.1685 86.1177 41.7218L89.0837 41.5197C88.6906 35.6288 87.1206 29.8764 84.4665 24.6025L81.8099 25.9369C82.6522 27.6149 83.3797 29.3481 83.9871 31.1246C77.554 30.6143 71.5162 27.8182 66.9659 23.2422L64.2262 20.5024Z" />
<path d="M51.2504 7.21417L76.0092 22.3446C76.8624 22.8687 77.8676 23.0895 78.8619 22.9712C79.8562 22.8529 80.7815 22.4025 81.4879 21.6928L87.2651 15.9157C87.5438 15.6369 87.7005 15.2588 87.7005 14.8646C87.7005 14.4703 87.5438 14.0922 87.2651 13.8134L84.2922 10.8405C84.0491 10.5976 83.7295 10.4463 83.3875 10.4125C83.0456 10.3786 82.7025 10.4643 82.4166 10.6549L78.7817 13.078L71.995 8.55347L75.5115 3.86474C75.7262 3.57849 75.8304 3.2244 75.8051 2.86748C75.7797 2.51056 75.6264 2.17477 75.3734 1.92176L73.887 0.4353C73.6663 0.214717 73.3819 0.0691365 73.074 0.0191815C72.766 -0.0307734 72.4502 0.0174294 72.1711 0.156962L63.9822 4.25142L61.2304 2.6002C59.8096 1.74559 58.1436 1.39133 56.4981 1.59391C54.8525 1.7965 53.3222 2.54426 52.1512 3.71795L50.9744 4.89466C50.8154 5.05368 50.6946 5.2467 50.621 5.45919C50.5473 5.67167 50.5229 5.8981 50.5495 6.1214C50.576 6.3447 50.6529 6.55907 50.7743 6.74835C50.8958 6.93764 51.0585 7.09691 51.2504 7.21417H51.2504ZM59.7008 5.1496L63.1523 7.22052C63.3668 7.34913 63.6102 7.42158 63.8601 7.43116C64.11 7.44074 64.3582 7.38714 64.5819 7.27532L72.0308 3.55083L68.6738 8.02689C68.5525 8.1886 68.4655 8.37335 68.4181 8.56985C68.3706 8.76635 68.3637 8.97046 68.3979 9.1697C68.432 9.36894 68.5064 9.55913 68.6165 9.72863C68.7267 9.89813 68.8703 10.0434 69.0385 10.1555L77.9572 16.1013C78.2014 16.2641 78.4883 16.3509 78.7817 16.3509C79.0752 16.3509 79.3621 16.2641 79.6062 16.1013L83.0517 13.8043L84.1118 14.8646L79.3857 19.5907C79.1502 19.8272 78.8418 19.9773 78.5104 20.0168C78.1789 20.0562 77.8439 19.9826 77.5595 19.8079L54.4165 5.66493C55.1252 5.02293 56.0217 4.62617 56.9735 4.53336C57.9252 4.44055 58.8815 4.65662 59.7008 5.1496Z" />
</svg>
