<svg width="87" height="90" viewBox="0 0 87 90" fill="currentColor" xmlns="http://www.w3.org/2000/svg">
<path d="M19.4673 60.6917L19.4295 60.2508C19.24 58.0388 17.3711 56.33 15.1587 56.33C15.1343 56.33 15.11 56.3302 15.0856 56.3305L10.286 56.4119C9.10265 56.432 7.9692 56.9474 7.17642 57.8259C6.38365 58.7045 5.98655 59.8847 6.0878 61.0637L6.1815 62.1593C6.28257 63.3385 6.87425 64.4339 7.80502 65.165C8.73579 65.897 9.94728 66.2113 11.1101 66.0295L15.8534 65.2933C18.0716 64.9495 19.6589 62.928 19.4673 60.6917ZM10.7058 63.4242C10.2495 63.4947 9.79717 63.377 9.43382 63.0915C9.07031 62.806 8.84829 62.3952 8.80874 61.9347L8.71505 60.839C8.6755 60.3785 8.82439 59.9358 9.13411 59.5927C9.44384 59.2496 9.86889 59.0562 10.331 59.0485L15.1308 58.9671C15.1403 58.9669 15.1494 58.9669 15.1587 58.9669C16.0104 58.9669 16.7299 59.6247 16.8028 60.476L16.8406 60.9169C16.9144 61.7777 16.3032 62.5557 15.4495 62.6882L10.7058 63.4242Z" />
<path d="M23.3487 70.4888L23.0956 70.1258C21.8115 68.285 19.298 67.7476 17.3735 68.9027L13.2577 71.3729C12.2429 71.982 11.5189 72.9952 11.2716 74.1524C11.0244 75.3098 11.2709 76.5302 11.948 77.5009L12.5769 78.4027C13.254 79.3733 14.3142 80.0262 15.4858 80.1937C16.6505 80.3616 17.8585 80.0329 18.7803 79.29L22.5199 76.2808C24.2686 74.8742 24.6326 72.3299 23.3487 70.4888ZM20.8668 74.2268L17.1272 77.236C16.767 77.5257 16.3174 77.6493 15.859 77.5839C15.4014 77.5183 15.0038 77.2736 14.7394 76.8944L14.1104 75.9927C13.8459 75.6135 13.7534 75.1558 13.8501 74.7038C13.9468 74.2517 14.2182 73.8719 14.6146 73.634L18.7304 71.1638C18.994 71.0056 19.2862 70.9298 19.5759 70.9298C20.0997 70.9298 20.6146 71.1782 20.9331 71.6345L21.1862 71.9973C21.6802 72.7059 21.5402 73.6852 20.8668 74.2268Z" />
<path d="M31.3361 77.355L30.9355 77.1673C28.9028 76.2149 26.4577 77.0066 25.3687 78.9691L23.0394 83.1662C22.4649 84.201 22.3447 85.4403 22.7091 86.5662C23.0735 87.6923 23.8974 88.626 24.969 89.1281L25.9646 89.5944C26.538 89.863 27.1608 89.998 27.7843 89.998C28.326 89.998 28.8687 89.8959 29.3793 89.6911C30.4778 89.2504 31.353 88.3648 31.7803 87.2612L33.5146 82.7853C34.3257 80.6926 33.3685 78.3074 31.3361 77.355ZM31.0561 81.8331L29.3219 86.3092C29.1549 86.7402 28.8267 87.0723 28.3976 87.2444C27.9685 87.4166 27.5016 87.4029 27.0831 87.2071L26.0875 86.7408C25.6689 86.5446 25.3599 86.1944 25.2177 85.7546C25.0755 85.3148 25.1205 84.85 25.3448 84.4459L27.6741 80.2488C28.0947 79.4871 29.0487 79.1914 29.8169 79.5551L30.2175 79.7429C30.9999 80.1092 31.3681 81.0275 31.0561 81.8331Z" />
<path d="M85.1341 27.87C82.8626 25.5985 79.1665 25.5987 76.895 27.87L69.6535 35.1101L65.4756 30.9323C65.4523 30.4984 65.4083 30.0643 65.3431 29.6308C65.7513 29.6798 66.1656 29.7079 66.5868 29.7079C72.306 29.7079 76.959 25.0559 76.959 19.3377V14.3964H83.3024C84.0307 14.3964 84.6208 13.8061 84.6208 13.078C84.6208 12.3499 84.0307 11.7597 83.3024 11.7597H76.959V7.30359C76.9588 3.27641 73.6824 0 69.6552 0H63.5204C59.4932 0 56.2168 3.27641 56.2168 7.30359L56.2145 16.6849L48.4448 8.91516C47.3447 7.81511 45.8822 7.20919 44.3265 7.20919C42.7707 7.20919 41.3082 7.81511 40.2081 8.91516L37.2339 11.8894C36.719 12.4043 36.719 13.2391 37.2339 13.7537C37.7489 14.2686 38.5835 14.2686 39.0984 13.7537L42.0727 10.7795C42.6745 10.1775 43.4751 9.84593 44.3264 9.84593C45.1777 9.84593 45.978 10.1775 46.5801 10.7795L52.5454 16.745L48.0352 21.254L45.2594 18.4779C45.0123 18.2306 44.6769 18.0917 44.3271 18.0917C43.9773 18.0917 43.6422 18.2306 43.3947 18.4779L35.2214 26.6513C33.977 27.8947 31.9529 27.8949 30.7106 26.6527C30.1087 26.0497 29.7774 25.2487 29.7774 24.397C29.7774 23.5455 30.1091 22.7434 30.7096 22.1407L35.3731 17.4789C35.8879 16.9642 35.8881 16.1294 35.3734 15.6146C34.8585 15.0995 34.0239 15.0995 33.5089 15.6142L28.8434 20.2781C27.7453 21.3804 27.1406 22.8433 27.1406 24.3972C27.1406 25.9522 27.7455 27.4147 28.8452 28.5163C31.1154 30.7869 34.8116 30.7872 37.0854 28.5163L44.3269 21.2748L50.1606 27.1093L31.5032 45.7669L30.5615 44.8258L30.7881 44.5992C31.0353 44.352 31.1741 44.0166 31.1741 43.667C31.1741 43.3174 31.0353 42.982 30.7881 42.7348L22.3782 34.325C21.3869 33.3338 20.0965 32.7518 18.7106 32.6602C18.7987 32.299 18.8446 31.9249 18.8446 31.5436C18.8446 30.2949 18.3582 29.1208 17.4752 28.2379C16.5923 27.3549 15.4182 26.8685 14.1693 26.8685C12.9205 26.8685 11.7467 27.3549 10.8637 28.2379C9.98058 29.1208 9.49419 30.2949 9.49419 31.5436C9.49419 31.5691 9.49559 31.5943 9.49594 31.6198C8.27426 31.6006 7.04659 32.055 6.11635 32.9851C5.18629 33.9151 4.73189 35.143 4.75105 36.3646C4.72574 36.3643 4.7006 36.3629 4.67529 36.3629C3.42653 36.3629 2.25248 36.8493 1.36952 37.7322C0.48639 38.6152 0 39.7892 0 41.038C0 42.2868 0.48639 43.4608 1.36935 44.3438C2.20097 45.1754 3.29082 45.6548 4.4582 45.7078C4.45362 45.7899 4.45081 45.8722 4.45081 45.955C4.45081 47.122 4.90539 48.2192 5.73051 49.0445C7.06663 50.3807 8.84291 51.1163 10.7324 51.1163C12.5797 51.1163 14.3189 50.413 15.6441 49.133L20.0171 53.5059C20.2746 53.7632 20.6121 53.8921 20.9494 53.8921C21.2867 53.8921 21.6242 53.7634 21.8818 53.5059L22.3237 53.064L27.3836 58.1256C28.4836 59.2257 29.9467 59.8314 31.5034 59.8314C33.0601 59.8314 34.5232 59.2257 35.6228 58.1258L44.4032 49.349L50.9479 55.8951V62.2797H50.2666C49.5383 62.2797 48.9482 62.87 48.9482 63.5981V68.7837C48.9482 69.5118 49.5383 70.1021 50.2666 70.1021C50.9949 70.1021 51.5849 69.5118 51.5849 68.7837V64.9165H61.5429V65.9961H57.6129C55.8426 65.9961 54.4022 67.4365 54.4022 69.2068C54.4022 70.9771 55.8424 72.4175 57.6129 72.4175L64.0532 72.4171C65.2366 72.4171 66.351 72.8789 67.1913 73.7174C68.0289 74.5536 68.4901 75.6673 68.4901 76.8537C68.4901 77.8094 67.7133 78.5869 66.7585 78.5869H54.6805C52.9736 78.5869 51.5851 77.1982 51.5851 75.4914V74.057C51.5851 73.3289 50.995 72.7386 50.2668 72.7386C49.5385 72.7386 48.9484 73.3289 48.9484 74.057V75.4914C48.9484 76.934 49.4852 78.2527 50.3682 79.2616C49.0159 80.0817 48.1103 81.568 48.1103 83.2618C48.1103 85.8397 50.2075 87.9369 52.7854 87.9369C54.1016 87.9369 55.2917 87.3894 56.1421 86.5112C56.9925 87.3895 58.1826 87.9369 59.4989 87.9369C60.8151 87.9369 62.0052 87.3894 62.8556 86.5112C63.706 87.3895 64.8961 87.9369 66.2123 87.9369C68.7902 87.9369 70.8874 85.8397 70.8874 83.2618C70.8874 82.0498 70.4237 80.9443 69.6647 80.1129C70.5614 79.312 71.127 78.148 71.127 76.8537C71.127 74.9623 70.3909 73.1856 69.0544 71.8513C67.7464 70.5457 66.0195 69.8134 64.1801 69.7814V63.5981C64.1801 62.87 63.59 62.2797 62.8617 62.2797H62.5993V53.4808C62.5993 51.9242 61.9936 50.4612 60.8935 49.3611L57.1815 45.6491L60.4483 42.3812L65.5354 47.4683C66.671 48.6039 68.1625 49.1716 69.6542 49.1716C71.1459 49.1716 72.6375 48.6039 73.7731 47.4683L85.1344 36.1071C86.2343 35.0073 86.8401 33.5442 86.8401 31.9875C86.8399 30.4323 86.2341 28.9698 85.1341 27.87ZM52.7857 85.3002C51.6618 85.3002 50.7473 84.3858 50.7473 83.2618C50.7473 82.1379 51.6618 81.2235 52.7857 81.2235C53.9097 81.2235 54.8241 82.1379 54.8241 83.2618C54.8241 84.3858 53.9097 85.3002 52.7857 85.3002ZM59.4992 85.3002C58.3752 85.3002 57.4608 84.3858 57.4608 83.2618C57.4608 82.1389 58.3735 81.2256 59.4957 81.2236H59.5025C60.6249 81.2256 61.5374 82.1389 61.5374 83.2618C61.5376 84.386 60.623 85.3002 59.4992 85.3002ZM66.2125 85.3002C65.0886 85.3002 64.1741 84.3858 64.1741 83.2618C64.1741 82.1389 65.0868 81.2256 66.209 81.2236H66.2159C67.3382 81.2256 68.2507 82.1389 68.2507 83.2618C68.2509 84.386 67.3365 85.3002 66.2125 85.3002ZM66.5866 27.0709C62.3212 27.0709 58.8513 23.6016 58.8513 19.3373V14.3968L74.3221 14.3966V19.3375C74.3221 23.6016 70.8519 27.0709 66.5866 27.0709ZM69.6552 2.63674C72.2285 2.63674 74.3221 4.73031 74.3221 7.30359V11.7598H63.9166V7.30359C63.9166 4.73031 66.0102 2.63674 68.5835 2.63674H69.6552ZM58.8536 7.30359C58.8536 4.92736 60.6392 2.96158 62.9389 2.67435C61.9029 3.93542 61.2799 5.54805 61.2799 7.30359V11.7598H58.8536V7.30359ZM12.7289 30.102C13.1137 29.7171 13.6258 29.5051 14.17 29.5051C14.7146 29.5051 15.2265 29.7171 15.6114 30.1022C15.9964 30.4872 16.2084 30.9991 16.2084 31.5435C16.2084 32.0879 15.9964 32.5997 15.6112 32.9849C14.8169 33.7796 13.5235 33.7796 12.7289 32.9849H12.7288C12.3438 32.5999 12.1318 32.088 12.1318 31.5436C12.1318 30.9992 12.3436 30.487 12.7289 30.102ZM7.98158 34.8491C8.77664 34.0543 10.0699 34.0543 10.8642 34.8491C11.6589 35.6436 11.6589 36.9363 10.8649 37.7312L10.8639 37.7322C10.0692 38.5262 8.77682 38.5264 7.98211 37.7324C7.98193 37.7322 7.98175 37.7321 7.98158 37.7319C7.18687 36.9368 7.18687 35.6438 7.98158 34.8491ZM3.23457 42.4787C2.84961 42.0938 2.63762 41.5819 2.63762 41.0375C2.63762 40.4931 2.84961 39.9812 3.23475 39.5962C3.61954 39.2113 4.13159 38.9993 4.67599 38.9993C5.22004 38.9993 5.73174 39.2111 6.1167 39.5959C6.11688 39.5961 6.11705 39.5962 6.11723 39.5964H6.11741C6.50237 39.9814 6.71436 40.4933 6.71436 41.0376C6.71436 41.582 6.50237 42.0939 6.11723 42.4791C5.32269 43.2736 4.02911 43.2733 3.23457 42.4787ZM17.5102 47.2684L20.289 44.4897C20.5128 44.2659 20.8768 44.2659 21.1006 44.4897C21.3243 44.7134 21.3243 45.0775 21.1006 45.3013L18.3218 48.0802L17.5102 47.2684ZM20.1863 49.9445L22.9653 47.1656C24.2169 45.9137 24.2169 43.8771 22.9653 42.6251C22.3588 42.0187 21.5525 41.6847 20.6949 41.6847C19.8372 41.6847 19.0309 42.0187 18.4245 42.6251L13.8705 47.1791H13.8703C13.0323 48.0173 11.9184 48.4787 10.7331 48.4787C9.5478 48.4787 8.43369 48.0173 7.59556 47.1791C7.26843 46.852 7.08808 46.4169 7.08808 45.9541C7.08808 45.4913 7.26825 45.0564 7.59574 44.7291L16.1358 36.189C16.7204 35.6042 17.4979 35.2822 18.325 35.2822C19.1519 35.2822 19.9293 35.6042 20.514 36.189L27.9918 43.6666L20.9499 50.7085L20.1863 49.9445ZM33.7589 56.2606C33.157 56.8625 32.3563 57.194 31.5039 57.194C30.6515 57.194 29.8507 56.8625 29.2488 56.2606L24.1885 51.1989L28.6974 46.6901L30.5719 48.5633C30.8294 48.8204 31.1666 48.9491 31.5039 48.9491C31.8412 48.9491 32.1787 48.8204 32.4361 48.5631L40.6066 40.3936C40.5843 40.6725 40.5701 40.9531 40.5701 41.2359C40.5701 43.4909 41.2883 45.6347 42.6151 47.4078L33.7589 56.2606ZM61.5434 69.7807H57.6136C57.2972 69.7807 57.0397 69.5232 57.0397 69.2068C57.0397 68.8904 57.2972 68.6329 57.6136 68.6329H61.5434V69.7807ZM59.9626 53.4808V62.2797H53.5852V55.3484C53.5852 54.9988 53.4463 54.6636 53.1992 54.4163L45.461 46.6766C44.0073 45.2236 43.2068 43.2914 43.2068 41.2359C43.2068 39.6266 43.6976 38.0928 44.6081 36.8048L59.029 51.2257C59.631 51.8275 59.9626 52.6286 59.9626 53.4808ZM46.2658 34.7334L52.0256 28.9737L54.7543 31.7027C55.0118 31.9602 55.3492 32.0889 55.6867 32.0889C56.024 32.0889 56.3615 31.9602 56.6188 31.7029C57.1339 31.188 57.1339 30.3534 56.619 29.8385L49.9001 23.1186L54.4105 18.6096L56.2789 20.478C56.6939 24.2515 59.1408 27.4215 62.4998 28.8672C63.4872 32.6722 62.4063 36.6958 59.604 39.4964L55.3172 43.7846L46.2658 34.7334ZM83.2696 34.2428L71.9082 45.6039C71.3063 46.2058 70.5056 46.5375 69.6542 46.5375C68.8023 46.5375 68.0018 46.206 67.3999 45.6039L62.275 40.479C63.77 38.7031 64.7685 36.6136 65.2199 34.4054L68.7209 37.9064C69.2358 38.4213 70.0706 38.4215 70.5853 37.9064L78.7592 29.7343C80.0028 28.491 82.0263 28.4908 83.2696 29.7343C83.8716 30.3362 84.2031 31.1365 84.2031 31.9877C84.2031 32.84 83.8716 33.6409 83.2696 34.2428Z" />
</svg>
