<svg width="39" height="24" viewBox="0 0 39 24" fill="none" xmlns="http://www.w3.org/2000/svg">
<path d="M0.719482 2.4C0.719482 1.07452 1.8161 0 3.16912 0H35.831C37.184 0 38.2806 1.07452 38.2806 2.4V21.6C38.2806 22.9255 37.184 24 35.831 24H3.16912C1.8161 24 0.719482 22.9255 0.719482 21.6V2.4Z" fill="white"/>
<path d="M4.24855 7.16004H2.69629V12.66H4.24855C5.06836 12.66 5.66199 12.46 6.1854 12.03C6.80842 11.51 7.17423 10.73 7.17423 9.92005C7.16443 8.29005 5.96819 7.16004 4.24855 7.16004ZM5.49378 11.3C5.15736 11.6 4.73276 11.74 4.04033 11.74H3.75372V8.10005H4.04033C4.72296 8.10005 5.13777 8.22005 5.49378 8.54005C5.85959 8.87005 6.07679 9.38005 6.07679 9.91005C6.07679 10.44 5.85959 10.97 5.49378 11.3ZM7.65845 7.16004H8.71587V12.66H7.65845V7.16004ZM11.306 9.27005C10.6731 9.03005 10.4853 8.87005 10.4853 8.58005C10.4853 8.23005 10.8217 7.97004 11.2757 7.97004C11.5926 7.97004 11.8596 8.10005 12.1258 8.42005L12.6794 7.69004C12.2246 7.29004 11.6816 7.08004 11.0781 7.08004C10.1195 7.08004 9.37809 7.76004 9.37809 8.66005C9.37809 9.42005 9.72431 9.81005 10.7123 10.17C11.128 10.32 11.3354 10.42 11.444 10.48C11.6514 10.62 11.7608 10.82 11.7608 11.05C11.7608 11.5 11.4146 11.83 10.9401 11.83C10.4355 11.83 10.0305 11.57 9.7831 11.1L9.10128 11.77C9.5855 12.5 10.1791 12.82 10.9793 12.82C12.0768 12.82 12.8574 12.08 12.8574 11.01C12.877 10.12 12.512 9.72005 11.306 9.27005ZM13.2036 9.92005C13.2036 11.54 14.4586 12.79 16.0697 12.79C16.5245 12.79 16.9197 12.7 17.3949 12.47V11.21C16.9695 11.64 16.5939 11.81 16.1195 11.81C15.0523 11.81 14.2904 11.03 14.2904 9.91005C14.2904 8.85005 15.0719 8.02005 16.0697 8.02005C16.5743 8.02005 16.9597 8.20005 17.3949 8.64005V7.38004C16.9303 7.14004 16.5441 7.04004 16.0901 7.04004C14.4987 7.04004 13.2036 8.32005 13.2036 9.92005ZM25.816 10.86L24.3634 7.16004H23.2063L25.5098 12.8H26.083L28.4257 7.16004H27.2792L25.816 10.86ZM28.9099 12.66H31.9148V11.73H29.9673V10.25H31.8454V9.32005H29.9673V8.10005H31.9148V7.16004H28.9099V12.66ZM36.1159 8.79005C36.1159 7.76004 35.4137 7.17004 34.1881 7.17004H32.617V12.67H33.6744V10.46H33.8124L35.2757 12.67H36.5805L34.8707 10.35C35.6709 10.18 36.1159 9.63005 36.1159 8.79005ZM33.9806 9.70005H33.6744V8.03005H34.0002C34.6625 8.03005 35.0185 8.31005 35.0185 8.85005C35.0185 9.40005 34.6625 9.70005 33.9806 9.70005Z" fill="#231F20"/>
<path d="M20.6464 12.8601C21.4147 12.8601 22.1521 12.5513 22.6951 12.0016C23.2381 11.4519 23.5435 10.7064 23.5435 9.92904C23.5435 9.15168 23.2381 8.40616 22.6951 7.85652C22.1521 7.30685 21.4147 6.99805 20.6464 6.99805C19.878 6.99805 19.1415 7.30685 18.5977 7.85652C18.0547 8.40616 17.7493 9.15168 17.7493 9.92904C17.7493 10.7064 18.0547 11.4519 18.5977 12.0016C19.1415 12.5513 19.878 12.8601 20.6464 12.8601Z" fill="url(#paint0_linear_609_46)"/>
<path opacity="0.65" d="M20.6464 12.8601C21.4147 12.8601 22.1521 12.5513 22.6951 12.0016C23.2381 11.4519 23.5435 10.7064 23.5435 9.92904C23.5435 9.15168 23.2381 8.40616 22.6951 7.85652C22.1521 7.30685 21.4147 6.99805 20.6464 6.99805C19.878 6.99805 19.1415 7.30685 18.5977 7.85652C18.0547 8.40616 17.7493 9.15168 17.7493 9.92904C17.7493 10.7064 18.0547 11.4519 18.5977 12.0016C19.1415 12.5513 19.878 12.8601 20.6464 12.8601Z" fill="url(#paint1_linear_609_46)"/>
<path d="M36.8672 7.50596C36.8672 7.40596 36.7978 7.35596 36.6892 7.35596H36.5308V7.83596H36.65V7.64596L36.788 7.83596H36.9268L36.7684 7.63596C36.828 7.62596 36.8672 7.57596 36.8672 7.50596ZM36.6696 7.57596H36.65V7.44596H36.6696C36.7292 7.44596 36.7586 7.46596 36.7586 7.50596C36.7586 7.55596 36.7292 7.57596 36.6696 7.57596Z" fill="#231F20"/>
<path d="M36.7087 7.17627C36.4817 7.17627 36.2939 7.36627 36.2939 7.59627C36.2939 7.82627 36.4817 8.01626 36.7087 8.01626C36.9366 8.01626 37.1244 7.82627 37.1244 7.59627C37.1244 7.36627 36.9366 7.17627 36.7087 7.17627ZM36.7087 7.94627C36.5307 7.94627 36.3732 7.79627 36.3732 7.59627C36.3732 7.40627 36.5209 7.24627 36.7087 7.24627C36.8868 7.24627 37.0354 7.40627 37.0354 7.59627C37.0354 7.78627 36.8868 7.94627 36.7087 7.94627Z" fill="#231F20"/>
<path d="M38.2569 12.75C38.2569 12.75 28.1709 20.4878 9.73413 24H36.2205C36.7577 24 37.273 23.7658 37.6543 23.3484C38.0356 22.931 38.252 22.3642 38.2561 21.7716L38.2806 18.3795L38.2569 12.7511V12.75Z" fill="#F48120"/>
<defs>
<linearGradient id="paint0_linear_609_46" x1="22.126" y1="12.275" x2="20.0916" y2="9.12548" gradientUnits="userSpaceOnUse">
<stop stop-color="#F89F20"/>
<stop offset="0.25" stop-color="#F79A20"/>
<stop offset="0.533" stop-color="#F68D20"/>
<stop offset="0.62" stop-color="#F58720"/>
<stop offset="0.723" stop-color="#F48120"/>
<stop offset="1" stop-color="#F37521"/>
</linearGradient>
<linearGradient id="paint1_linear_609_46" x1="21.8108" y1="12.2321" x2="18.8306" y2="6.47412" gradientUnits="userSpaceOnUse">
<stop stop-color="#F58720"/>
<stop offset="0.359" stop-color="#E16F27"/>
<stop offset="0.703" stop-color="#D4602C"/>
<stop offset="0.982" stop-color="#D05B2E"/>
</linearGradient>
</defs>
</svg>
