<svg width="38" height="24" viewBox="0 0 38 24" fill="none" xmlns="http://www.w3.org/2000/svg">
<path d="M0.359863 2.4C0.359863 1.07452 1.45657 0 2.8095 0H35.4714C36.8244 0 37.921 1.07452 37.921 2.4V21.6C37.921 22.9255 36.8244 24 35.4714 24H2.8095C1.45657 24 0.359863 22.9255 0.359863 21.6V2.4Z" fill="#EFEFEF"/>
<path fill-rule="evenodd" clip-rule="evenodd" d="M19.1401 17.6293C17.8613 18.7311 16.2026 19.3961 14.39 19.3961C10.3456 19.3961 7.06689 16.0848 7.06689 12.0001C7.06689 7.91533 10.3456 4.604 14.39 4.604C16.2026 4.604 17.8613 5.26909 19.1401 6.37081C20.4188 5.26909 22.0776 4.604 23.8902 4.604C27.9346 4.604 31.2133 7.91533 31.2133 12.0001C31.2133 16.0848 27.9346 19.3961 23.8902 19.3961C22.0776 19.3961 20.4188 18.7311 19.1401 17.6293Z" fill="#ED0006"/>
<path fill-rule="evenodd" clip-rule="evenodd" d="M19.1401 17.6293C20.7148 16.2727 21.7132 14.2542 21.7132 12.0001C21.7132 9.74594 20.7148 7.72738 19.1401 6.37081C20.4189 5.26909 22.0777 4.604 23.8902 4.604C27.9347 4.604 31.2134 7.91533 31.2134 12.0001C31.2134 16.0848 27.9347 19.3961 23.8902 19.3961C22.0777 19.3961 20.4189 18.7311 19.1401 17.6293Z" fill="#F9A000"/>
<path fill-rule="evenodd" clip-rule="evenodd" d="M19.1403 6.37061C20.7149 7.72718 21.7133 9.74575 21.7133 11.9998C21.7133 14.2539 20.7149 16.2725 19.1403 17.629C17.5658 16.2725 16.5674 14.2539 16.5674 11.9998C16.5674 9.74575 17.5658 7.72718 19.1403 6.37061Z" fill="#FF5E00"/>
</svg>
