<svg width="38" height="24" viewBox="0 0 38 24" fill="none" xmlns="http://www.w3.org/2000/svg">
<path d="M0 2.4C0 1.07452 1.09674 0 2.44964 0H35.1115C36.4644 0 37.5611 1.07452 37.5611 2.4V21.6C37.5611 22.9255 36.4644 24 35.1115 24H2.44964C1.09674 24 0 22.9255 0 21.6V2.4Z" fill="#EFEFEF"/>
<path d="M16.8774 15.9265H14.5649L16.0113 7.6499H18.3237L16.8774 15.9265Z" fill="#00579F"/>
<path d="M25.2605 7.85237C24.8043 7.6849 24.081 7.5 23.1864 7.5C20.9028 7.5 19.2947 8.62696 19.2848 10.2382C19.2658 11.427 20.4361 12.0872 21.3115 12.4836C22.2062 12.8886 22.5102 13.153 22.5102 13.514C22.5012 14.0685 21.7873 14.3241 21.1215 14.3241C20.1983 14.3241 19.7036 14.1923 18.9518 13.8838L18.6473 13.7516L18.3237 15.6095C18.8661 15.8382 19.8654 16.0411 20.9028 16.05C23.3292 16.05 24.9089 14.9405 24.9276 13.2234C24.9368 12.2813 24.3188 11.5593 22.9865 10.9694C22.1777 10.5907 21.6824 10.3354 21.6824 9.94784C21.6918 9.5956 22.1013 9.2348 23.0143 9.2348C23.7661 9.21712 24.3184 9.3844 24.7369 9.55168L24.946 9.6396L25.2605 7.85237Z" fill="#00579F"/>
<path d="M28.3336 12.9944C28.5241 12.5189 29.2568 10.6787 29.2568 10.6787C29.2473 10.6964 29.4469 10.1945 29.5611 9.8863L29.7227 10.5994C29.7227 10.5994 30.1607 12.5806 30.2557 12.9944C29.8943 12.9944 28.7903 12.9944 28.3336 12.9944ZM31.188 7.6499H29.3994C28.8477 7.6499 28.4287 7.79946 28.1907 8.33662L24.7559 15.9264H27.1822C27.1822 15.9264 27.5817 14.9049 27.6676 14.6849C27.9338 14.6849 30.2942 14.6849 30.6366 14.6849C30.703 14.9754 30.9125 15.9264 30.9125 15.9264H33.0536L31.188 7.6499Z" fill="#00579F"/>
<path d="M12.6335 7.6499L10.3689 13.2937L10.1214 12.1491C9.7028 10.8284 8.38963 9.39334 6.92432 8.67982L8.99869 15.9177H11.444L15.0789 7.6499H12.6335Z" fill="#00579F"/>
<path d="M8.26595 7.6499H4.54538L4.50732 7.81713C7.40957 8.50398 9.33163 10.1596 10.1214 12.1495L9.3126 8.34566C9.17943 7.81701 8.77017 7.66734 8.26595 7.6499Z" fill="#FAA61A"/>
</svg>
