<svg width="26" height="26" viewBox="0 0 26 26" fill="none" xmlns="http://www.w3.org/2000/svg">
<path d="M14.5491 16.2501H4.76663C2.79496 16.2501 1.53829 14.1376 2.49162 12.4042L5.01579 7.81089L7.37746 3.51006C8.36329 1.72256 10.9416 1.72256 11.9275 3.51006L14.3 7.81089L15.4375 9.88006L16.8241 12.4042C17.7775 14.1376 16.5208 16.2501 14.5491 16.2501Z" stroke="white" stroke-width="1.5" stroke-linecap="round" stroke-linejoin="round"/>
<path d="M23.8333 16.7917C23.8333 20.6808 20.6808 23.8333 16.7917 23.8333C12.9025 23.8333 9.75 20.6808 9.75 16.7917C9.75 16.6075 9.76083 16.4342 9.77167 16.25H14.5492C16.5208 16.25 17.7775 14.1375 16.8242 12.4042L15.4375 9.87999C15.8708 9.79333 16.3258 9.75 16.7917 9.75C20.6808 9.75 23.8333 12.9025 23.8333 16.7917Z" stroke="white" stroke-width="1.5" stroke-linecap="round" stroke-linejoin="round"/>
</svg>
