<svg width="38" height="24" viewBox="0 0 38 24" fill="none" xmlns="http://www.w3.org/2000/svg">
<path d="M0.438843 2.4C0.438843 1.07452 1.53547 0 2.88848 0H35.5504C36.9034 0 38 1.07452 38 2.4V21.6C38 22.9255 36.9034 24 35.5504 24H2.88848C1.53547 24 0.438843 22.9255 0.438843 21.6V2.4Z" fill="white"/>
<path fill-rule="evenodd" clip-rule="evenodd" d="M24.0043 12.6939H25.3321C25.3541 12.6942 25.3753 12.6955 25.3974 12.6979C25.4243 12.7009 25.4505 12.7049 25.4766 12.7099L25.4848 12.7115C25.5231 12.7206 25.5599 12.7339 25.595 12.7515C25.6816 12.7928 25.7567 12.856 25.8146 12.9355C25.8677 13.0079 25.9053 13.0921 25.9241 13.1819C25.9584 13.3435 25.9347 13.5129 25.8579 13.6571C25.8097 13.7451 25.742 13.8191 25.6611 13.8723C25.6064 13.908 25.5468 13.934 25.4848 13.9491L25.4766 13.9511C25.4652 13.954 25.4529 13.9562 25.4415 13.9575C25.4047 13.963 25.3688 13.9662 25.3321 13.9671H24.0043V12.6939ZM25.7706 11.2523C25.7983 11.3884 25.7828 11.5305 25.7265 11.6563C25.6791 11.7591 25.6024 11.8435 25.5068 11.8979C25.4529 11.9304 25.3933 11.9527 25.3321 11.9639L25.3264 11.9647C25.3141 11.9671 25.301 11.9689 25.288 11.9699C25.2586 11.9729 25.2292 11.9747 25.1998 11.9755H24.0043V10.8007H25.2218C25.2512 10.8019 25.2806 10.8046 25.31 10.8087L25.3264 10.8107L25.3321 10.8119C25.377 10.8203 25.4211 10.8347 25.4635 10.8547C25.5019 10.8735 25.5387 10.8965 25.573 10.9235C25.6146 10.9574 25.6513 10.9975 25.6824 11.0427C25.7248 11.1053 25.755 11.1767 25.7706 11.2523ZM28.4913 5.15869H28.5003V17.2283C28.4994 17.5359 28.4447 17.8406 28.3378 18.1263C28.2741 18.2943 28.1932 18.4539 28.0961 18.6023C28.0822 18.6242 28.0675 18.6458 28.052 18.6671L28.0299 18.6975C28.0087 18.7269 27.9867 18.7559 27.9646 18.7843L27.9426 18.8119L27.9205 18.8379C27.9058 18.8551 27.8919 18.8719 27.8772 18.8887L27.8544 18.9127L27.8332 18.9367L27.8111 18.9595L27.7891 18.9819C27.7531 19.0175 27.7172 19.0519 27.6796 19.0851L27.6576 19.1043L27.6355 19.1231L27.6135 19.1411L27.5914 19.1587L27.5694 19.1759L27.5474 19.1931L27.5261 19.2091L27.5033 19.2255L27.482 19.2411L27.46 19.2563L27.4379 19.2711C27.4232 19.2809 27.4085 19.2905 27.3938 19.2999L27.3718 19.3139C27.3653 19.3183 27.3579 19.3227 27.3506 19.3271L27.3285 19.3403L27.3065 19.3531L27.2844 19.3651L27.2624 19.3775L27.2403 19.3895L27.2183 19.4007L27.197 19.4119L27.1742 19.4227L27.153 19.4335L27.1309 19.4435L27.1089 19.4535L27.0868 19.4631L27.0648 19.4727L27.0427 19.4819L27.0207 19.4907L26.9995 19.4991L26.9766 19.5071C26.9701 19.5099 26.9627 19.5131 26.9554 19.5155L26.9333 19.5231L26.9113 19.5307L26.8892 19.5379L26.8672 19.5447L26.8451 19.5515L26.8239 19.5579L26.8019 19.5643L26.7798 19.5699L26.7578 19.5759L26.7357 19.5815L26.7137 19.5863L26.6916 19.5915L26.6704 19.5963L26.6475 19.6003L26.6263 19.6051L26.6043 19.6091L26.5822 19.6127L26.5601 19.6163L26.5381 19.6195L26.5161 19.6227L26.494 19.6255L26.4728 19.6279L26.4507 19.6303L26.4287 19.6327L26.4066 19.6347L26.3846 19.6363L26.3625 19.6379C26.3552 19.6379 26.3479 19.6387 26.3405 19.6391L26.3193 19.6399L26.2972 19.6407L26.2752 19.6415H26.2531L26.2311 19.6419H22.893V14.7211H26.4507L26.4728 14.7203L26.494 14.7199C26.5022 14.7199 26.5095 14.7191 26.5161 14.7187L26.5381 14.7179L26.5601 14.7163L26.5822 14.7147L26.6043 14.7131L26.6263 14.7107L26.6475 14.7087L26.6704 14.7059L26.6916 14.7031L26.7137 14.6999L26.7357 14.6967L26.7578 14.6927L26.7798 14.6887L26.8019 14.6847L26.8239 14.6807L26.8451 14.6755L26.8672 14.6707C26.8745 14.6689 26.8819 14.667 26.8892 14.6651L26.9113 14.6595C26.9407 14.6518 26.9701 14.6433 26.9995 14.6339L27.0207 14.6267C27.0427 14.6193 27.0648 14.6113 27.0868 14.6027L27.1089 14.5935L27.1309 14.5847L27.153 14.5751C27.2885 14.5139 27.4143 14.4302 27.5261 14.3271C27.5825 14.2721 27.6339 14.211 27.6796 14.1447C27.7499 14.0379 27.8021 13.9184 27.8332 13.7919C27.8544 13.7015 27.865 13.6084 27.8642 13.5151C27.8642 13.4246 27.8536 13.3344 27.8332 13.2467C27.7972 13.0991 27.7295 12.9625 27.6355 12.8475C27.5776 12.7751 27.5114 12.7108 27.4379 12.6563C27.3694 12.6035 27.2959 12.558 27.2183 12.5207C27.1971 12.5099 27.175 12.4999 27.153 12.4903L27.1309 12.4807C27.1236 12.4777 27.1162 12.4747 27.1089 12.4719L27.0868 12.4635C27.0583 12.4525 27.0289 12.4422 26.9995 12.4327L26.9766 12.4259C26.9333 12.4126 26.89 12.4011 26.8451 12.3915L26.8239 12.3867L26.8019 12.3823L26.7798 12.3783C26.7725 12.3769 26.7651 12.3755 26.7578 12.3743L26.7357 12.3703C26.7283 12.3691 26.721 12.3681 26.7137 12.3671L26.6916 12.3639L26.6704 12.3607L26.6475 12.3583L26.6263 12.3559L26.6043 12.3535L26.5822 12.3515L26.5618 12.3499V12.3219L26.5822 12.3187L26.6043 12.3147L26.6263 12.3107L26.6475 12.3067L26.6704 12.3015L26.6916 12.2963C26.7741 12.2765 26.8549 12.2496 26.9333 12.2159C27.0264 12.1746 27.1146 12.1215 27.1963 12.0579C27.3269 11.9542 27.4322 11.8191 27.5033 11.6635C27.5506 11.5574 27.5808 11.4433 27.5914 11.3263C27.5988 11.2501 27.5988 11.1733 27.5914 11.0971C27.5825 10.9987 27.5596 10.9022 27.5261 10.8103C27.4771 10.6815 27.402 10.5658 27.3065 10.4711C27.2656 10.4295 27.2216 10.3918 27.175 10.3583C27.113 10.3127 27.046 10.2735 26.9766 10.2415C26.9202 10.2146 26.8615 10.1915 26.8019 10.1723L26.7798 10.1655C26.7651 10.161 26.7504 10.1567 26.7357 10.1527L26.7137 10.1471C26.699 10.1431 26.6843 10.1394 26.6704 10.1359L26.6475 10.1311L26.6263 10.1263L26.6043 10.1223L26.5822 10.1183L26.5601 10.1143L26.5381 10.1103L26.5161 10.1071L26.494 10.1043L26.4728 10.1015L26.4507 10.0991L26.4287 10.0967L26.4066 10.0947L26.3846 10.0927L26.3625 10.0911L26.3405 10.0899L26.3323 10.0891L26.3193 10.0883L26.2972 10.0871L26.2752 10.0855L26.2531 10.0843L26.2311 10.0835L26.209 10.0823L26.187 10.0815L26.165 10.0807L26.1437 10.0803H26.1217L26.1094 10.0799H22.8922V7.57309C22.893 7.21201 22.969 6.85555 23.1151 6.52989C23.1543 6.4432 23.1984 6.35916 23.2466 6.27829C23.2613 6.25454 23.276 6.23107 23.2907 6.20789L23.3127 6.17469C23.3274 6.15339 23.3421 6.13232 23.3568 6.11149L23.3789 6.08109L23.4009 6.05229C23.4148 6.03337 23.4295 6.0147 23.4442 5.99629L23.4662 5.97029L23.4883 5.94429C23.5095 5.9193 23.5316 5.89476 23.5544 5.87069L23.5765 5.84789L23.5977 5.82509L23.6198 5.80349L23.6418 5.78189L23.6639 5.76149C23.6924 5.73464 23.7218 5.70849 23.7512 5.68309L23.7741 5.66509L23.7953 5.64709C23.81 5.63545 23.8247 5.62398 23.8394 5.61269L23.8615 5.59629C23.8688 5.59091 23.8762 5.58557 23.8835 5.58029L23.9056 5.56429L23.9276 5.54869L23.9488 5.53389L23.9709 5.51949L23.9929 5.50509L24.015 5.49109L24.037 5.47749L24.0591 5.46429L24.0811 5.45149L24.1032 5.43909L24.1244 5.42709L24.1464 5.41509L24.1685 5.40309L24.1905 5.39229C24.1979 5.38829 24.2052 5.38509 24.2126 5.38149L24.2346 5.37069L24.2567 5.36029L24.2779 5.35029L24.2999 5.34069L24.322 5.33109L24.344 5.32189L24.3661 5.31309L24.3881 5.30429L24.4102 5.29629L24.4314 5.28789L24.4543 5.27989L24.4755 5.27269L24.4975 5.26509L24.5196 5.25829L24.5417 5.25149L24.5637 5.24509L24.5857 5.23869L24.6078 5.23269L24.629 5.22709L24.6511 5.22149L24.6731 5.21629L24.6952 5.21109L24.7172 5.20629L24.7393 5.20189L24.7605 5.19749L24.7833 5.19349L24.8046 5.18949L24.8266 5.18589L24.8487 5.18269L24.8707 5.17949L24.8928 5.17669L24.9148 5.17389L24.9369 5.17149L24.9581 5.16909L24.9809 5.16709L25.0022 5.16549L25.0242 5.16389C25.0316 5.16389 25.0389 5.16309 25.0463 5.16269L25.0683 5.16149L25.0904 5.16069L25.1124 5.15989H25.1345L25.1557 5.15949H28.4913V5.15869Z" fill="#54B230"/>
<path fill-rule="evenodd" clip-rule="evenodd" d="M10.3142 13.5343V7.57229C10.315 7.21164 10.391 6.85561 10.5371 6.53029C10.5878 6.41847 10.6457 6.31095 10.7119 6.20869L10.7339 6.17509L10.756 6.14309L10.778 6.11189L10.7992 6.08189L10.8213 6.05269C10.836 6.03379 10.8507 6.01512 10.8654 5.99669L10.8874 5.97069C10.8948 5.96196 10.9021 5.9533 10.9095 5.94469L10.9307 5.91949C10.9454 5.90327 10.9601 5.88727 10.9748 5.87149L10.9968 5.84829L11.0181 5.82589L11.0409 5.80389L11.0622 5.78269L11.0842 5.76189L11.1063 5.74189L11.1283 5.72189C11.1634 5.68995 11.2002 5.65926 11.2377 5.62989L11.2598 5.61309C11.2884 5.59097 11.3177 5.56963 11.3471 5.54909L11.3692 5.53429L11.3912 5.51989L11.4125 5.50549L11.4345 5.49149L11.4566 5.47789L11.4786 5.46509L11.5007 5.45189L11.5227 5.43989L11.5439 5.42709L11.566 5.41509L11.588 5.40389C11.5954 5.39989 11.6027 5.39589 11.6101 5.39269L11.6321 5.38149L11.6533 5.37069L11.6754 5.36069L11.6974 5.35069L11.7195 5.34069L11.7415 5.33149L11.7636 5.32229L11.7848 5.31349L11.8069 5.30429L11.8289 5.29629L11.851 5.28829L11.873 5.28029L11.895 5.27269L11.9163 5.26549L11.9383 5.25829L11.9604 5.25149L11.9824 5.24509L12.0045 5.23869L12.0265 5.23269L12.0477 5.22709L12.0698 5.22149C12.0771 5.21942 12.0845 5.21768 12.0918 5.21629L12.1139 5.21109L12.1351 5.20629L12.158 5.20189L12.1792 5.19709L12.2013 5.19309L12.2233 5.18909C12.2307 5.18829 12.238 5.18669 12.2453 5.18549L12.2666 5.18229L12.2894 5.17909L12.3107 5.17629L12.3327 5.17349L12.3548 5.17109L12.3768 5.16869L12.398 5.16669L12.4201 5.16509L12.4421 5.16349L12.4642 5.16189L12.4862 5.16109L12.5083 5.15989L12.5295 5.15909H12.5516L12.5736 5.15869H15.9214V17.2275C15.9214 17.4999 15.8782 17.7703 15.7932 18.0275C15.7083 18.2855 15.5826 18.5259 15.4209 18.7383L15.3988 18.7671C15.385 18.7855 15.3703 18.8036 15.3556 18.8215L15.3335 18.8475L15.3115 18.8727L15.2894 18.8975C15.2609 18.929 15.2323 18.9597 15.2021 18.9895L15.18 19.0111L15.158 19.0319L15.1359 19.0523L15.1147 19.0723L15.0926 19.0919L15.0706 19.1103L15.0486 19.1291L15.0273 19.1467L15.0045 19.1647L14.9832 19.1815L14.9612 19.1983L14.9391 19.2143L14.9171 19.2303L14.8959 19.2459L14.873 19.2611C14.8665 19.2663 14.8591 19.2707 14.8518 19.2755L14.8297 19.2903L14.8077 19.3039L14.7856 19.3179C14.7783 19.3219 14.7709 19.3267 14.7644 19.3311C14.7497 19.3399 14.735 19.3483 14.7203 19.3567L14.6983 19.3687L14.6762 19.3807L14.6542 19.3927L14.6329 19.4039L14.6109 19.4147L14.5888 19.4259L14.5668 19.4359L14.5447 19.4463L14.5227 19.4563L14.5015 19.4655L14.4794 19.4751L14.4574 19.4839L14.4353 19.4927L14.4133 19.5007L14.392 19.5091L14.37 19.5171L14.348 19.5251C14.3406 19.5271 14.3333 19.5299 14.3259 19.5323L14.3039 19.5391L14.2818 19.5463L14.2606 19.5527L14.2385 19.5591L14.2165 19.5655L14.1944 19.5711L14.1724 19.5767L14.1504 19.5823L14.1291 19.5871L14.1071 19.5923L14.085 19.5967L14.063 19.6011L14.0409 19.6051L14.0189 19.6091L13.9977 19.6131L13.9756 19.6163L13.9536 19.6195L13.9315 19.6227L13.9095 19.6255L13.8874 19.6279L13.8662 19.6303L13.8442 19.6323L13.8221 19.6343L13.8001 19.6359L13.778 19.6375L13.756 19.6387L13.7347 19.6395L13.7127 19.6403L13.6906 19.6407H13.6686L13.6482 19.6415H10.3142V14.5547L10.3616 14.5679L10.3836 14.5735L10.4057 14.5791L10.4269 14.5847L10.4489 14.5903L10.471 14.5959L10.493 14.6011L10.5151 14.6063L10.5371 14.6115L10.5584 14.6167L10.5804 14.6215L10.6025 14.6267L10.6245 14.6315L10.6466 14.6363L10.6678 14.6411L10.6898 14.6459L10.7119 14.6503L10.7339 14.6551L10.756 14.6595L10.778 14.6639L10.7992 14.6683L10.8213 14.6727L10.8433 14.6771L10.8654 14.6811L10.8874 14.6855L10.9095 14.6895L10.9307 14.6935L10.9528 14.6975L10.9748 14.7015L10.9968 14.7055L11.0181 14.7095L11.0409 14.7135L11.0622 14.7175L11.0842 14.7207L11.1063 14.7247L11.1283 14.7283L11.1495 14.7319L11.1724 14.7351L11.1936 14.7387L11.2157 14.7419L11.2377 14.7455L11.2598 14.7487L11.281 14.7519L11.3039 14.7551L11.3251 14.7583L11.3471 14.7615L11.3692 14.7643L11.3912 14.7675L11.4125 14.7703L11.4345 14.7735L11.4566 14.7763L11.4786 14.7791L11.5007 14.7819L11.5227 14.7843L11.5439 14.7871L11.566 14.7899L11.588 14.7923L11.6101 14.7947L11.6321 14.7971L11.6533 14.7995L11.6754 14.8019L11.6974 14.8043L11.7195 14.8067L11.7415 14.8087L11.7636 14.8107L11.7848 14.8131L11.8069 14.8151L11.8289 14.8171L11.851 14.8191L11.873 14.8207L11.895 14.8227L11.9163 14.8243L11.9383 14.8263L11.9604 14.8279L11.9824 14.8295L12.0045 14.8311L12.0265 14.8327L12.0477 14.8343L12.0698 14.8355L12.0918 14.8371L12.1139 14.8383L12.1351 14.8395L12.158 14.8407L12.1792 14.8419L12.2013 14.8431L12.2233 14.8443L12.2453 14.8455L12.2666 14.8463L12.2894 14.8471L12.3107 14.8479L12.3327 14.8487L12.3548 14.8495L12.3768 14.8503L12.398 14.8511L12.4201 14.8515L12.4421 14.8523H12.4642L12.4862 14.8531H12.5083L12.5295 14.8539H12.5736L12.5956 14.8543H12.7492L12.7704 14.8535H12.7924L12.8145 14.8527L12.8365 14.8523L12.8586 14.8515L12.8806 14.8511L12.9019 14.8503L12.9239 14.8495L12.9459 14.8487L12.968 14.8479L12.99 14.8467L13.0121 14.8455L13.0333 14.8447L13.0554 14.8435L13.0774 14.8419L13.0995 14.8407L13.1207 14.8395L13.1436 14.8379L13.1648 14.8359L13.1868 14.8343L13.2089 14.8327L13.2309 14.8307L13.2522 14.8287L13.275 14.8267L13.2962 14.8247L13.3183 14.8227L13.3403 14.8203L13.3624 14.8179L13.3836 14.8155L13.4057 14.8131L13.4277 14.8103L13.4498 14.8075L13.4718 14.8047L13.4939 14.8019L13.5151 14.7987L13.5371 14.7955L13.5592 14.7923L13.5812 14.7887L13.6033 14.7855L13.6253 14.7815L13.6465 14.7783L13.6686 14.7743L13.6906 14.7703L13.7127 14.7663L13.7347 14.7623L13.756 14.7579L13.778 14.7535L13.8001 14.7487C13.8074 14.7475 13.8147 14.7455 13.8221 14.7439L13.8442 14.7395L13.8662 14.7343L13.8874 14.7291L13.9095 14.7239L13.9315 14.7187L13.9536 14.7131L13.9756 14.7075L13.9977 14.7015L14.0189 14.6955L14.0409 14.6891L14.063 14.6831L14.085 14.6763L14.1071 14.6699L14.1291 14.6631L14.1504 14.6559L14.1724 14.6487L14.1944 14.6411L14.2165 14.6335L14.2385 14.6255L14.2606 14.6175L14.2818 14.6095L14.3039 14.6007L14.3259 14.5923L14.348 14.5831L14.37 14.5739L14.392 14.5647L14.4133 14.5547L14.4353 14.5451L14.4574 14.5347L14.4794 14.5239L14.5015 14.5131C14.5088 14.5095 14.5162 14.5059 14.5227 14.5019L14.5447 14.4907L14.5668 14.4787L14.5888 14.4667L14.6109 14.4547C14.6329 14.4418 14.655 14.4284 14.6762 14.4147L14.6983 14.4007L14.7203 14.3863L14.7423 14.3715L14.7644 14.3559L14.7856 14.3403C14.793 14.3347 14.8011 14.3295 14.8077 14.3239L14.8297 14.3071L14.8518 14.2895C14.8738 14.2715 14.8959 14.2527 14.9171 14.2335L14.9391 14.2135L14.9612 14.1923L14.9832 14.1707C14.9979 14.1555 15.0126 14.1401 15.0273 14.1243L15.0486 14.1003L15.0706 14.0743C15.1588 13.9691 15.2323 13.8513 15.2894 13.7243C15.3254 13.6465 15.3548 13.5657 15.3776 13.4827C15.3956 13.4184 15.4103 13.3531 15.4209 13.2871C15.4438 13.1528 15.4544 13.0167 15.4544 12.8803V10.0795H13.5151L13.4987 12.8803C13.4987 12.9767 13.4898 13.0727 13.4718 13.1671C13.4563 13.2435 13.4342 13.3183 13.4057 13.3903C13.3714 13.4751 13.3273 13.5551 13.2742 13.6283C13.2178 13.7055 13.1517 13.7737 13.0774 13.8311C12.9966 13.8939 12.9084 13.9443 12.8145 13.9807C12.7786 13.995 12.7418 14.0075 12.7051 14.0183L12.683 14.0247C12.6397 14.0367 12.5956 14.0463 12.5516 14.0535L12.5295 14.0575C12.5156 14.0597 12.5009 14.0617 12.4862 14.0635L12.4642 14.0659L12.4421 14.0683L12.4201 14.0703C12.4054 14.0715 12.3915 14.0723 12.3768 14.0731L12.3548 14.0743L12.3327 14.0751H12.3107L12.2894 14.0759H12.2453L12.2233 14.0751H12.2013L12.1792 14.0743L12.158 14.0735L12.1351 14.0723L12.1139 14.0715L12.0918 14.0703L12.0698 14.0687L12.0477 14.0671L12.0265 14.0655L12.0045 14.0639L11.9824 14.0619L11.9604 14.0599L11.9383 14.0575L11.9163 14.0551L11.895 14.0527L11.873 14.0499L11.851 14.0471L11.8289 14.0443L11.8069 14.0411L11.7848 14.0379L11.7636 14.0347L11.7415 14.0311L11.7195 14.0271L11.6974 14.0235L11.6754 14.0195L11.6533 14.0155L11.6321 14.0115L11.6101 14.0075L11.588 14.0027L11.566 13.9983L11.5439 13.9935L11.5227 13.9887L11.5007 13.9835L11.4786 13.9787L11.4566 13.9735L11.4345 13.9679L11.4125 13.9623L11.3912 13.9567L11.3692 13.9511L11.3471 13.9451L11.3251 13.9391L11.3039 13.9331L11.281 13.9267L11.2598 13.9203L11.2377 13.9139L11.2157 13.9071L11.1936 13.9003L11.1724 13.8935L11.1495 13.8867L11.1283 13.8795L11.1063 13.8723L11.0842 13.8647L11.0622 13.8575L11.0409 13.8495L11.0181 13.8419L10.9968 13.8339L10.9748 13.8259L10.9528 13.8179L10.9307 13.8099L10.9095 13.8019L10.8874 13.7931L10.8654 13.7847L10.8433 13.7759L10.8213 13.7671L10.7992 13.7583L10.778 13.7495L10.756 13.7403L10.7339 13.7311L10.7119 13.7219L10.6898 13.7123L10.6678 13.7027L10.6466 13.6931L10.6245 13.6835L10.6025 13.6735L10.5804 13.6635L10.5584 13.6535L10.5371 13.6431L10.5151 13.6331L10.493 13.6227L10.471 13.6123L10.4489 13.6015L10.4269 13.5907L10.4057 13.5799L10.3836 13.5691L10.3616 13.5583L10.3142 13.5343Z" fill="#006CB9"/>
<path fill-rule="evenodd" clip-rule="evenodd" d="M16.6506 10.6916C16.6342 10.7052 16.6187 10.7191 16.604 10.7332V7.57318C16.604 7.21243 16.6799 6.85626 16.8253 6.53078C16.8759 6.41893 16.9347 6.31142 17.0009 6.20918L17.0229 6.17558L17.0449 6.14358C17.0523 6.13325 17.0596 6.12299 17.067 6.11278L17.0882 6.08238L17.1111 6.05358C17.125 6.03468 17.1397 6.016 17.1544 5.99758L17.1764 5.97118L17.1984 5.94518C17.2262 5.91231 17.2556 5.8803 17.2858 5.84918L17.3079 5.82638L17.3299 5.80478L17.3512 5.78318L17.3732 5.76238L17.3952 5.74238L17.4173 5.72238C17.4597 5.68479 17.5038 5.64864 17.5487 5.61398C17.5708 5.59736 17.592 5.58109 17.6141 5.56518L17.6361 5.54998L17.6582 5.53478L17.6802 5.52038L17.7023 5.50598L17.7235 5.49238L17.7455 5.47838L17.7676 5.46558L17.7896 5.45238L17.8117 5.44038L17.8337 5.42798L17.855 5.41598L17.877 5.40438L17.899 5.39318L17.9211 5.38238L17.9431 5.37158L17.9652 5.36118L17.9864 5.35118L18.0085 5.34158L18.0305 5.33198L18.0526 5.32278L18.0746 5.31398L18.0967 5.30518L18.1179 5.29718L18.1399 5.28878L18.162 5.28078L18.184 5.27318L18.2061 5.26598L18.2281 5.25918L18.2493 5.25198L18.2714 5.24558L18.2934 5.23918L18.3155 5.23318L18.3375 5.22758L18.3588 5.22198L18.3808 5.21678L18.4029 5.21158L18.4249 5.20678L18.447 5.20238L18.469 5.19798L18.4902 5.19398L18.5123 5.18998L18.5343 5.18598L18.5564 5.18278L18.5784 5.17958L18.6005 5.17678L18.6217 5.17398L18.6437 5.17158L18.6658 5.16918L18.6878 5.16718L18.7099 5.16558L18.7319 5.16398L18.7532 5.16238L18.7752 5.16158L18.7973 5.16038L18.8193 5.15958H18.8405L18.8634 5.15918H22.2112V17.228C22.2112 17.5004 22.1671 17.7708 22.083 18.028C22.0308 18.1829 21.9655 18.332 21.8854 18.4728C21.8716 18.4976 21.8569 18.5221 21.8422 18.5464C21.8348 18.5584 21.8275 18.5704 21.8201 18.5816C21.785 18.6355 21.7491 18.6879 21.7107 18.7388L21.6886 18.7676L21.6666 18.7952L21.6446 18.8216L21.6225 18.848L21.6004 18.8732L21.5792 18.898L21.5572 18.922C21.536 18.9452 21.5139 18.9678 21.4918 18.99L21.469 19.0116L21.4478 19.0324L21.4257 19.0528L21.4037 19.0728L21.3816 19.092L21.3604 19.1108L21.3375 19.1296L21.3163 19.1472L21.2942 19.1648L21.2722 19.182L21.2502 19.1988L21.2289 19.2148L21.2061 19.2308L21.1848 19.2464L21.1628 19.2616L21.1407 19.276L21.1187 19.2908L21.0975 19.3044L21.0754 19.3184C21.0681 19.3228 21.0607 19.3272 21.0534 19.3316L21.0313 19.3444L21.0093 19.3572L20.9872 19.3692L20.966 19.3812L20.944 19.3932L20.9219 19.4044C20.9145 19.4084 20.9072 19.4116 20.8999 19.4152L20.8778 19.426C20.8705 19.43 20.8631 19.4332 20.8558 19.4364L20.8345 19.4468L20.8125 19.4564L20.7905 19.466L20.7684 19.4756L20.7463 19.4844L20.7251 19.4932L20.7031 19.5012L20.681 19.5096L20.659 19.5176L20.6369 19.5256C20.6296 19.5276 20.6222 19.5304 20.6149 19.5328L20.5937 19.5396L20.5716 19.5468L20.5496 19.5532L20.5275 19.5596L20.5055 19.566L20.4834 19.5716L20.4622 19.5772L20.4401 19.5828L20.4181 19.5876L20.3961 19.5928L20.374 19.5972L20.352 19.6016L20.3307 19.6056L20.3087 19.6096L20.2866 19.6136L20.2646 19.6168L20.2434 19.62L20.2205 19.6232L20.1993 19.626L20.1772 19.6284L20.1552 19.6308L20.1331 19.6328L20.1119 19.6348L20.089 19.6364L20.0678 19.638L20.0457 19.6392L20.0237 19.64L20.0017 19.6408L19.9804 19.6412L19.9576 19.6416H16.604V14.0692C16.6334 14.096 16.6636 14.1221 16.6946 14.1472L16.7167 14.1648L16.7379 14.182C16.7526 14.1932 16.7673 14.2043 16.782 14.2152L16.8041 14.2312L16.8253 14.2464L16.8481 14.2616L16.8694 14.2764L16.8914 14.2908L16.9135 14.3052L16.9355 14.3188L16.9568 14.3324L16.9796 14.3456L17.0009 14.3584L17.0229 14.3712L17.0449 14.3832L17.067 14.3952L17.0882 14.4072L17.1111 14.4188L17.1323 14.43L17.1544 14.4412L17.1764 14.452L17.1984 14.4624L17.2197 14.4728L17.2417 14.4828L17.2638 14.4928L17.2858 14.5024L17.3079 14.512L17.3299 14.5212L17.3512 14.5304L17.3732 14.5396L17.3952 14.5484L17.4173 14.5564L17.4393 14.5652L17.4614 14.5732L17.4826 14.5812L17.5047 14.5892L17.5267 14.5972L17.5487 14.6044L17.5708 14.612L17.592 14.6192L17.6141 14.626L17.6361 14.6328L17.6582 14.6396L17.6802 14.6464L17.7023 14.6528L17.7235 14.6592L17.7455 14.6656L17.7676 14.6716L17.7896 14.6776L17.8117 14.6832L17.8337 14.6888L17.855 14.6944L17.877 14.7L17.899 14.7052L17.9211 14.7104L17.9431 14.7156L17.9652 14.7204L17.9864 14.7252L18.0085 14.73L18.0305 14.7348L18.0526 14.7392L18.0746 14.7436L18.0967 14.7476L18.1179 14.752L18.1399 14.756L18.162 14.76L18.184 14.764L18.2061 14.768L18.2281 14.7716L18.2493 14.7752L18.2714 14.7788L18.2934 14.782L18.3155 14.7852L18.3375 14.7888L18.3588 14.7916L18.3808 14.7948L18.4029 14.7976L18.4249 14.8008L18.447 14.8036L18.469 14.806L18.4902 14.8088L18.5123 14.8112L18.5343 14.8136L18.5564 14.816L18.5784 14.8184L18.6005 14.8208L18.6217 14.8228L18.6437 14.8248L18.6658 14.8268L18.6878 14.8288L18.7099 14.8308L18.7319 14.8324L18.7532 14.834L18.7752 14.8356L18.7973 14.8372L18.8193 14.8388L18.8405 14.84L18.8634 14.8416L18.8846 14.8428L18.9067 14.844L18.9287 14.8452L18.9508 14.8464L18.972 14.8472L18.9949 14.8484L19.0161 14.8492L19.0381 14.85L19.0602 14.8508L19.0822 14.8516L19.1035 14.852L19.1263 14.8524L19.1476 14.8532L19.1696 14.8536H19.1916L19.2137 14.8544H19.2349L19.257 14.8548H19.3231L19.3452 14.8552H19.4105L19.4325 14.8548L19.4546 14.8544H19.4766L19.4979 14.8536H19.5199L19.5419 14.8528L19.564 14.8524L19.586 14.8516L19.6073 14.8512L19.6293 14.8504L19.6514 14.8496L19.6734 14.8488L19.6954 14.848L19.7175 14.8472L19.7387 14.8464L19.7608 14.8452L19.7828 14.8444L19.7934 14.844L19.8049 14.8432L19.8269 14.8424L19.849 14.8412L19.8702 14.8396L19.8922 14.8384L19.9143 14.8368L19.9363 14.8352L19.9576 14.8336L19.9804 14.832L20.0017 14.8304L20.0237 14.8284L20.0457 14.8264L20.0678 14.8244L20.089 14.8224L20.1119 14.8204L20.1331 14.8184L20.1552 14.816L20.1772 14.8136L20.1993 14.8112L20.2205 14.8088L20.2434 14.8064L20.2646 14.8036L20.2866 14.8012L20.3087 14.7984L20.3307 14.7956L20.352 14.7928L20.374 14.79L20.3961 14.7872L20.4181 14.784L20.4401 14.7812L20.4622 14.778L20.4834 14.7748L20.5055 14.7716L20.5275 14.7684L20.5496 14.7652L20.5716 14.762L20.5937 14.7584L20.6149 14.7552L20.6369 14.7512L20.659 14.748L20.681 14.7444L20.7031 14.7404L20.7251 14.7372L20.7463 14.7332L20.7684 14.7292L20.7905 14.7256L20.8125 14.7216L20.8345 14.7176L20.8558 14.7136L20.8778 14.7096L20.8999 14.7056L20.9219 14.7016L20.944 14.6976L20.966 14.6936L20.9872 14.6888L21.0093 14.6848L21.0313 14.6804L21.0534 14.676L21.0754 14.6716L21.0975 14.6668L21.1187 14.6628L21.1407 14.658L21.1628 14.6532L21.1848 14.6484L21.2061 14.644L21.2289 14.6392L21.2502 14.6344L21.2722 14.6296L21.2942 14.6244L21.3163 14.6196L21.3375 14.6144L21.3604 14.6096L21.3816 14.6044L21.4037 14.5992L21.4257 14.594L21.4478 14.5888L21.469 14.5836L21.4918 14.578L21.5131 14.5728L21.5351 14.5672L21.5572 14.5616L21.5792 14.5556V13.5348L21.5572 13.5464L21.5351 13.5576L21.5131 13.5692L21.4918 13.5804L21.469 13.5916L21.4478 13.6028L21.4257 13.6136L21.4037 13.6244L21.3816 13.6352L21.3604 13.6456L21.3375 13.6564L21.3163 13.6668L21.2942 13.6768L21.2722 13.6868L21.2502 13.6968L21.2289 13.7068L21.2061 13.7168L21.1848 13.7264L21.1628 13.736L21.1407 13.7452L21.1187 13.7544L21.0975 13.7636L21.0754 13.7724L21.0534 13.7816L21.0313 13.7904L21.0093 13.7988L20.9872 13.8072L20.966 13.8156L20.944 13.8236L20.9219 13.8316L20.8999 13.8396L20.8778 13.8476L20.8558 13.8556L20.8345 13.8628L20.8125 13.8704L20.7905 13.8776L20.7684 13.8848L20.7463 13.892L20.7251 13.8988L20.7031 13.9056L20.681 13.9124L20.659 13.9188L20.6369 13.9252L20.6149 13.9312L20.5937 13.9372L20.5716 13.9432L20.5496 13.9492L20.5275 13.9548L20.5055 13.9604L20.4834 13.966L20.4622 13.9712L20.4401 13.9764L20.4181 13.9816L20.3961 13.9864L20.374 13.9912L20.352 13.996L20.3307 14.0004L20.3087 14.0044L20.2866 14.0092L20.2646 14.0132L20.2434 14.0172L20.2205 14.0212L20.1993 14.0252L20.1772 14.0284L20.1552 14.0324L20.1331 14.0352L20.1119 14.0388L20.089 14.042L20.0678 14.0448L20.0457 14.0476L20.0237 14.0504L20.0017 14.0532L19.9804 14.0556L19.9576 14.058L19.9363 14.0604L19.9143 14.0624L19.8922 14.0644L19.8702 14.0664L19.8571 14.0676L19.849 14.068L19.8269 14.0696L19.8049 14.0712L19.7828 14.0724L19.7608 14.0736L19.7387 14.0748L19.7175 14.0756L19.6954 14.0764H19.6734L19.6514 14.0772H19.564L19.5419 14.0764L19.5199 14.0756L19.4979 14.0748L19.4766 14.074L19.4546 14.0724L19.4325 14.0712L19.4105 14.0696L19.3884 14.0676L19.3664 14.066L19.3452 14.0636L19.3231 14.0612L19.3011 14.0584L19.279 14.0556L19.257 14.0524L19.2349 14.0492L19.2137 14.046L19.1916 14.042L19.1696 14.038L19.1476 14.034L19.1263 14.0296L19.1035 14.0244L19.0822 14.0196L19.0602 14.0144L19.0381 14.0088L19.0161 14.0028L18.9949 13.9968L18.972 13.9904C18.9646 13.9883 18.9581 13.9862 18.9508 13.984L18.9287 13.9768C18.914 13.972 18.8993 13.9671 18.8846 13.962L18.8634 13.954L18.8405 13.9456L18.8193 13.9372L18.7973 13.928L18.7752 13.9188L18.7532 13.9088L18.7319 13.8988L18.7099 13.888L18.6878 13.8768C18.6731 13.8693 18.6584 13.8616 18.6437 13.8536L18.6217 13.8412C18.6143 13.8372 18.607 13.8324 18.6005 13.828C18.5776 13.8145 18.5555 13.8005 18.5343 13.786C18.527 13.7814 18.5196 13.7764 18.5123 13.7712L18.4902 13.7552C18.4755 13.7443 18.4608 13.7331 18.447 13.7216L18.4249 13.7036C18.4176 13.6976 18.4102 13.6914 18.4029 13.6852L18.3808 13.666C18.3588 13.6455 18.3367 13.6241 18.3155 13.602C18.3081 13.594 18.3 13.5868 18.2934 13.5788C18.2542 13.5361 18.2175 13.4907 18.184 13.4428C18.1334 13.3715 18.0893 13.2949 18.0526 13.2144C18.0166 13.1377 17.9881 13.058 17.9652 12.976C17.9464 12.9119 17.9317 12.8467 17.9211 12.7808C17.8811 12.5294 17.8811 12.2726 17.9211 12.0212C17.9366 11.9308 17.9587 11.8417 17.9864 11.7548C18.0109 11.6817 18.0403 11.6106 18.0746 11.542C18.1179 11.4561 18.1693 11.3752 18.2281 11.3004C18.2681 11.2488 18.3122 11.2007 18.3596 11.1564C18.3661 11.1496 18.3735 11.1424 18.3808 11.136L18.4029 11.1164C18.4314 11.0919 18.46 11.0685 18.4902 11.0464L18.5123 11.0304L18.5343 11.0156C18.549 11.0057 18.5637 10.9961 18.5784 10.9868L18.6005 10.9736L18.6217 10.9604L18.6437 10.9484C18.6584 10.9401 18.6731 10.9321 18.6878 10.9244L18.7099 10.9136L18.7319 10.9028L18.7532 10.8928L18.7752 10.8828L18.7973 10.8736L18.8193 10.8644L18.8405 10.856L18.8634 10.8476L18.8846 10.8396C18.9067 10.8318 18.9287 10.8245 18.9508 10.8176L18.972 10.8112L18.9949 10.8048C19.0014 10.8024 19.0087 10.8008 19.0161 10.7988L19.0381 10.7928L19.0602 10.7872L19.0822 10.782L19.1035 10.7772L19.1263 10.772L19.1476 10.768L19.1696 10.7636L19.1916 10.7596L19.2137 10.7556L19.2349 10.7524L19.257 10.7488L19.279 10.746L19.3011 10.7432L19.3231 10.7404L19.3452 10.738L19.3664 10.7356L19.3884 10.734L19.4105 10.732L19.4325 10.7304L19.4546 10.7288L19.4766 10.7276L19.4979 10.7268C19.506 10.7268 19.5125 10.726 19.5199 10.7256L19.5419 10.7252L19.564 10.7248L19.586 10.7244H19.6514L19.6734 10.7248L19.6954 10.7252L19.7175 10.726L19.7387 10.7268L19.7608 10.728L19.7828 10.7292L19.8049 10.7304L19.8269 10.732L19.849 10.7336L19.8571 10.734L19.8702 10.7352L19.8922 10.7372L19.9143 10.7392L19.9363 10.7412L19.9576 10.7432L19.9804 10.7456L20.0017 10.7484L20.0237 10.7508L20.0457 10.7536L20.0678 10.7564L20.089 10.7592L20.1119 10.7624L20.1331 10.7656L20.1552 10.7692L20.1772 10.7724L20.1993 10.7764L20.2205 10.78L20.2434 10.784L20.2646 10.788L20.2866 10.792L20.3087 10.796L20.3307 10.8L20.352 10.8048L20.374 10.8096L20.3961 10.8144L20.4181 10.8192L20.4401 10.824L20.4622 10.8292L20.4834 10.8344L20.5055 10.84L20.5275 10.8456L20.5496 10.8512L20.5716 10.8568L20.5937 10.8628L20.6149 10.8688L20.6369 10.8752L20.659 10.8816L20.681 10.888L20.7031 10.8948L20.7251 10.9012L20.7463 10.9084L20.7684 10.9152L20.7905 10.9224L20.8125 10.9296L20.8345 10.9372L20.8558 10.9448L20.8778 10.9528L20.8999 10.9604L20.9219 10.9684L20.944 10.9764L20.966 10.9844L20.9872 10.9928L21.0093 11.0016L21.0313 11.01L21.0534 11.0188L21.0754 11.028L21.0975 11.0368L21.1187 11.046L21.1407 11.0552L21.1628 11.0648L21.1848 11.0744L21.2061 11.084L21.2289 11.094L21.2502 11.104L21.2722 11.114L21.2942 11.124L21.3163 11.1344L21.3375 11.1448L21.3604 11.1556L21.3816 11.1664L21.4037 11.1772L21.4257 11.188L21.4478 11.1992L21.469 11.21L21.4918 11.2216L21.5131 11.2328L21.5351 11.2444L21.5572 11.256L21.5792 11.2676V10.2456L21.5572 10.24L21.5351 10.2344L21.5131 10.2288L21.4918 10.2236L21.469 10.218L21.4478 10.2128L21.4257 10.2076L21.4037 10.2024L21.3816 10.1972L21.3604 10.192L21.3375 10.1868L21.3163 10.182L21.2942 10.1772L21.2722 10.172L21.2502 10.1672L21.2289 10.1624L21.2061 10.1576L21.1848 10.1532L21.1628 10.1484L21.1407 10.1436L21.1187 10.1392L21.0975 10.1348L21.0754 10.13L21.0534 10.126L21.0313 10.1212L21.0093 10.1172L20.9872 10.1128L20.966 10.1084L20.944 10.1044L20.9219 10.1004L20.8999 10.096L20.8778 10.092L20.8558 10.088L20.8345 10.084L20.8125 10.08L20.7905 10.076L20.7684 10.072L20.7463 10.0684L20.7251 10.0644L20.7031 10.0608L20.681 10.0572L20.659 10.0536L20.6369 10.05L20.6149 10.0468L20.5937 10.0432L20.5716 10.04L20.5496 10.0364L20.5275 10.0332L20.5055 10.03L20.4834 10.0268L20.4622 10.0236L20.4401 10.0208L20.4181 10.0176L20.3961 10.0148L20.374 10.0116L20.352 10.0088L20.3307 10.006L20.3087 10.0032L20.2858 10.0004L20.2646 9.99756L20.2425 9.99516L20.2205 9.99276L20.1984 9.98996L20.1772 9.98796L20.1543 9.98556L20.1331 9.98316L20.1111 9.98116L20.089 9.97916L20.067 9.97676L20.0457 9.97476L20.0229 9.97316L20.0017 9.97116L19.9796 9.96956L19.9576 9.96796L19.9355 9.96636L19.9143 9.96476L19.8922 9.96316L19.8702 9.96196L19.8482 9.96076L19.8261 9.95956L19.8041 9.95836L19.7926 9.95756H19.7828L19.7608 9.95636L19.7387 9.95516L19.7175 9.95436L19.6954 9.95356L19.6734 9.95276L19.6514 9.95196L19.6293 9.95116L19.6073 9.95036L19.586 9.94996L19.564 9.94916H19.5419L19.5199 9.94836L19.4979 9.94796L19.4766 9.94756H19.4546L19.4325 9.94676H19.2349L19.2137 9.94716L19.1916 9.94756L19.1696 9.94796L19.1476 9.94836L19.1263 9.94916L19.1035 9.94956L19.0822 9.95036L19.0602 9.95116L19.0381 9.95156L19.0161 9.95236L18.9949 9.95356L18.972 9.95436L18.9508 9.95556L18.9287 9.95636L18.9067 9.95756L18.8846 9.95876L18.8634 9.95996L18.8405 9.96156L18.8193 9.96276L18.7973 9.96436L18.7752 9.96596L18.7532 9.96756L18.7319 9.96916L18.7099 9.97116L18.6878 9.97276L18.6658 9.97476L18.6437 9.97676L18.6217 9.97876L18.6005 9.98116L18.5784 9.98316L18.5564 9.98556L18.5343 9.98796L18.5123 9.99036L18.4902 9.99276L18.469 9.99556L18.447 9.99836L18.4249 10.0012L18.4029 10.004L18.3808 10.0068L18.3588 10.01L18.3375 10.0132L18.3155 10.0164L18.2934 10.0196L18.2714 10.0232L18.2493 10.0268L18.2281 10.03L18.2061 10.034L18.184 10.038L18.162 10.0416L18.1399 10.0456L18.1179 10.0496L18.0967 10.0536L18.0746 10.0584L18.0526 10.0624L18.0305 10.0672L18.0085 10.0716L17.9864 10.0764L17.9652 10.0812L17.9431 10.0864L17.9211 10.0912L17.899 10.0964L17.877 10.102L17.855 10.1072L17.8337 10.1128L17.8117 10.1184L17.7896 10.1244L17.7676 10.1304L17.7455 10.1364L17.7235 10.1428L17.7023 10.1488L17.6802 10.1556L17.6582 10.162L17.6361 10.1688L17.6141 10.1756L17.592 10.1828L17.5708 10.19L17.5487 10.1976L17.5267 10.2048L17.5047 10.2128L17.4826 10.2208L17.4614 10.2288L17.4393 10.2368L17.4173 10.2452L17.3952 10.2536L17.3732 10.2624L17.3512 10.2712L17.3299 10.2804L17.3079 10.29L17.2858 10.2992L17.2638 10.3092L17.2417 10.3192L17.2197 10.3292L17.1984 10.3396L17.1764 10.35L17.1544 10.3608L17.1323 10.372L17.1111 10.3832L17.0882 10.3948L17.067 10.4068L17.0449 10.4188L17.0229 10.4308L17.0009 10.4436L16.9796 10.4564L16.9568 10.4696L16.9355 10.4832L16.9135 10.4972L16.8914 10.5112L16.8694 10.5256L16.8481 10.5404L16.8253 10.5556L16.8041 10.5712L16.782 10.5872C16.7673 10.598 16.7526 10.6089 16.7379 10.62L16.7167 10.6372C16.6938 10.6549 16.6726 10.673 16.6506 10.6916Z" fill="#E10238"/>
</svg>
