<svg width="55" height="42" viewBox="0 0 55 42" fill="none" xmlns="http://www.w3.org/2000/svg">
<path d="M54.4352 5.54248L48.6271 13.0294L50.845 19.4477L54.4352 5.54248Z" fill="#0A1FDF"/>
<path d="M54.4564 5.53394L46.403 10.5684L40.1809 7.76834L54.4564 5.53394Z" fill="#FF8515"/>
<path d="M11.4723 38.0178C14.9139 40.405 19.0117 41.6824 23.2093 41.6768C34.5639 41.6768 43.7678 32.5346 43.7678 21.2551C43.7668 20.0028 43.6501 18.7532 43.419 17.5221C37.7191 25.1385 23.8891 41.3334 11.4723 38.0178Z" fill="#0A1FDF"/>
<path d="M42.5911 14.4402C41.1719 10.461 38.5463 7.01631 35.0756 4.57989C31.6048 2.14347 27.4594 0.835006 23.2093 0.834473C11.8547 0.834473 2.64979 9.97662 2.64979 21.2551C2.6478 22.8072 2.82405 24.3544 3.17513 25.8668C1.62119 26.1027 0 24.531 0 24.531C0.977494 26.3584 2.41999 27.8995 4.18377 29.0008L4.20584 29.053C4.8885 29.46 5.60319 29.8114 6.3429 30.104C7.30645 30.4958 8.31228 30.776 9.34047 30.9388C16.4367 32.1609 27.0569 28.9873 42.5911 14.4402Z" fill="#FF8515"/>
</svg>
