<svg width="38" height="24" viewBox="0 0 38 24" fill="none" xmlns="http://www.w3.org/2000/svg">
<path d="M0.359741 2.4C0.359741 1.07452 1.45645 0 2.80938 0H35.4713C36.8243 0 37.9209 1.07452 37.9209 2.4V21.6C37.9209 22.9255 36.8243 24 35.4713 24H2.80938C1.45645 24 0.359741 22.9255 0.359741 21.6V2.4Z" fill="white"/>
<path fill-rule="evenodd" clip-rule="evenodd" d="M19.14 17.6293C17.8612 18.7311 16.2025 19.3961 14.3899 19.3961C10.3455 19.3961 7.06677 16.0848 7.06677 12.0001C7.06677 7.91533 10.3455 4.604 14.3899 4.604C16.2025 4.604 17.8612 5.26909 19.14 6.37081C20.4187 5.26909 22.0775 4.604 23.8901 4.604C27.9345 4.604 31.2132 7.91533 31.2132 12.0001C31.2132 16.0848 27.9345 19.3961 23.8901 19.3961C22.0775 19.3961 20.4187 18.7311 19.14 17.6293Z" fill="#ED0006"/>
<path fill-rule="evenodd" clip-rule="evenodd" d="M19.14 17.6293C20.7146 16.2727 21.713 14.2542 21.713 12.0001C21.713 9.74594 20.7146 7.72738 19.14 6.37081C20.4188 5.26909 22.0775 4.604 23.8901 4.604C27.9345 4.604 31.2132 7.91533 31.2132 12.0001C31.2132 16.0848 27.9345 19.3961 23.8901 19.3961C22.0775 19.3961 20.4188 18.7311 19.14 17.6293Z" fill="#F9A000"/>
<path fill-rule="evenodd" clip-rule="evenodd" d="M19.1401 6.37061C20.7146 7.72718 21.713 9.74575 21.713 11.9998C21.713 14.2539 20.7146 16.2725 19.1401 17.629C17.5655 16.2725 16.5671 14.2539 16.5671 11.9998C16.5671 9.74575 17.5655 7.72718 19.1401 6.37061Z" fill="#FF5E00"/>
</svg>
