<svg width="82" height="89" viewBox="0 0 82 89" fill="currentColor" xmlns="http://www.w3.org/2000/svg">
<path d="M79.9632 0H69.4762C68.5162 0 67.738 0.778263 67.738 1.73824V16.3399C64.8598 15.1074 61.7604 14.4745 58.6295 14.4799H23.0745C10.3312 14.4796 0.000292855 24.8098 0 37.5533C0 37.6623 0.000732247 37.7716 0.00234295 37.8807C0.176152 50.445 10.5189 60.6191 23.0745 60.6191H23.2015C29.8102 60.5794 36.085 57.7102 40.4382 52.7378C40.6398 52.5098 40.988 52.4884 41.216 52.6899C41.233 52.7049 41.2489 52.7208 41.2639 52.7378C45.6161 57.7106 51.8907 60.5799 58.499 60.6191H58.6259C61.7601 60.621 64.861 59.9784 67.7362 58.7314V64.9214C67.7286 68.783 64.5959 71.9094 60.7345 71.9093H52.3908C51.2126 69.5566 48.8075 68.0705 46.1764 68.0694H35.6373C33.0061 68.0704 30.601 69.5566 29.4229 71.9093H19.7667C18.8067 71.9093 18.0285 72.6875 18.0285 73.6475V84.1206C18.0285 85.0806 18.8067 85.8588 19.7667 85.8588H29.8209C31.1062 87.8194 33.2928 89.0003 35.6371 88.9999H46.1815C48.5239 88.9985 50.7083 87.8177 51.9926 85.8588H62.4902C73.0937 85.8588 81.7069 77.2492 81.7069 66.6664V1.73824C81.7067 0.778263 80.9285 0 79.9685 0C79.9667 0 79.965 0 79.9632 0V0ZM71.2145 3.47663H78.225V25.3512C76.4305 22.4903 74.0391 20.0509 71.2145 18.1999V3.47663ZM58.5251 57.1425C52.9126 57.1085 47.5837 54.6715 43.887 50.4484C42.4199 48.775 39.8743 48.6078 38.2009 50.0749C38.0684 50.1911 37.9435 50.3159 37.8274 50.4484C34.131 54.672 28.8019 57.1091 23.1893 57.1425H23.0815C12.4137 57.1425 3.63184 48.498 3.47897 37.8319C3.32156 27.0106 11.9662 18.1108 22.7875 17.9533C22.8833 17.9519 22.9789 17.9513 23.0746 17.9513H58.6295C69.4518 17.9501 78.226 26.7224 78.2272 37.5449C78.2272 37.6407 78.2264 37.7363 78.2251 37.8321C78.0739 48.5016 69.2938 57.1426 58.6295 57.1426L58.5251 57.1425ZM78.225 49.6923V63.1831H71.2145V56.8558C74.0424 55.0038 76.4345 52.5596 78.225 49.6923ZM63.2236 75.0938C64.4489 74.7949 65.6098 74.276 66.6497 73.5623L72.1601 79.064C69.5959 81.0649 66.4728 82.2192 63.2236 82.3667V75.0938ZM21.5048 82.3945V75.3858H28.6838V82.0469V82.3824L21.5048 82.3945ZM49.6529 82.0469C49.6529 83.967 48.0963 85.5234 46.1762 85.5234H35.6371C33.717 85.5234 32.1605 83.9668 32.1605 82.0469V75.0225C32.1605 73.1024 33.717 71.5458 35.6371 71.5458H46.1815C48.1016 71.5458 49.6581 73.1024 49.6581 75.0225L49.6529 82.0469ZM53.1293 82.0469V75.3858H59.747V82.3824H53.1207C53.1258 82.2711 53.1293 82.1598 53.1293 82.0469ZM74.6492 76.6286L69.1563 71.1426C70.1394 69.8206 70.7948 68.2842 71.0683 66.6596H78.2248C78.2298 70.2975 76.9653 73.8231 74.6492 76.6286Z" />
<path d="M44.3995 76.7972H37.4082C36.4482 76.7972 35.6699 77.5754 35.6699 78.5354C35.6699 79.4954 36.4482 80.2736 37.4082 80.2736H44.3995C45.3595 80.2736 46.1377 79.4954 46.1377 78.5354C46.1377 77.5754 45.3595 76.7972 44.3995 76.7972Z" />
<path d="M58.9708 22.8672H22.7345C14.6271 22.8672 8.05469 29.4396 8.05469 37.547C8.05469 45.6544 14.6271 52.2268 22.7345 52.2268C26.8856 52.2268 31.2955 48.9449 34.5165 46.5479C34.9523 46.2234 35.3636 45.9198 35.7507 45.6369C38.7822 43.3805 42.9334 43.374 45.9718 45.6213C46.4464 45.9585 46.9557 46.3357 47.5033 46.7425C50.7956 49.1865 54.8945 52.2268 58.9759 52.2268C67.0833 52.2268 73.6557 45.6544 73.6557 37.547C73.6557 29.4396 67.0833 22.8672 58.9759 22.8672H58.9708ZM58.9708 48.7501C56.0435 48.7501 52.3045 45.9689 49.5754 43.9507C49.0261 43.5439 48.5081 43.1598 48.0196 42.8103C43.7577 39.6659 37.9413 39.6765 33.6909 42.8364C33.3016 43.1197 32.8827 43.4309 32.4412 43.7594C29.6113 45.8645 25.7332 48.75 22.7346 48.75C16.5473 48.7488 11.5323 43.7321 11.5335 37.5448C11.5347 31.3589 16.549 26.3447 22.7346 26.3436H58.9708C65.1581 26.3448 70.1731 31.3616 70.1719 37.5489C70.1707 43.7347 65.1565 48.749 58.9708 48.7501Z" />
</svg>
