<svg width="94" height="90" viewBox="0 0 94 90" fill="currentColor" xmlns="http://www.w3.org/2000/svg">
<path d="M91.1849 45.7398H86.6034C86.0436 45.7398 85.515 45.9981 85.1708 46.4394L82.4079 49.9821C81.7906 50.7733 81.9318 51.9142 82.7229 52.5315C83.055 52.7905 83.4481 52.9154 83.839 52.9154C84.3797 52.9154 84.914 52.6756 85.2723 52.2165L87.4903 49.3734H91.1849C92.1882 49.3734 93.0013 48.5602 93.0013 47.5569C93.0013 46.5537 92.1882 45.7398 91.1849 45.7398Z" />
<path d="M76.3861 60.6544C75.595 60.0378 74.454 60.1783 73.8367 60.9694L71.2824 64.2446H63.3299L56.9781 42.4816C58.83 41.777 60.149 39.984 60.149 37.888C60.149 35.179 57.9452 32.9745 55.2354 32.9745H54.203L52.8868 28.4639C52.6052 27.5011 51.5962 26.9484 50.6341 27.2293C49.6712 27.5103 49.1185 28.5186 49.3995 29.4814L50.4191 32.9745H49.4505L42.7021 26.534C42.8454 26.4439 42.988 26.3509 43.1271 26.2523C45.0478 24.8928 46.3236 22.8671 46.7195 20.5476C47.1161 18.2288 46.5854 15.8944 45.2259 13.9744C43.8665 12.0537 41.8407 10.7786 39.5212 10.382C34.734 9.56319 30.1737 12.793 29.3556 17.5803C28.8618 20.4681 29.8431 23.2729 31.7496 25.2242C31.2437 25.4619 30.7683 25.7386 30.3263 26.0508C29.4748 24.2713 27.828 22.9132 25.7753 22.5449C24.1434 22.2526 22.4965 22.6187 21.137 23.5773C19.7478 24.5572 18.8261 26.0316 18.5437 27.7288C18.362 28.818 18.4663 29.8922 18.8012 30.8714C18.7125 30.914 18.6267 30.9615 18.5458 31.0183C18.1499 31.295 17.8802 31.7186 17.7972 32.1954L15.245 46.8488C14.7859 49.4883 16.4853 52.0079 19.0332 52.4641L22.0921 53.0126C22.3681 53.0623 22.642 53.0864 22.913 53.0864C23.1167 53.0864 23.3167 53.0687 23.5147 53.0424L22.9485 61.7357L18.5401 70.8285C18.1222 71.692 17.91 72.6151 17.91 73.5708C17.91 74.5025 18.1229 75.4071 18.5061 76.2273H16.3973C16.051 76.2273 15.7119 76.3267 15.4203 76.5126L0.839919 85.8104C-0.00585328 86.3497 -0.254193 87.4729 0.285058 88.3186C0.631314 88.8614 1.21881 89.1587 1.81838 89.1587C2.15257 89.1587 2.49031 89.0665 2.79328 88.8735L16.9266 79.8602H23.8432C23.9617 79.8673 24.0795 79.8708 24.1973 79.8708C24.2952 79.8708 24.3924 79.8652 24.4896 79.8602H43.8572C44.3227 79.8602 44.7704 79.6814 45.1082 79.3607L57.1938 67.8782H61.9562H61.9668H61.9732H72.1693C72.7284 67.8782 73.257 67.6199 73.6012 67.1786L76.7011 63.2044C77.3185 62.4126 77.1773 61.2717 76.3861 60.6544ZM30.9422 53.9726C30.239 53.852 29.4607 53.8002 28.8214 53.4639C27.6911 52.8686 27.1178 51.607 27.3271 50.3646C27.3852 50.0205 27.4448 49.6756 27.5037 49.3315C32.7728 49.0867 36.4489 47.6052 38.9117 46.0243L38.486 48.5163C38.3498 49.3145 38.7585 50.107 39.4879 50.459L45.9539 53.5746L53.4672 63.059C54.3797 64.2113 54.1853 65.8908 53.033 66.8032C51.8814 67.7157 50.2019 67.5206 49.2895 66.369L42.7958 58.1724C42.6255 57.9567 42.4076 57.7828 42.1607 57.6636L36.688 55.0263C36.5348 54.9525 36.3723 54.9007 36.2055 54.8723L30.9422 53.9726ZM56.3146 60.8034L48.5409 50.9897C48.4132 50.8294 48.2606 50.6931 48.0904 50.5853C48.0307 50.5477 47.9676 50.5122 47.9023 50.481L42.2977 47.7797L43.1484 42.8016H53.287L59.5452 64.2446H57.6564C57.5677 63.0299 57.1271 61.8279 56.3146 60.8034ZM48.7233 36.6073H52.8294C52.8329 36.6073 52.8365 36.608 52.84 36.608C52.8421 36.608 52.8443 36.6073 52.8464 36.6073H55.2354C55.9421 36.6073 56.5161 37.1821 56.5161 37.888C56.5161 38.594 55.9421 39.1688 55.2354 39.1688H54.6834C54.6813 39.1688 54.6791 39.1688 54.6777 39.1688H42.2906L38.618 36.0035C37.8574 35.3493 36.7107 35.4345 36.0558 36.1944C35.4009 36.9543 35.4861 38.1009 36.246 38.7558L39.1189 41.2314C37.6814 42.7243 34.4012 45.1835 28.1324 45.6547L28.8001 41.7487L30.0616 34.3709C30.0623 34.3659 30.0623 34.3609 30.0631 34.356L30.437 32.1677C30.7996 30.0483 32.6075 27.8225 36.5873 27.8225C36.6788 27.8225 36.771 27.8239 36.8654 27.8261C36.8803 27.8268 36.8959 27.8268 36.9108 27.8268C38.1568 27.8268 39.2764 28.2567 40.0619 29.0365C40.0853 29.0599 40.1094 29.0826 40.1336 29.1046L47.4688 36.105C47.8072 36.4278 48.2564 36.6073 48.7233 36.6073ZM32.9367 18.1919C33.3674 15.673 35.5606 13.8885 38.0347 13.8885C38.3235 13.8885 38.6159 13.9127 38.9096 13.9631C40.2719 14.1958 41.4618 14.9451 42.2608 16.0732C43.0597 17.2014 43.3719 18.5736 43.1385 19.936C42.7085 22.4548 40.5146 24.24 38.0404 24.2393C37.7516 24.2393 37.4593 24.2152 37.1656 24.1648C34.3529 23.6845 32.4556 21.0045 32.9367 18.1919ZM22.1268 28.3263C22.2489 27.594 22.6406 26.9618 23.2302 26.546C23.6644 26.2402 24.1689 26.0806 24.6854 26.0806C24.8344 26.0806 24.9842 26.0941 25.1339 26.121C26.5714 26.3786 27.5378 27.8041 27.2887 29.2976C27.1667 30.0299 26.7743 30.6621 26.1847 31.0779C25.6256 31.4724 24.9501 31.6228 24.2817 31.5036C22.8442 31.2453 21.8771 29.8199 22.1268 28.3263ZM22.7335 49.4372L19.6747 48.8881C19.0879 48.783 18.7061 48.1473 18.8239 47.4711L21.0625 34.6171L26.1762 35.5345L25.3141 40.5793L23.9404 48.6113C23.7602 49.169 23.2422 49.5281 22.7335 49.4372ZM23.045 75.9719C22.1183 75.5228 21.5429 74.6025 21.5429 73.5701C21.5429 73.1671 21.633 72.7769 21.8097 72.4122L26.372 63.0008C26.4749 62.7901 26.5352 62.5609 26.5501 62.3267L26.9255 56.5702C28.2949 57.355 29.9275 57.4841 31.4587 57.7467C31.7468 57.7956 32.0349 57.8453 32.3229 57.8942L31.9142 63.7849L26.6055 74.7366C26.1776 75.6186 25.3233 76.1564 24.4094 76.2273H23.9972C23.6751 76.2018 23.3529 76.1209 23.045 75.9719ZM43.1314 76.2273H29.9197L35.3364 65.0535C35.374 64.9762 35.4052 64.8974 35.4314 64.8165C35.4754 64.6796 35.5038 64.5348 35.5145 64.3851L35.9097 58.684L40.2074 60.7551L46.4421 68.6246C47.1587 69.5293 48.0762 70.1828 49.0809 70.5744L43.1314 76.2273Z" />
<path d="M70.5404 23.5738H79.834C83.6797 23.5738 86.8088 20.4447 86.8088 16.5983C86.8088 12.7526 83.6797 9.62349 79.834 9.62349C78.9052 9.62349 77.9913 9.80939 77.1448 10.1627C75.5909 8.14197 73.165 6.91092 70.5404 6.91092C65.9461 6.91092 62.209 10.6481 62.209 15.2423C62.209 17.4675 63.0753 19.5599 64.6491 21.1337C66.2229 22.7074 68.3146 23.5738 70.5404 23.5738ZM70.5404 10.5438C72.4122 10.5438 74.1044 11.6535 74.8516 13.372C75.08 13.8978 75.5434 14.2852 76.1018 14.4164C76.6595 14.547 77.247 14.4072 77.6862 14.0383C78.295 13.5267 79.0372 13.2563 79.834 13.2563C81.6766 13.2563 83.1759 14.7556 83.1759 16.5983C83.1759 18.4417 81.6766 19.9409 79.834 19.9409H70.5404C69.2852 19.9409 68.1053 19.452 67.2176 18.5644C66.33 17.6775 65.8418 16.4975 65.8418 15.2423C65.8418 12.6511 67.9499 10.5438 70.5404 10.5438Z" />
<path d="M10.9811 18.993C14.6388 18.993 17.6146 16.0172 17.6146 12.3595C17.6146 8.7018 14.6388 5.72598 10.9811 5.72598C9.20943 5.72598 7.54343 6.41566 6.29109 7.6687C5.03804 8.92175 4.34766 10.5878 4.34766 12.3595C4.34766 16.0172 7.32418 18.993 10.9811 18.993ZM8.85962 10.238C9.42655 9.67103 10.1801 9.35883 10.9811 9.35883C12.6358 9.35883 13.9818 10.7048 13.9818 12.3595C13.9818 14.0141 12.6358 15.3601 10.9811 15.3601C9.32721 15.3601 7.9805 14.0141 7.9805 12.3595C7.9805 11.5577 8.2927 10.8042 8.85962 10.238Z" />
<path d="M0.908144 8.68126L1.7603 9.17297C2.04625 9.33829 2.35915 9.41705 2.66709 9.41705C3.29504 9.41705 3.90524 9.09137 4.24157 8.50813C4.74321 7.63965 4.44591 6.52851 3.57673 6.02687L2.72457 5.53516C1.85609 5.03351 0.74495 5.33081 0.243305 6.2C-0.257631 7.06847 0.0396664 8.17961 0.908144 8.68126Z" />
<path d="M21.0556 16.1186L20.2034 15.6269C19.3349 15.1253 18.2238 15.4226 17.7221 16.2918C17.2205 17.1602 17.5185 18.2714 18.387 18.773L19.2391 19.2647C19.5251 19.4301 19.8373 19.5088 20.1459 19.5088C20.7732 19.5088 21.3841 19.1831 21.7204 18.5999C22.222 17.7314 21.924 16.6203 21.0556 16.1186Z" />
<path d="M1.81848 19.5088C2.12643 19.5088 2.43933 19.4301 2.72528 19.2647L3.57673 18.773C4.44591 18.2714 4.74321 17.1609 4.24157 16.2918C3.73992 15.4226 2.62949 15.1253 1.7603 15.6269L0.908144 16.1186C0.0396664 16.6203 -0.257631 17.7314 0.243305 18.5999C0.580336 19.1831 1.19054 19.5088 1.81848 19.5088Z" />
<path d="M19.2973 9.41702C19.6053 9.41702 19.9175 9.33826 20.2034 9.17365L21.0556 8.68123C21.9247 8.17958 22.222 7.06915 21.7204 6.19996C21.2188 5.33149 20.1076 5.03348 19.2391 5.53512L18.387 6.02684C17.5185 6.52848 17.2205 7.63962 17.7221 8.50881C18.0592 9.09134 18.6694 9.41702 19.2973 9.41702Z" />
<path d="M10.9805 4.66665C11.9838 4.66665 12.7969 3.85351 12.7969 2.85022V1.81642C12.7969 0.813133 11.9838 0 10.9805 0C9.9772 0 9.16406 0.813133 9.16406 1.81642V2.85022C9.16406 3.85351 9.9772 4.66665 10.9805 4.66665Z" />
<path d="M9.16406 22.0376V23.0714C9.16406 24.0747 9.9772 24.8878 10.9805 24.8878C11.9838 24.8878 12.7969 24.0747 12.7969 23.0714V22.0376C12.7969 21.0343 11.9838 20.2212 10.9805 20.2212C9.9772 20.2212 9.16406 21.035 9.16406 22.0376Z" />
<path d="M81.0559 55.7387C80.7629 55.0249 80.0178 54.5665 79.2487 54.6225C78.4937 54.6772 77.8417 55.2079 77.6331 55.9345C77.4238 56.6632 77.7047 57.4678 78.3199 57.9098C78.9266 58.3448 79.7652 58.3569 80.3854 57.9439C81.0985 57.4706 81.3851 56.5284 81.0559 55.7387Z" />
</svg>
