<svg width="50" height="50" viewBox="0 0 50 50" fill="none" xmlns="http://www.w3.org/2000/svg">
<path d="M22.3984 5.10376C23.8359 3.87459 26.1901 3.87459 27.6484 5.10376L30.9401 7.93732C31.5651 8.47898 32.7317 8.91642 33.5651 8.91642H37.1068C39.3151 8.91642 41.1276 10.7288 41.1276 12.9371V16.4789C41.1276 17.2914 41.5651 18.479 42.1067 19.104L44.9401 22.3955C46.1693 23.833 46.1693 26.1872 44.9401 27.6456L42.1067 30.9371C41.5651 31.5621 41.1276 32.7288 41.1276 33.5622V37.104C41.1276 39.3123 39.3151 41.1247 37.1068 41.1247H33.5651C32.7526 41.1247 31.5651 41.5621 30.9401 42.1038L27.6484 44.9371C26.2109 46.1662 23.8568 46.1662 22.3984 44.9371L19.1068 42.1038C18.4818 41.5621 17.3151 41.1247 16.4818 41.1247H12.8776C10.6693 41.1247 8.85677 39.3123 8.85677 37.104V33.5413C8.85677 32.7288 8.41928 31.5621 7.89845 30.9371L5.08594 27.6247C3.8776 26.1872 3.8776 23.8539 5.08594 22.4164L7.89845 19.104C8.41928 18.479 8.85677 17.3123 8.85677 16.4998V12.9371C8.85677 10.7288 10.6693 8.91642 12.8776 8.91642H16.4818C17.2943 8.91642 18.4818 8.47898 19.1068 7.93732L22.3984 5.10376Z" stroke="#384BFF" stroke-width="3" stroke-linecap="round" stroke-linejoin="round"/>
<path d="M20.6023 30.8749L23.623 33.2082C24.0189 33.604 24.8939 33.7916 25.4772 33.7916H29.1647C30.3314 33.7916 31.6022 32.9166 31.8939 31.75L34.2272 24.6249C34.7064 23.2707 33.8314 22.0833 32.3731 22.0833H28.4773C27.8939 22.0833 27.4147 21.6042 27.4981 20.9167L27.9772 17.7917C28.1647 16.9167 27.5814 15.9375 26.7064 15.6459C25.9356 15.3542 24.9564 15.7499 24.5606 16.3333L20.5605 22.2707" stroke="#384BFF" stroke-width="3" stroke-miterlimit="10"/>
<path d="M15.625 30.8753V21.3337C15.625 19.9587 16.2083 19.4795 17.5833 19.4795H18.5625C19.9167 19.4795 20.5208 19.9587 20.5208 21.3337V30.8753C20.5208 32.2294 19.9375 32.7295 18.5625 32.7295H17.5833C16.2083 32.7295 15.625 32.2503 15.625 30.8753Z" stroke="#384BFF" stroke-width="3" stroke-linecap="round" stroke-linejoin="round"/>
</svg>
