<svg width="38" height="24" viewBox="0 0 38 24" fill="none" xmlns="http://www.w3.org/2000/svg">
<path d="M0.0791016 2.4C0.0791016 1.07452 1.17572 0 2.52874 0H35.1906C36.5436 0 37.6403 1.07452 37.6403 2.4V21.6C37.6403 22.9255 36.5436 24 35.1906 24H2.52874C1.17572 24 0.0791016 22.9255 0.0791016 21.6V2.4Z" fill="white"/>
<path d="M23.7035 8.3C23.9011 7.3 23.7035 6.6 23.1098 6C22.517 5.3 21.4302 5 20.0462 5H15.9936C15.6964 5 15.4988 5.2 15.4 5.5L13.918 15.6C13.918 15.8 14.0168 16 14.2144 16H16.8828L17.2781 12.6L19.0573 10.4L23.7035 8.3Z" fill="#003087"/>
<path d="M23.7035 8.2998L23.5059 8.4998C23.0111 11.2998 21.3314 12.2998 18.9585 12.2998H17.8717C17.5753 12.2998 17.3769 12.4998 17.2781 12.7998L16.6853 16.6998L16.4877 17.6998C16.4877 17.8998 16.5865 18.0998 16.7841 18.0998H18.8597C19.1561 18.0998 19.3537 17.8998 19.3537 17.6998V17.5998L19.7498 15.1998V15.0998C19.7498 14.8998 20.0462 14.6998 20.2438 14.6998H20.5402C22.6159 14.6998 24.1975 13.8998 24.5927 11.4998C24.7903 10.4998 24.6915 9.6998 24.1975 9.0998C24.0987 8.5998 23.9011 8.3998 23.7035 8.2998Z" fill="#3086C8"/>
<path d="M23.1099 8.0998C23.011 7.9998 22.9122 7.9998 22.8134 7.9998C22.7146 7.9998 22.6158 7.9998 22.517 7.8998C22.2206 7.7998 21.8246 7.7998 21.4294 7.7998H18.4645C18.3657 7.7998 18.2669 7.7998 18.2669 7.8998C18.0685 7.9998 17.9697 8.0998 17.9697 8.2998L17.2781 12.6998V12.7998C17.2781 12.4998 17.5745 12.2998 17.8709 12.2998H19.1561C21.627 12.2998 23.2087 11.2998 23.7027 8.4998V8.2998C23.6039 8.1998 23.4063 8.0998 23.2087 8.0998H23.1099Z" fill="#012169"/>
</svg>
