<svg width="38" height="24" viewBox="0 0 38 24" fill="none" xmlns="http://www.w3.org/2000/svg">
<path d="M0.0791016 2.4C0.0791016 1.07452 1.17572 0 2.52874 0H35.1906C36.5436 0 37.6403 1.07452 37.6403 2.4V21.6C37.6403 22.9255 36.5436 24 35.1906 24H2.52874C1.17572 24 0.0791016 22.9255 0.0791016 21.6V2.4Z" fill="#EFEFEF"/>
<path d="M23.7035 8.3C23.9011 7.3 23.7035 6.6 23.1098 6C22.517 5.3 21.4302 5 20.0462 5H15.9936C15.6964 5 15.4988 5.2 15.4 5.5L13.918 15.6C13.918 15.8 14.0168 16 14.2144 16H16.8828L17.2781 12.6L19.0573 10.4L23.7035 8.3Z" fill="#003087"/>
<path d="M23.7036 8.2998L23.506 8.4998C23.0112 11.2998 21.3315 12.2998 18.9587 12.2998H17.8718C17.5754 12.2998 17.377 12.4998 17.2782 12.7998L16.6854 16.6998L16.4878 17.6998C16.4878 17.8998 16.5866 18.0998 16.7842 18.0998H18.8599C19.1563 18.0998 19.3539 17.8998 19.3539 17.6998V17.5998L19.7499 15.1998V15.0998C19.7499 14.8998 20.0463 14.6998 20.2439 14.6998H20.5403C22.616 14.6998 24.1976 13.8998 24.5928 11.4998C24.7904 10.4998 24.6916 9.6998 24.1976 9.0998C24.0988 8.5998 23.9012 8.3998 23.7036 8.2998Z" fill="#3086C8"/>
<path d="M23.1101 8.0998C23.0113 7.9998 22.9125 7.9998 22.8137 7.9998C22.7149 7.9998 22.6161 7.9998 22.5173 7.8998C22.2209 7.7998 21.8249 7.7998 21.4296 7.7998H18.4648C18.366 7.7998 18.2672 7.7998 18.2672 7.8998C18.0687 7.9998 17.9699 8.0998 17.9699 8.2998L17.2783 12.6998V12.7998C17.2783 12.4998 17.5747 12.2998 17.8711 12.2998H19.1564C21.6273 12.2998 23.2089 11.2998 23.7029 8.4998V8.2998C23.6041 8.1998 23.4065 8.0998 23.2089 8.0998H23.1101Z" fill="#012169"/>
</svg>
