<svg width="72" height="84" viewBox="0 0 72 84" fill="none" xmlns="http://www.w3.org/2000/svg">
<path d="M1.64637 55.5297C1.49213 55.8048 1.36306 56.0933 1.26075 56.3917C1.11973 56.7894 1.00612 57.1964 0.920707 57.6097C0.602835 59.1026 0.437164 60.6238 0.426233 62.1501C0.397883 63.7643 0.493168 65.3783 0.711251 66.9779C0.918096 68.5123 1.21761 70.0327 1.60814 71.5309C2.00347 73.0607 2.51176 74.5592 3.12883 76.0138C3.7282 77.4711 4.50939 78.8468 5.45381 80.1082C6.36721 81.3302 7.55081 82.3246 8.91213 83.0134C9.53269 83.3111 10.1954 83.5116 10.8769 83.6078C11.5701 83.6976 12.2734 83.6702 12.9575 83.5268C14.4121 83.2557 15.7292 82.4645 16.8237 81.4945C17.3884 80.9845 17.9018 80.4205 18.3565 79.8105C18.8265 79.1838 19.2492 78.523 19.6211 77.8336C19.9924 77.1517 20.3237 76.4487 20.6133 75.7282C20.9205 74.9773 21.2004 74.212 21.4531 73.4403C21.7715 72.491 22.0394 71.5168 22.2771 70.5393C22.9363 70.2743 23.4846 69.8138 23.9903 69.3263C24.565 68.7448 25.0816 68.1086 25.533 67.4269C26.4092 66.1275 27.1364 64.7337 27.7009 63.2717C28.2853 61.7914 28.7404 60.2633 29.0614 58.7046C29.345 57.3307 29.5433 55.9406 29.655 54.5422C29.876 54.4646 30.0923 54.3745 30.3031 54.2724C31.6915 53.6196 32.7381 52.4026 33.5491 51.1292C34.4209 49.7572 35.0269 48.2375 35.5416 46.707C36.0397 45.2075 36.4029 43.6665 36.627 42.1025L36.675 41.7671C36.7583 41.7781 36.8477 41.7909 36.9258 41.7931C37.2591 41.8188 37.5942 41.8108 37.926 41.7691C38.2538 41.7274 38.578 41.6614 38.896 41.5716C39.6071 41.3577 40.2821 41.0385 40.8988 40.6249C41.5343 40.2315 42.1374 39.788 42.7024 39.2986C43.3088 38.7316 43.8408 38.09 44.2858 37.3892C44.695 36.7548 45.06 36.093 45.3781 35.4085C45.7438 34.6646 46.0719 33.9029 46.3611 33.1261C46.9147 31.6505 47.3364 30.1286 47.621 28.5784L47.6476 28.4357C48.2229 28.3817 48.7849 28.2298 49.3091 27.9865C49.621 27.8478 49.9228 27.6874 50.2122 27.5065C50.5078 27.3119 50.7895 27.0972 51.0555 26.8638C51.6406 26.3512 52.1597 25.7679 52.601 25.1274C53.5222 23.8553 54.1548 22.4 54.6769 20.9314C55.1974 19.45 55.5658 17.9195 55.7762 16.3635C55.8809 15.6385 55.9383 14.9015 55.9797 14.169C55.9995 13.8242 56.0032 13.4799 56.012 13.1364C56.025 12.6367 56.037 12.134 56.017 11.6341L55.9931 11.0563C55.989 10.9703 55.9819 10.8834 55.9749 10.7985C55.9646 10.6637 55.9565 10.5327 55.9604 10.4036C56.3387 10.4869 56.7103 10.598 57.0722 10.7361C57.5677 10.9054 58.0726 11.0524 58.5829 11.1732C59.0282 11.2785 59.4804 11.3523 59.9362 11.394C60.4755 11.4401 61.018 11.4334 61.5559 11.3741C63.6224 11.1624 65.4992 10.0505 66.9548 8.61348C67.7151 7.84551 68.3912 6.99862 68.9718 6.08717C69.4377 5.38273 69.8382 4.63716 70.1683 3.85978C70.3148 3.50099 70.4824 3.1467 70.6007 2.77859L70.8502 2.002C70.9657 1.64296 71.0379 1.27195 71.1382 0.908264C71.1584 0.827274 71.1481 0.741709 71.1094 0.667781C71.0707 0.593847 71.0062 0.536679 70.9282 0.507103C70.8501 0.477528 70.7639 0.4776 70.686 0.507302C70.608 0.537 70.5436 0.594272 70.505 0.668269C70.3148 1.16521 70.1002 1.65072 69.894 2.14604C69.787 2.40181 69.678 2.65562 69.5671 2.91147C69.3848 3.32416 69.2026 3.73685 69.0091 4.13879C68.5976 4.97787 68.1157 5.78054 67.5685 6.53817C66.9738 7.35526 66.283 8.09793 65.511 8.75021C64.9143 9.22156 64.2646 9.6217 63.5752 9.94256C63.01 10.1847 62.4194 10.3627 61.8145 10.4732C61.2162 10.5599 60.6099 10.5782 60.0075 10.5276C59.6572 10.4849 59.3073 10.4173 58.9593 10.3456C58.6195 10.2687 58.2839 10.1745 57.9538 10.0635C57.617 9.95748 57.2869 9.83831 56.9557 9.71616C56.8022 9.6578 56.643 9.61358 56.4906 9.5602C56.3625 9.51318 56.2316 9.47454 56.0985 9.44452C55.9745 9.42031 55.8474 9.41526 55.7219 9.42954C55.594 9.43619 55.4692 9.47061 55.356 9.53039C55.2404 9.587 55.1423 9.67371 55.0718 9.7814C55.0063 9.89159 54.9582 10.0112 54.9292 10.1361C54.8783 10.4099 54.8638 10.6892 54.8861 10.9668L54.8921 11.3419C54.936 12.7083 54.9017 14.076 54.7893 15.4385C54.6847 16.4141 54.5215 17.3825 54.3005 18.3384C54.0762 19.2938 53.7902 20.2337 53.4443 21.1521C53.2003 21.7731 52.9288 22.3827 52.6295 22.981C52.3322 23.5699 51.9898 24.1349 51.6053 24.6709C51.3948 24.9543 51.1702 25.2269 50.9324 25.4877C50.6666 25.771 50.381 26.035 50.0777 26.2778C49.8919 26.4173 49.7029 26.55 49.5057 26.6728C49.2878 26.8052 49.0613 26.923 48.8276 27.0253C48.5082 27.1569 48.1768 27.2573 47.8381 27.3253L47.8251 27.3266C47.9749 26.2147 48.063 25.0954 48.0889 23.9737C48.1385 22.4443 47.9993 20.9145 47.6743 19.4192C47.507 18.699 47.2727 17.996 46.9744 17.3194C46.8357 17.0035 46.6843 16.6969 46.5149 16.3947C46.3142 16.0529 46.068 15.74 45.783 15.4645C45.6558 15.3497 45.5184 15.2468 45.3723 15.1571C45.2287 15.0694 45.0739 15.0014 44.9121 14.955C44.7552 14.8996 44.592 14.8642 44.4262 14.8496C44.2665 14.8351 44.1055 14.8414 43.9473 14.8681C43.6379 14.9213 43.3409 15.0312 43.0714 15.1924C42.9312 15.284 42.7994 15.388 42.6776 15.5031C42.5081 15.659 42.3605 15.8373 42.239 16.033C42.1449 16.1759 42.0596 16.3243 41.9834 16.4774C41.9139 16.6298 41.8522 16.7856 41.7985 16.9442C41.6849 17.2826 41.6041 17.631 41.5573 17.9848C41.4386 18.7428 41.4027 19.5114 41.4502 20.2771C41.522 21.7788 41.8621 23.2556 42.4545 24.6374C42.7364 25.3029 43.1054 25.9281 43.5519 26.4965C43.7896 26.7909 44.0505 27.0658 44.3322 27.3184C44.6324 27.5746 44.9611 27.7954 45.3118 27.9764C45.5968 28.1247 45.8977 28.2403 46.2087 28.3211C46.2762 28.3405 46.3467 28.3568 46.4161 28.3702C46.3449 28.7689 46.2644 29.1664 46.1745 29.5629C45.9125 30.7107 45.5718 31.839 45.1547 32.9399C44.8558 33.7027 44.5224 34.4482 44.1598 35.1835C43.8183 35.8936 43.4204 36.5752 42.9697 37.2216C42.5611 37.7733 42.0911 38.2768 41.5687 38.7224C41.2052 39.0053 40.826 39.2616 40.4408 39.514C40.0656 39.7629 39.6745 39.987 39.27 40.1846C38.8195 40.3687 38.3502 40.5028 37.8705 40.5845C37.5797 40.6181 37.2865 40.6259 36.9944 40.6075C36.9322 40.599 36.8709 40.5895 36.8106 40.5789C36.8924 39.5029 36.9139 38.4232 36.8751 37.3449C36.8342 35.8207 36.6331 34.305 36.2751 32.8228C36.0858 32.0763 35.8384 31.3458 35.5352 30.6379C35.2243 29.8674 34.8319 29.1324 34.3647 28.4453C34.1459 28.1259 33.8953 27.8295 33.6169 27.5606C33.4839 27.4407 33.3421 27.3311 33.1927 27.2325C33.0605 27.1427 32.9187 27.0679 32.77 27.0095C32.7074 26.987 32.6448 26.9624 32.5822 26.9379C32.4798 26.9104 32.3752 26.8918 32.2696 26.8824C32.0997 26.8593 31.9276 26.8567 31.757 26.8747C31.5791 26.8923 31.4057 26.9415 31.2451 27.0201C31.055 27.1096 30.8805 27.229 30.7282 27.3737C30.5005 27.5924 30.3123 27.8488 30.172 28.1316C30.0301 28.4414 29.9361 28.771 29.8932 29.1091C29.8436 29.4537 29.8135 29.801 29.8031 30.149C29.7803 30.5644 29.7816 30.9807 29.807 31.3959C29.8617 32.1227 29.9606 32.8456 30.1031 33.5604C30.2586 34.3599 30.4796 35.1452 30.7639 35.9084C31.0234 36.6093 31.3382 37.2884 31.7054 37.9393C32.1015 38.635 32.5782 39.2816 33.1257 39.8657C33.6106 40.3757 34.17 40.8094 34.7848 41.1519C34.9161 41.2228 35.0513 41.2864 35.1897 41.3424C35.069 42.2899 34.9008 43.2309 34.6859 44.1616C34.4254 45.2666 34.0948 46.3538 33.6962 47.4168C33.2296 48.6671 32.6133 49.8564 31.8608 50.9585C31.4595 51.4889 31.0017 51.9741 30.4954 52.4054C30.2642 52.5777 30.02 52.7317 29.7649 52.8663C29.8101 51.6596 29.7871 50.4513 29.6961 49.2472C29.5756 47.7005 29.3241 46.1669 28.9445 44.6627C28.7606 43.9205 28.5339 43.1904 28.2834 42.4689C28.0327 41.7134 27.6942 40.99 27.2749 40.3134C27.0629 39.9868 26.8149 39.685 26.5358 39.4135C26.3942 39.2813 26.2417 39.1615 26.0798 39.0551C25.9386 38.9567 25.7893 38.8705 25.6333 38.7976C25.47 38.7282 25.3024 38.6691 25.1317 38.6205C24.9598 38.5725 24.7828 38.5455 24.6044 38.5401C24.2167 38.5269 23.8323 38.6144 23.4886 38.7941C23.2034 38.9489 22.9381 39.1377 22.6985 39.3565C22.585 39.4629 22.4819 39.58 22.3906 39.7061C22.2783 39.8546 22.1741 40.0091 22.0785 40.1689C21.9044 40.4816 21.7611 40.8105 21.6507 41.151C21.515 41.5269 21.4118 41.9137 21.3422 42.3072C21.2807 42.663 21.2483 43.021 21.2259 43.3829C21.2036 43.7447 21.1979 44.0891 21.2073 44.4421C21.2433 45.2273 21.3444 46.0082 21.5096 46.7766C21.8228 48.2872 22.359 49.7429 23.1004 51.0958C23.4644 51.7453 23.9017 52.3509 24.4037 52.9009C24.6381 53.1586 24.8957 53.3942 25.1731 53.605C25.4914 53.858 25.8336 54.0794 26.1948 54.266C26.5048 54.4167 26.8296 54.535 27.164 54.619C27.4736 54.6969 27.7902 54.744 28.1091 54.7594C28.0913 54.938 28.0795 55.1104 28.0616 55.285C27.8169 57.7378 27.2677 60.1506 26.4267 62.4677C25.811 64.1042 24.9941 65.6577 23.9948 67.0925C23.615 67.605 23.1904 68.0827 22.726 68.52C23.0071 67.0724 23.2019 65.6094 23.3094 64.1387C23.4347 62.5718 23.4133 60.9966 23.2455 59.4336C23.1627 58.692 23.0327 57.9564 22.8564 57.2313C22.6612 56.4736 22.3928 55.7366 22.055 55.0308C21.726 54.3446 21.3218 53.6972 20.8497 53.1003C20.35 52.4475 19.7872 51.8456 19.1694 51.3032C18.6367 50.8272 18.0199 50.4547 17.3506 50.205C17.0394 50.0749 16.7089 49.9969 16.3723 49.9743C15.965 49.9756 15.5618 50.0559 15.1851 50.2109C15.0116 50.2804 14.8427 50.361 14.6795 50.4523C14.5195 50.5476 14.369 50.6581 14.2301 50.7823C13.9677 51.0063 13.732 51.2598 13.5277 51.5377C13.3092 51.8261 13.1153 52.1324 12.9482 52.4533C12.7606 52.8321 12.6092 53.2278 12.4962 53.6351C12.2971 54.3351 12.1731 55.0543 12.1264 55.7806C12.0705 56.574 12.0793 57.3707 12.1525 58.1628C12.2188 58.8947 12.3228 59.6227 12.4641 60.3439C12.6104 61.1214 12.8006 61.89 13.0337 62.646C13.2495 63.347 13.5002 64.0367 13.7849 64.7126C14.0917 65.4586 14.4434 66.1854 14.8379 66.889C15.2133 67.5371 15.6551 68.1443 16.1564 68.7008C16.7088 69.327 17.4175 69.7933 18.1398 70.2003C18.45 70.3773 18.7766 70.5236 19.1151 70.6373C19.4525 70.7465 19.8014 70.8166 20.1549 70.8465C20.4832 70.8766 20.8137 70.8734 21.1414 70.8368L21.2601 70.823C20.9179 72.2501 20.4919 73.6558 19.9842 75.0328L20.0077 74.9712L19.9747 75.057L19.9692 75.0752C19.9712 75.0719 19.9738 75.0691 19.977 75.067C19.7096 75.7709 19.4069 76.4609 19.0699 77.1343C18.7143 77.8337 18.3105 78.5075 17.8613 79.1508C17.2881 79.9476 16.618 80.67 15.8664 81.3013C15.3091 81.7366 14.7039 82.1067 14.0625 82.4044C13.5503 82.615 13.0168 82.7691 12.4713 82.8639C12.0311 82.9239 11.5858 82.9359 11.1431 82.8998C10.6071 82.8309 10.0806 82.7016 9.57366 82.5142C9.0337 82.2854 8.51961 81.9998 8.04006 81.6623C7.2967 81.1047 6.62851 80.4534 6.05206 79.7245C5.12942 78.494 4.36184 77.1545 3.76666 75.7363C3.77831 75.763 3.79001 75.7918 3.80268 75.8195C2.65614 73.0938 1.85593 70.235 1.42076 67.3101C1.02757 64.7882 0.942924 62.2278 1.16868 59.6854L1.16046 59.7596C1.27833 58.6249 1.4569 57.4758 1.83627 56.3949C1.97648 56.026 2.15734 55.6739 2.3755 55.3451L2.33483 55.4021C2.49547 55.1669 2.69329 54.9594 2.92054 54.7876L3.05948 54.6972C3.06797 54.6942 3.07596 54.69 3.08319 54.6846C3.12691 54.6575 3.16071 54.617 3.17958 54.5691C3.19844 54.5213 3.20136 54.4686 3.1879 54.4189C3.17758 54.3844 3.15953 54.3526 3.1351 54.326C3.11068 54.2995 3.08053 54.2788 3.04694 54.2656C3.01336 54.2525 2.97721 54.2471 2.94124 54.25C2.90527 54.2528 2.87043 54.2638 2.83935 54.2822C2.60848 54.4051 2.39877 54.5642 2.21818 54.7534C1.99963 54.9904 1.80787 55.2508 1.64637 55.5297ZM31.7093 28.43L31.7707 28.4025L31.7122 28.4269L31.7093 28.43ZM31.7158 28.4519C31.7562 28.4259 31.7977 28.4009 31.8411 28.3758L31.857 28.3714C31.8889 28.3686 31.921 28.3679 31.953 28.3691C32.0172 28.3805 32.0807 28.3953 32.1432 28.4136C32.1837 28.4326 32.2233 28.4547 32.2619 28.4778C32.4646 28.6368 32.6515 28.8149 32.82 29.0098C33.0781 29.3558 33.3144 29.7174 33.5275 30.0926C33.725 30.4372 33.8997 30.7953 34.0625 31.1576C34.2975 31.7252 34.4999 32.3058 34.6687 32.8964C34.8495 33.5303 34.9897 34.1751 35.0883 34.8268C35.2245 35.8003 35.3055 36.7806 35.3309 37.7632C35.3551 38.5212 35.3456 39.279 35.3024 40.0367C35.1492 39.9493 35.0008 39.8548 34.8533 39.7532C34.6354 39.5883 34.4267 39.4116 34.2281 39.2238C34.0273 39.0298 33.8386 38.8238 33.6629 38.6069C33.4164 38.29 33.1876 37.9597 32.9776 37.6176C32.7299 37.2003 32.5089 36.7677 32.3161 36.3225C31.8541 35.2253 31.5255 34.0767 31.3372 32.9013C31.2649 32.3887 31.2055 31.8747 31.1731 31.3571C31.1476 30.8158 31.1647 30.2733 31.2242 29.7346C31.2573 29.4464 31.3172 29.1618 31.403 28.8847C31.4411 28.8013 31.4839 28.72 31.5312 28.6414C31.5901 28.5725 31.6526 28.5069 31.7186 28.4448L31.7158 28.4519ZM31.7707 28.4045L31.7925 28.396L31.7678 28.4076L31.7707 28.4045ZM31.9167 28.358L31.9815 28.3474L31.9167 28.358ZM31.9801 28.3735C32.0052 28.3739 32.0302 28.3763 32.0553 28.3787L32.0392 28.373L32.0553 28.3787L32.1125 28.3863L32.0624 28.3815L31.9801 28.3735ZM43.529 16.3673C43.6103 16.3083 43.6949 16.2538 43.7822 16.2041C43.8853 16.1673 43.9905 16.137 44.0973 16.1135C44.1402 16.1094 44.1823 16.1084 44.2253 16.1084C44.3119 16.1239 44.3973 16.1452 44.481 16.1723C44.58 16.2204 44.6759 16.2745 44.7681 16.3345C44.8991 16.4525 45.0218 16.5793 45.1355 16.714C45.4406 17.1399 45.6982 17.5978 45.9038 18.0796C46.0804 18.5084 46.2349 18.9459 46.3666 19.3905C46.4978 19.8494 46.6009 20.3158 46.6754 20.7872C46.7978 21.6661 46.8576 22.5526 46.8541 23.4399C46.8545 24.3976 46.8067 25.3547 46.7108 26.3075C46.6734 26.638 46.6316 26.9663 46.5853 27.2923C46.4545 27.2634 46.3208 27.2356 46.1956 27.1886C45.8865 27.0579 45.5907 26.8978 45.3124 26.7104C44.9683 26.4391 44.656 26.1296 44.3816 25.788C44.0131 25.2862 43.7017 24.7449 43.4532 24.1741C43.0981 23.2925 42.8434 22.3737 42.6939 21.4352C42.5626 20.5481 42.5337 19.6489 42.6075 18.7552C42.666 18.236 42.7768 17.724 42.9381 17.2271C42.9646 17.1624 42.9931 17.0977 43.0236 17.0349C43.0802 16.9173 43.1464 16.8046 43.2217 16.6979C43.3192 16.5832 43.4232 16.4742 43.5331 16.3712L43.529 16.3673ZM43.9806 16.1273L44.0214 16.1213L43.9806 16.1273ZM42.9287 17.2514L42.8892 17.3564L42.9287 17.2514ZM31.2329 29.5983L31.2266 29.6665L31.2329 29.5983ZM23.9432 40.5155C24.0521 40.4402 24.165 40.371 24.2815 40.3082C24.3464 40.2849 24.4124 40.265 24.4792 40.2484L24.5102 40.2467C24.6197 40.2699 24.728 40.2987 24.8345 40.333C24.8801 40.3529 24.9246 40.3738 24.9692 40.3968C25.0138 40.4197 25.0656 40.4535 25.1123 40.4824C25.2962 40.6307 25.4675 40.794 25.6244 40.9705C25.7914 41.1938 25.9456 41.4263 26.0865 41.667C26.2331 41.9231 26.3661 42.1868 26.4847 42.457C26.8165 43.2632 27.0997 44.0885 27.3327 44.9285C27.5921 45.8375 27.7964 46.7614 27.9445 47.695C28.2018 49.5387 28.2897 51.4021 28.2072 53.2619C28.1592 53.2611 28.1111 53.2602 28.063 53.2574C27.7505 53.2144 27.4428 53.1417 27.1441 53.0403C26.8464 52.91 26.5623 52.7505 26.296 52.5642C26.138 52.4409 25.9838 52.3155 25.8335 52.18C25.6284 51.9907 25.4375 51.7866 25.2624 51.5693C25.0305 51.2709 24.8152 50.9601 24.6176 50.638C24.3734 50.2227 24.1543 49.7932 23.9612 49.3518C23.4972 48.2505 23.162 47.0993 22.9622 45.9211C22.9034 45.4742 22.86 45.0289 22.832 44.5852C22.8118 44.1125 22.8262 43.6388 22.8751 43.1681C22.9095 42.8921 22.955 42.6208 23.0125 42.3492C23.064 42.1303 23.129 41.9149 23.2072 41.704C23.3319 41.3926 23.4859 41.0937 23.6671 40.8113C23.7534 40.7075 23.8467 40.6096 23.9463 40.5184L23.9432 40.5155ZM24.6054 40.2514L24.6536 40.2562L24.6054 40.2514ZM24.6749 40.2687C24.7092 40.2799 24.7415 40.2932 24.7759 40.3064L24.6749 40.2687ZM25.1682 40.5181C25.1949 40.5435 25.2293 40.5607 25.2589 40.585C25.2313 40.5586 25.1978 40.5404 25.1682 40.5181ZM22.89 42.9986L22.8804 43.0989L22.89 42.9986ZM15.3402 52.0456C15.4704 51.9547 15.6069 51.8731 15.7487 51.8016C15.9015 51.7448 16.0583 51.6996 16.2178 51.6663C16.2623 51.6621 16.3071 51.6603 16.3518 51.6611C16.5721 51.7019 16.7885 51.7617 16.9986 51.8397C17.3543 51.9991 17.694 52.192 18.0132 52.4158C18.3261 52.6535 18.6224 52.9086 18.9101 53.1749C19.2632 53.5106 19.5941 53.8691 19.9005 54.2479C20.1596 54.5769 20.4004 54.9199 20.6217 55.2754C20.8415 55.6445 21.0375 56.0272 21.2087 56.4212C21.4163 56.9219 21.5924 57.4351 21.7359 57.9577C21.8709 58.4696 21.9795 58.9881 22.0614 59.5111C22.3415 61.6097 22.3673 63.7343 22.1383 65.8391C22.0156 66.9809 21.8386 68.1153 21.6075 69.2424C21.4506 69.2946 21.2909 69.3382 21.1293 69.373C20.833 69.4071 20.5342 69.4123 20.237 69.3884C19.9911 69.3516 19.7487 69.2944 19.5123 69.2177C19.0091 68.9968 18.5295 68.7257 18.0808 68.4084C17.9096 68.2784 17.7452 68.1452 17.5846 68C17.3867 67.8133 17.2017 67.6135 17.0309 67.4018C16.7126 66.9811 16.4232 66.5393 16.1645 66.0796C15.8855 65.5806 15.6317 65.068 15.4041 64.5436C14.7095 62.911 14.2132 61.201 13.9258 59.4502C13.7303 58.1913 13.6819 56.9139 13.7814 55.6438C13.8612 54.9668 14.015 54.3007 14.2401 53.6572C14.3922 53.2952 14.5804 52.9494 14.8017 52.625C14.9647 52.4171 15.1452 52.2236 15.3413 52.0466L15.3402 52.0456ZM55.7482 10.4437C55.7609 10.4304 55.7828 10.4278 55.8007 10.4194L55.7482 10.4437ZM55.9588 10.3806L55.9848 10.3779L55.9589 10.3826L55.9588 10.3806ZM26.4136 42.2876L26.4645 42.4065L26.4136 42.2876ZM59.9091 10.5159L59.9432 10.5191L59.9091 10.5159ZM46.7077 26.3436L46.6981 26.444L46.7077 26.3436ZM53.4732 21.0643L53.4459 21.1341L53.4732 21.0643ZM51.5807 24.6905L51.5314 24.7607L51.5807 24.6905ZM45.1401 32.9553L45.1118 33.03L45.1401 32.9553ZM15.3453 64.431C15.3602 64.4666 15.376 64.5013 15.3908 64.5349C15.376 64.5013 15.3602 64.4666 15.3453 64.431ZM15.4036 64.5647C15.411 64.5815 15.4194 64.5993 15.4258 64.6172C15.4194 64.5993 15.411 64.5815 15.4036 64.5647ZM41.5851 38.6989L41.6666 38.6339L41.5851 38.6989ZM22.1475 65.7228L22.1427 65.7729L22.1475 65.7228ZM9.49 82.4892L9.53039 82.5042L9.49 82.4892ZM11.1893 82.9067L11.2174 82.9101L11.1893 82.9067ZM12.4074 82.8735L12.4433 82.8666L12.4074 82.8735ZM17.8506 79.1621L17.8223 79.1918L17.8464 79.1562L17.8506 79.1621ZM19.9717 75.0541L19.9811 75.0298L19.9698 75.0601L19.9717 75.0541ZM32.0624 28.3815L32.0573 28.3766L32.0624 28.3815Z" fill="#2C2C2C"/>
</svg>
