<svg width="167" height="52" viewBox="0 0 167 52" fill="none" xmlns="http://www.w3.org/2000/svg">
<path d="M79.8014 41.0396V49.1582H78.7419V41.0396H79.8014ZM82.4109 41.0396V41.9206H76.1379V41.0396H82.4109Z" fill="#B9B9B9"/>
<path d="M85.5515 44.0729V49.1582H84.52V43.125H85.5237L85.5515 44.0729ZM87.4362 43.0916L87.4307 44.0506C87.3452 44.032 87.2634 44.0209 87.1853 44.0172C87.111 44.0097 87.0255 44.006 86.9288 44.006C86.6909 44.006 86.4809 44.0432 86.2987 44.1175C86.1166 44.1919 85.9623 44.296 85.8359 44.4298C85.7095 44.5636 85.6092 44.7235 85.5348 44.9093C85.4642 45.0915 85.4177 45.2922 85.3954 45.5115L85.1055 45.6788C85.1055 45.3145 85.1408 44.9725 85.2114 44.6528C85.2858 44.3331 85.3991 44.0506 85.5515 43.8053C85.704 43.5562 85.8973 43.3629 86.1315 43.2254C86.3694 43.0841 86.6519 43.0135 86.979 43.0135C87.0534 43.0135 87.1389 43.0228 87.2355 43.0414C87.3322 43.0562 87.3991 43.073 87.4362 43.0916Z" fill="#B9B9B9"/>
<path d="M93.2087 48.1267V45.0209C93.2087 44.7829 93.1604 44.5766 93.0638 44.4019C92.9708 44.2235 92.8296 44.0859 92.64 43.9893C92.4504 43.8926 92.2162 43.8443 91.9374 43.8443C91.6772 43.8443 91.4486 43.8889 91.2516 43.9781C91.0583 44.0674 90.9058 44.1845 90.7943 44.3294C90.6865 44.4744 90.6326 44.6305 90.6326 44.7978H89.6011C89.6011 44.5822 89.6568 44.3685 89.7683 44.1566C89.8799 43.9447 90.0397 43.7532 90.2479 43.5822C90.4598 43.4075 90.7125 43.27 91.0062 43.1696C91.3036 43.0655 91.6344 43.0135 91.9987 43.0135C92.4374 43.0135 92.824 43.0878 93.1586 43.2365C93.4968 43.3852 93.7608 43.6101 93.9503 43.9112C94.1436 44.2086 94.2403 44.5822 94.2403 45.032V47.8423C94.2403 48.043 94.257 48.2568 94.2905 48.4835C94.3277 48.7103 94.3816 48.9055 94.4522 49.069V49.1582H93.376C93.324 49.0393 93.2831 48.8813 93.2533 48.6843C93.2236 48.4835 93.2087 48.2977 93.2087 48.1267ZM93.3872 45.5004L93.3983 46.2253H92.3556C92.0619 46.2253 91.7999 46.2494 91.5694 46.2978C91.3389 46.3424 91.1456 46.4111 90.9895 46.5041C90.8334 46.597 90.7144 46.7141 90.6326 46.8554C90.5508 46.9929 90.51 47.1546 90.51 47.3405C90.51 47.5301 90.5527 47.7029 90.6382 47.859C90.7237 48.0152 90.8519 48.1397 91.0229 48.2326C91.1977 48.3218 91.4114 48.3665 91.6642 48.3665C91.9802 48.3665 92.259 48.2995 92.5006 48.1657C92.7422 48.0319 92.9337 47.8683 93.0749 47.675C93.2199 47.4817 93.298 47.294 93.3091 47.1119L93.7496 47.6081C93.7236 47.7642 93.653 47.9371 93.5377 48.1267C93.4225 48.3163 93.2682 48.4984 93.0749 48.6731C92.8853 48.8441 92.6586 48.9872 92.3946 49.1025C92.1344 49.214 91.8408 49.2698 91.5136 49.2698C91.1047 49.2698 90.746 49.1898 90.4375 49.03C90.1326 48.8702 89.8947 48.6564 89.7237 48.3888C89.5565 48.1174 89.4728 47.8144 89.4728 47.4799C89.4728 47.1565 89.536 46.8721 89.6624 46.6267C89.7888 46.3777 89.9709 46.1714 90.2088 46.0078C90.4468 45.8405 90.733 45.7141 91.0676 45.6286C91.4021 45.5431 91.7757 45.5004 92.1883 45.5004H93.3872Z" fill="#B9B9B9"/>
<path d="M99.0928 48.2271L100.743 43.125H101.797L99.6281 49.1582H98.9366L99.0928 48.2271ZM97.7155 43.125L99.4162 48.2549L99.5333 49.1582H98.8418L96.656 43.125H97.7155Z" fill="#B9B9B9"/>
<path d="M106.7 49.2698C106.28 49.2698 105.899 49.1991 105.557 49.0579C105.218 48.9129 104.927 48.7103 104.681 48.4501C104.44 48.1899 104.254 47.8813 104.124 47.5245C103.994 47.1676 103.928 46.7773 103.928 46.3535V46.1193C103.928 45.6286 104.001 45.1918 104.146 44.809C104.291 44.4224 104.488 44.0952 104.737 43.8276C104.986 43.5599 105.269 43.3573 105.585 43.2198C105.901 43.0823 106.228 43.0135 106.566 43.0135C106.997 43.0135 107.369 43.0878 107.681 43.2365C107.997 43.3852 108.255 43.5934 108.456 43.861C108.657 44.125 108.806 44.4372 108.902 44.7978C108.999 45.1547 109.047 45.545 109.047 45.9688V46.4316H104.542V45.5896H108.016V45.5115C108.001 45.2439 107.945 44.9837 107.848 44.7309C107.755 44.4781 107.607 44.2699 107.402 44.1064C107.198 43.9428 106.919 43.861 106.566 43.861C106.332 43.861 106.116 43.9112 105.919 44.0116C105.722 44.1082 105.553 44.2532 105.412 44.4465C105.27 44.6398 105.161 44.8759 105.083 45.1547C105.005 45.4335 104.966 45.755 104.966 46.1193V46.3535C104.966 46.6398 105.005 46.9093 105.083 47.162C105.165 47.4111 105.282 47.6304 105.434 47.82C105.59 48.0096 105.778 48.1583 105.997 48.2661C106.22 48.3739 106.473 48.4278 106.756 48.4278C107.12 48.4278 107.428 48.3534 107.681 48.2047C107.934 48.0561 108.155 47.8572 108.345 47.6081L108.969 48.1044C108.839 48.3014 108.674 48.4891 108.473 48.6676C108.272 48.846 108.025 48.991 107.731 49.1025C107.441 49.214 107.098 49.2698 106.7 49.2698Z" fill="#B9B9B9"/>
<path d="M112.857 40.5935V49.1582H111.82V40.5935H112.857Z" fill="#B9B9B9"/>
<path d="M123.476 41.7589L120.789 49.1582H119.69L122.785 41.0396H123.493L123.476 41.7589ZM125.729 49.1582L123.036 41.7589L123.019 41.0396H123.727L126.833 49.1582H125.729ZM125.59 46.1528V47.0338H121.029V46.1528H125.59Z" fill="#B9B9B9"/>
<path d="M133.158 43.125H134.094V49.03C134.094 49.5616 133.987 50.0151 133.771 50.3905C133.555 50.766 133.254 51.0504 132.868 51.2437C132.485 51.4407 132.042 51.5392 131.541 51.5392C131.332 51.5392 131.087 51.5057 130.805 51.4388C130.526 51.3756 130.251 51.266 129.979 51.1098C129.712 50.9574 129.487 50.7511 129.305 50.4909L129.846 49.8775C130.098 50.1824 130.362 50.3943 130.637 50.5132C130.916 50.6322 131.191 50.6916 131.463 50.6916C131.79 50.6916 132.072 50.6303 132.31 50.5076C132.548 50.385 132.732 50.2028 132.862 49.9612C132.996 49.7233 133.063 49.4296 133.063 49.0802V44.4521L133.158 43.125ZM129.004 46.2085V46.0914C129.004 45.6305 129.057 45.2123 129.165 44.8368C129.277 44.4577 129.435 44.1324 129.639 43.861C129.847 43.5897 130.098 43.3815 130.392 43.2365C130.686 43.0878 131.016 43.0135 131.385 43.0135C131.764 43.0135 132.095 43.0804 132.377 43.2142C132.663 43.3443 132.905 43.5358 133.102 43.7886C133.303 44.0376 133.461 44.3387 133.576 44.6919C133.691 45.045 133.771 45.4446 133.816 45.8907V46.4037C133.775 46.8461 133.695 47.2438 133.576 47.597C133.461 47.9501 133.303 48.2512 133.102 48.5003C132.905 48.7493 132.663 48.9408 132.377 49.0746C132.091 49.2047 131.756 49.2698 131.373 49.2698C131.013 49.2698 130.686 49.1936 130.392 49.0411C130.102 48.8887 129.853 48.675 129.645 48.3999C129.437 48.1248 129.277 47.8014 129.165 47.4297C129.057 47.0542 129.004 46.6472 129.004 46.2085ZM130.035 46.0914V46.2085C130.035 46.5096 130.065 46.7922 130.124 47.0561C130.188 47.32 130.282 47.5524 130.409 47.7531C130.539 47.9538 130.704 48.1118 130.905 48.2271C131.106 48.3386 131.345 48.3943 131.624 48.3943C131.966 48.3943 132.249 48.3218 132.472 48.1769C132.695 48.0319 132.871 47.8404 133.002 47.6025C133.135 47.3646 133.239 47.1063 133.314 46.8275V45.4837C133.273 45.2792 133.21 45.0822 133.124 44.8926C133.042 44.6993 132.935 44.5283 132.801 44.3796C132.671 44.2272 132.509 44.1064 132.316 44.0172C132.122 43.928 131.896 43.8833 131.635 43.8833C131.353 43.8833 131.109 43.9428 130.905 44.0618C130.704 44.177 130.539 44.3369 130.409 44.5413C130.282 44.7421 130.188 44.9762 130.124 45.2439C130.065 45.5078 130.035 45.7903 130.035 46.0914Z" fill="#B9B9B9"/>
<path d="M139.649 49.2698C139.229 49.2698 138.848 49.1991 138.506 49.0579C138.168 48.9129 137.876 48.7103 137.631 48.4501C137.389 48.1899 137.203 47.8813 137.073 47.5245C136.943 47.1676 136.878 46.7773 136.878 46.3535V46.1193C136.878 45.6286 136.951 45.1918 137.096 44.809C137.241 44.4224 137.438 44.0952 137.687 43.8276C137.936 43.5599 138.218 43.3573 138.534 43.2198C138.85 43.0823 139.177 43.0135 139.516 43.0135C139.947 43.0135 140.319 43.0878 140.631 43.2365C140.947 43.3852 141.205 43.5934 141.406 43.861C141.607 44.125 141.755 44.4372 141.852 44.7978C141.949 45.1547 141.997 45.545 141.997 45.9688V46.4316H137.492V45.5896H140.965V45.5115C140.951 45.2439 140.895 44.9837 140.798 44.7309C140.705 44.4781 140.557 44.2699 140.352 44.1064C140.148 43.9428 139.869 43.861 139.516 43.861C139.281 43.861 139.066 43.9112 138.869 44.0116C138.672 44.1082 138.503 44.2532 138.361 44.4465C138.22 44.6398 138.11 44.8759 138.032 45.1547C137.954 45.4335 137.915 45.755 137.915 46.1193V46.3535C137.915 46.6398 137.954 46.9093 138.032 47.162C138.114 47.4111 138.231 47.6304 138.384 47.82C138.54 48.0096 138.728 48.1583 138.947 48.2661C139.17 48.3739 139.423 48.4278 139.705 48.4278C140.07 48.4278 140.378 48.3534 140.631 48.2047C140.884 48.0561 141.105 47.8572 141.294 47.6081L141.919 48.1044C141.789 48.3014 141.623 48.4891 141.423 48.6676C141.222 48.846 140.975 48.991 140.681 49.1025C140.391 49.214 140.047 49.2698 139.649 49.2698Z" fill="#B9B9B9"/>
<path d="M145.718 44.4131V49.1582H144.686V43.125H145.662L145.718 44.4131ZM145.472 45.913L145.043 45.8963C145.047 45.4837 145.108 45.1026 145.227 44.7532C145.346 44.4001 145.513 44.0934 145.729 43.8332C145.944 43.5729 146.201 43.3722 146.498 43.231C146.799 43.086 147.132 43.0135 147.496 43.0135C147.794 43.0135 148.061 43.0544 148.299 43.1362C148.537 43.2142 148.74 43.3406 148.907 43.5153C149.078 43.69 149.208 43.9168 149.297 44.1956C149.387 44.4707 149.431 44.8071 149.431 45.2049V49.1582H148.394V45.1937C148.394 44.8777 148.348 44.625 148.255 44.4354C148.162 44.2421 148.026 44.1027 147.848 44.0172C147.669 43.928 147.45 43.8833 147.19 43.8833C146.933 43.8833 146.699 43.9372 146.487 44.0451C146.279 44.1529 146.099 44.3015 145.946 44.4911C145.797 44.6807 145.68 44.8982 145.595 45.1435C145.513 45.3851 145.472 45.6416 145.472 45.913Z" fill="#B9B9B9"/>
<path d="M154.897 48.4222C155.142 48.4222 155.369 48.372 155.577 48.2717C155.785 48.1713 155.956 48.0338 156.09 47.859C156.224 47.6806 156.3 47.478 156.319 47.2513H157.3C157.282 47.6081 157.161 47.9408 156.938 48.2494C156.718 48.5542 156.43 48.8014 156.073 48.991C155.717 49.1768 155.324 49.2698 154.897 49.2698C154.443 49.2698 154.048 49.1898 153.709 49.03C153.375 48.8702 153.096 48.6508 152.873 48.372C152.654 48.0932 152.488 47.7735 152.377 47.413C152.269 47.0487 152.215 46.6639 152.215 46.2587V46.0245C152.215 45.6193 152.269 45.2365 152.377 44.8759C152.488 44.5116 152.654 44.19 152.873 43.9112C153.096 43.6324 153.375 43.4131 153.709 43.2533C154.048 43.0934 154.443 43.0135 154.897 43.0135C155.369 43.0135 155.782 43.1101 156.135 43.3034C156.488 43.493 156.765 43.7532 156.966 44.0841C157.17 44.4112 157.282 44.7829 157.3 45.1993H156.319C156.3 44.9502 156.23 44.7253 156.107 44.5246C155.988 44.3239 155.824 44.164 155.616 44.0451C155.412 43.9224 155.172 43.861 154.897 43.861C154.581 43.861 154.315 43.9242 154.1 44.0506C153.888 44.1733 153.719 44.3406 153.592 44.5525C153.469 44.7606 153.38 44.993 153.325 45.2495C153.272 45.5022 153.246 45.7606 153.246 46.0245V46.2587C153.246 46.5227 153.272 46.7829 153.325 47.0394C153.377 47.2959 153.464 47.5282 153.587 47.7364C153.713 47.9445 153.882 48.1118 154.094 48.2382C154.31 48.3609 154.577 48.4222 154.897 48.4222Z" fill="#B9B9B9"/>
<path d="M161.64 48.5337L163.318 43.125H164.422L162.002 50.0894C161.946 50.2381 161.872 50.398 161.779 50.569C161.69 50.7437 161.575 50.9091 161.433 51.0652C161.292 51.2214 161.121 51.3478 160.92 51.4444C160.723 51.5448 160.487 51.595 160.212 51.595C160.13 51.595 160.026 51.5838 159.9 51.5615C159.774 51.5392 159.684 51.5206 159.632 51.5057L159.627 50.6693C159.656 50.6731 159.703 50.6768 159.766 50.6805C159.833 50.6879 159.88 50.6916 159.906 50.6916C160.14 50.6916 160.339 50.66 160.502 50.5969C160.666 50.5374 160.803 50.4351 160.915 50.2902C161.03 50.1489 161.129 49.9538 161.21 49.7047L161.64 48.5337ZM160.407 43.125L161.974 47.8089L162.242 48.8962L161.5 49.2753L159.281 43.125H160.407Z" fill="#B9B9B9"/>
<path d="M85.0038 21.2018C85.3056 21.2018 85.8086 21.1465 86.5128 21.0358V24.6575C86.1507 24.7581 85.7332 24.8335 85.2603 24.8838C84.7875 24.9442 84.3197 24.9744 83.857 24.9744C82.0159 24.9744 80.6176 24.4915 79.6619 23.5257C78.7162 22.5599 78.2434 21.0258 78.2434 18.9232V11.6497H75.8591V8.17892H78.2434L79.0432 2.35408H82.6497V8.17892H86.4223V11.6497H82.6497V18.395C82.6497 19.1093 82.7252 19.6676 82.8761 20.07C83.027 20.4724 83.2735 20.7642 83.6155 20.9453C83.9576 21.1163 84.4203 21.2018 85.0038 21.2018Z" fill="white"/>
<path d="M88.3609 8.17892H91.9826L92.3297 10.4726H92.5258C93.2502 8.79259 94.5479 7.95256 96.4191 7.95256C96.8215 7.95256 97.1887 7.98777 97.5207 8.0582V12.1627C97.1183 12.0823 96.6555 12.042 96.1324 12.042C95.4382 12.042 94.7843 12.1879 94.1707 12.4796C93.557 12.7714 93.0892 13.1637 92.7673 13.6567V24.6877H88.3609V8.17892Z" fill="white"/>
<path d="M99.3544 24.6877V8.17892H103.776V24.6877H99.3544ZM101.558 5.76448C100.632 5.76448 99.9379 5.54818 99.4751 5.1156C99.0224 4.68301 98.7961 4.06934 98.7961 3.27459C98.7961 2.47983 99.0224 1.86616 99.4751 1.43357C99.9379 0.990926 100.632 0.769603 101.558 0.769603C102.483 0.769603 103.172 0.990926 103.625 1.43357C104.088 1.86616 104.319 2.47983 104.319 3.27459C104.319 4.06934 104.088 4.68301 103.625 5.1156C103.172 5.54818 102.483 5.76448 101.558 5.76448Z" fill="white"/>
<path d="M106.723 8.17892H110.45L110.752 9.97466H110.963C111.295 9.34087 111.763 8.84289 112.366 8.48072C112.97 8.1085 113.679 7.92238 114.494 7.92238C115.561 7.92238 116.526 8.2091 117.392 8.78253C118.257 9.3459 118.946 10.2463 119.459 11.4837C119.982 12.711 120.244 14.2653 120.244 16.1466C120.244 19.0841 119.57 21.2923 118.221 22.7712C116.873 24.24 114.791 24.9744 111.974 24.9744C111.682 24.9744 111.401 24.9593 111.129 24.9291V31.3274H106.723V8.17892ZM112.321 21.5791C113.096 21.5791 113.73 21.4231 114.223 21.1113C114.715 20.7994 115.088 20.2763 115.339 19.5419C115.601 18.8075 115.732 17.8115 115.732 16.554C115.732 15.2562 115.621 14.2502 115.4 13.536C115.188 12.8116 114.887 12.3136 114.494 12.042C114.112 11.7704 113.634 11.6346 113.061 11.6346C112.678 11.6346 112.311 11.7151 111.959 11.876C111.617 12.037 111.34 12.2633 111.129 12.5551V21.4734C111.531 21.5439 111.929 21.5791 112.321 21.5791Z" fill="white"/>
<path d="M129.325 1.96173C128.279 1.96173 127.504 2.20821 127.001 2.70116C126.498 3.18404 126.247 3.96371 126.247 5.04014V8.31473H130.487V10.2161H126.247V24.6877H123.968V10.2161H121.192V8.31473H123.968V5.1156C123.968 3.44561 124.401 2.17803 125.266 1.31285C126.131 0.437617 127.414 0 129.114 0C129.828 0 130.467 0.0553306 131.031 0.165992V2.12772C130.417 2.01706 129.848 1.96173 129.325 1.96173Z" fill="#FF8515"/>
<path d="M142.524 17.2934H133.576C133.606 18.732 133.792 19.8688 134.134 20.7038C134.476 21.5388 134.984 22.1374 135.658 22.4996C136.332 22.8517 137.207 23.0277 138.284 23.0277C139.25 23.0277 140.411 22.8265 141.77 22.4241V24.3858C141.096 24.5971 140.462 24.748 139.868 24.8386C139.275 24.9291 138.666 24.9744 138.042 24.9744C136.483 24.9744 135.205 24.6977 134.209 24.1444C133.213 23.581 132.464 22.6756 131.961 21.4282C131.468 20.1807 131.221 18.5308 131.221 16.4786C131.221 13.5913 131.735 11.4686 132.761 10.1105C133.787 8.74229 135.215 8.0582 137.046 8.0582C138.827 8.0582 140.185 8.73223 141.121 10.0803C142.056 11.4284 142.524 13.5762 142.524 16.5238V17.2934ZM137.031 9.77848C135.955 9.77848 135.115 10.2161 134.511 11.0913C133.918 11.9565 133.606 13.4756 133.576 15.6486H140.291C140.271 14.1597 140.125 12.9826 139.853 12.1175C139.592 11.2523 139.224 10.6487 138.752 10.3066C138.289 9.95454 137.715 9.77848 137.031 9.77848Z" fill="#FF8515"/>
<path d="M145.416 8.31473H147.333L147.529 10.5481H147.68C148.143 9.75333 148.731 9.15475 149.446 8.75235C150.17 8.34994 150.96 8.14874 151.815 8.14874C152.046 8.14874 152.353 8.17389 152.735 8.22419V10.4123C152.494 10.372 152.142 10.3519 151.679 10.3519C150.884 10.3519 150.12 10.5632 149.385 10.9857C148.661 11.4082 148.103 11.9917 147.71 12.7362V24.6877H145.416V8.31473Z" fill="#FF8515"/>
<path d="M164.646 8.31473H167L159.621 31.3274H157.327L159.47 24.6877H158.715L153.464 8.31473H155.894L160.224 22.6203L164.646 8.31473Z" fill="#FF8515"/>
<path d="M65.23 6.6416L58.2701 15.6132L60.9279 23.3043L65.23 6.6416Z" fill="white"/>
<path d="M65.2552 6.63135L55.6047 12.6641L48.1488 9.30884L65.2552 6.63135Z" fill="#FF8515"/>
<path d="M13.7473 45.5569C17.8714 48.4174 22.7818 49.9482 27.8118 49.9415C41.4181 49.9415 52.4471 38.9864 52.4471 25.4701C52.446 23.9695 52.306 22.4721 52.0291 20.9968C45.1989 30.1235 28.6264 49.53 13.7473 45.5569Z" fill="white"/>
<path d="M51.037 17.3038C49.3364 12.5355 46.1902 8.40771 42.0312 5.48814C37.8722 2.56857 32.9046 1.00064 27.8118 1C14.2056 1 3.17526 11.9551 3.17526 25.4701C3.17287 27.3299 3.38407 29.184 3.80477 30.9964C1.94267 31.279 0 29.3956 0 29.3956C1.17133 31.5854 2.89988 33.4322 5.01343 34.7519L5.03987 34.8144C5.85791 35.302 6.71432 35.7232 7.60072 36.0737C8.75534 36.5433 9.96064 36.879 11.1927 37.0742C19.6962 38.5386 32.4224 34.7356 51.037 17.3038Z" fill="#FF8515"/>
</svg>
