<svg width="38" height="24" viewBox="0 0 38 24" fill="none" xmlns="http://www.w3.org/2000/svg">
<path d="M0 2.4C0 1.07452 1.09674 0 2.44964 0H35.1115C36.4644 0 37.5611 1.07452 37.5611 2.4V21.6C37.5611 22.9255 36.4644 24 35.1115 24H2.44964C1.09674 24 0 22.9255 0 21.6V2.4Z" fill="white"/>
<path d="M16.8774 15.9265H14.5649L16.0113 7.6499H18.3237L16.8774 15.9265Z" fill="#00579F"/>
<path d="M25.2603 7.85237C24.8042 7.6849 24.0808 7.5 23.1863 7.5C20.9027 7.5 19.2946 8.62696 19.2847 10.2382C19.2657 11.427 20.436 12.0872 21.3114 12.4836C22.206 12.8886 22.5101 13.153 22.5101 13.514C22.5011 14.0685 21.7872 14.3241 21.1214 14.3241C20.1982 14.3241 19.7035 14.1923 18.9517 13.8838L18.6472 13.7516L18.3236 15.6095C18.866 15.8382 19.8652 16.0411 20.9027 16.05C23.329 16.05 24.9087 14.9405 24.9274 13.2234C24.9367 12.2813 24.3187 11.5593 22.9863 10.9694C22.1775 10.5907 21.6822 10.3354 21.6822 9.94784C21.6917 9.5956 22.1012 9.2348 23.0142 9.2348C23.766 9.21712 24.3183 9.3844 24.7368 9.55168L24.9459 9.6396L25.2603 7.85237Z" fill="#00579F"/>
<path d="M28.3339 12.9944C28.5243 12.5189 29.2571 10.6787 29.2571 10.6787C29.2475 10.6964 29.4472 10.1945 29.5613 9.8863L29.723 10.5994C29.723 10.5994 30.1609 12.5806 30.256 12.9944C29.8946 12.9944 28.7906 12.9944 28.3339 12.9944ZM31.1883 7.6499H29.3996C28.848 7.6499 28.4289 7.79946 28.191 8.33662L24.7561 15.9264H27.1825C27.1825 15.9264 27.5819 14.9049 27.6678 14.6849C27.934 14.6849 30.2944 14.6849 30.6369 14.6849C30.7033 14.9754 30.9128 15.9264 30.9128 15.9264H33.0539L31.1883 7.6499Z" fill="#00579F"/>
<path d="M12.6335 7.6499L10.3689 13.2937L10.1214 12.1491C9.7028 10.8284 8.38963 9.39334 6.92432 8.67982L8.99869 15.9177H11.444L15.0789 7.6499H12.6335Z" fill="#00579F"/>
<path d="M8.26595 7.6499H4.54538L4.50732 7.81713C7.40957 8.50398 9.33163 10.1596 10.1214 12.1495L9.3126 8.34566C9.17943 7.81701 8.77017 7.66734 8.26595 7.6499Z" fill="#FAA61A"/>
</svg>
