<svg width="1147" height="1074" viewBox="0 0 1147 1074" fill="none" xmlns="http://www.w3.org/2000/svg">
<path d="M165.286 300.253L170.12 310.012L180.894 311.594L173.105 319.204L174.955 329.947L165.286 324.874L155.646 329.947L157.497 319.204L149.678 311.594L160.481 310.012L165.286 300.253Z" fill="#EBEBEB"/>
<path d="M1131.16 760.526L1136 770.315L1146.8 771.867L1138.98 779.506L1140.83 790.25L1131.16 785.177L1121.52 790.25L1123.37 779.506L1115.55 771.867L1126.36 770.315L1131.16 760.526Z" fill="#F5F5F5"/>
<path d="M939.864 1044.31L944.669 1054.06L955.472 1055.65L947.653 1063.26L949.503 1074L939.864 1068.93L930.195 1074L932.045 1063.26L924.256 1055.65L935.029 1054.06L939.864 1044.31Z" fill="#F5F5F5"/>
<path d="M502.187 126.864L503.978 130.505L508.007 131.102C508.231 131.131 508.443 131.224 508.617 131.369C508.791 131.515 508.92 131.707 508.989 131.923C509.058 132.139 509.064 132.37 509.006 132.589C508.948 132.808 508.829 133.007 508.663 133.161L505.679 136.145L506.365 140.144C506.4 140.367 506.374 140.595 506.287 140.803C506.201 141.011 506.059 141.192 505.877 141.324C505.695 141.457 505.48 141.537 505.255 141.555C505.031 141.573 504.806 141.529 504.604 141.427L501.023 139.517L497.442 141.427C497.239 141.526 497.013 141.568 496.789 141.548C496.564 141.529 496.348 141.45 496.165 141.318C495.982 141.187 495.837 141.008 495.747 140.802C495.656 140.595 495.623 140.368 495.651 140.144L496.338 136.145L493.354 133.161C493.186 133.005 493.068 132.804 493.011 132.582C492.955 132.361 492.964 132.128 493.036 131.911C493.108 131.694 493.241 131.502 493.419 131.359C493.597 131.215 493.813 131.126 494.04 131.102L498.039 130.505L499.829 126.864C499.901 126.606 500.055 126.379 500.268 126.217C500.481 126.056 500.741 125.968 501.008 125.968C501.276 125.968 501.536 126.056 501.749 126.217C501.961 126.379 502.115 126.606 502.187 126.864Z" fill="#EBEBEB"/>
<path d="M9.20385 997.87L11.0243 1001.48L15.0233 1002.08C15.2479 1002.11 15.458 1002.21 15.6301 1002.36C15.8023 1002.51 15.9296 1002.7 15.9978 1002.92C16.0659 1003.14 16.0723 1003.37 16.0162 1003.59C15.96 1003.81 15.8435 1004.01 15.6798 1004.17L12.6955 1006.97L13.3819 1010.97C13.4172 1011.19 13.3903 1011.42 13.3042 1011.63C13.2181 1011.84 13.0762 1012.02 12.8941 1012.15C12.712 1012.28 12.4967 1012.36 12.2721 1012.38C12.0475 1012.4 11.8222 1012.36 11.6212 1012.25L8.03996 1010.37L4.45877 1012.25C4.25768 1012.36 4.03241 1012.4 3.8078 1012.38C3.58319 1012.36 3.36797 1012.28 3.18586 1012.15C3.00375 1012.02 2.86183 1011.84 2.77574 1011.63C2.68966 1011.42 2.66276 1011.19 2.69801 1010.97L3.35456 1006.97L0.370237 1004.17C0.205997 1004.01 0.0899442 1003.8 0.0352967 1003.58C-0.0193509 1003.36 -0.0103965 1003.13 0.06114 1002.91C0.132676 1002.69 0.263919 1002.5 0.43992 1002.35C0.615921 1002.2 0.829604 1002.11 1.05663 1002.08L5.05563 1001.48L6.84623 997.87C6.89099 997.589 7.03426 997.334 7.25031 997.15C7.46637 996.965 7.74105 996.864 8.02504 996.864C8.30902 996.864 8.5837 996.965 8.79976 997.15C9.01581 997.334 9.15908 997.589 9.20385 997.87Z" fill="#F5F5F5"/>
<path d="M89.782 88.5151L91.5726 92.156L95.6014 92.723C95.826 92.7589 96.0361 92.8566 96.2083 93.0052C96.3804 93.1539 96.5077 93.3475 96.5759 93.5645C96.6441 93.7814 96.6504 94.0131 96.5943 94.2335C96.5381 94.4538 96.4217 94.6542 96.258 94.8121L93.2736 97.6472L93.96 101.616C94.0077 101.842 93.9892 102.076 93.9067 102.291C93.8243 102.506 93.6814 102.693 93.4953 102.828C93.3091 102.964 93.0878 103.043 92.8578 103.055C92.6279 103.068 92.3992 103.014 92.1993 102.9L88.6181 101.019L85.0369 102.9C84.8349 103.01 84.606 103.06 84.3765 103.046C84.147 103.032 83.9261 102.953 83.7392 102.819C83.5523 102.685 83.4069 102.502 83.3197 102.289C83.2326 102.076 83.2071 101.843 83.2463 101.616L83.9327 97.6472L80.9484 94.8121C80.7841 94.6523 80.6681 94.4495 80.6134 94.2269C80.5588 94.0044 80.5677 93.771 80.6393 93.5532C80.7108 93.3355 80.842 93.1423 81.018 92.9955C81.194 92.8487 81.4077 92.7543 81.6348 92.723L85.6338 92.156L87.4244 88.5151C87.496 88.2576 87.6501 88.0306 87.8629 87.8688C88.0758 87.7071 88.3358 87.6195 88.6032 87.6195C88.8705 87.6195 89.1305 87.7071 89.3434 87.8688C89.5563 88.0306 89.7103 88.2576 89.782 88.5151Z" fill="#EBEBEB"/>
<path d="M84.9481 807.798C84.9481 808.583 84.7153 809.35 84.2792 810.003C83.843 810.656 83.2231 811.164 82.4979 811.465C81.7726 811.765 80.9745 811.844 80.2046 811.691C79.4346 811.537 78.7274 811.159 78.1723 810.604C77.6172 810.049 77.2392 809.342 77.086 808.572C76.9329 807.802 77.0115 807.004 77.3119 806.279C77.6123 805.554 78.1211 804.934 78.7738 804.498C79.4265 804.061 80.1939 803.829 80.9789 803.829C82.0292 803.836 83.0342 804.257 83.7769 805C84.5196 805.742 84.9403 806.747 84.9481 807.798Z" fill="#EBEBEB"/>
<path d="M650.596 311.116C650.602 311.902 650.375 312.673 649.942 313.329C649.51 313.986 648.892 314.499 648.167 314.804C647.442 315.109 646.643 315.192 645.871 315.043C645.099 314.893 644.389 314.517 643.831 313.963C643.273 313.409 642.892 312.702 642.737 311.931C642.581 311.161 642.658 310.361 642.957 309.634C643.257 308.907 643.766 308.285 644.419 307.848C645.072 307.41 645.841 307.177 646.627 307.177C647.147 307.173 647.663 307.272 648.144 307.468C648.625 307.664 649.063 307.954 649.432 308.32C649.801 308.686 650.094 309.122 650.294 309.602C650.494 310.082 650.596 310.596 650.596 311.116Z" fill="#EBEBEB"/>
<path d="M444.917 91.7979C444.917 92.5829 444.684 93.3503 444.248 94.003C443.812 94.6558 443.192 95.1645 442.467 95.4649C441.741 95.7653 440.943 95.8439 440.173 95.6908C439.403 95.5376 438.696 95.1596 438.141 94.6045C437.586 94.0494 437.208 93.3422 437.055 92.5722C436.902 91.8023 436.98 91.0042 437.281 90.279C437.581 89.5537 438.09 88.9338 438.743 88.4977C439.395 88.0615 440.163 87.8287 440.948 87.8287C441.998 87.8365 443.003 88.2572 443.746 88.9999C444.488 89.7426 444.909 90.7476 444.917 91.7979Z" fill="#F5F5F5"/>
<path d="M451.072 1059.13C462.862 1056.35 470.164 1044.54 467.382 1032.75C464.599 1020.96 452.785 1013.65 440.995 1016.44C429.204 1019.22 421.902 1031.03 424.685 1042.82C427.468 1054.61 439.282 1061.92 451.072 1059.13Z" fill="#F0F0F0"/>
<path d="M438.499 1024.97C434.006 1024.96 429.626 1026.38 425.995 1029.03C424.14 1033.28 423.685 1038.01 424.695 1042.54C425.704 1047.07 428.127 1051.17 431.613 1054.23C435.099 1057.3 439.468 1059.17 444.09 1059.59C448.712 1060.01 453.349 1058.96 457.33 1056.57C459.093 1053.31 459.978 1049.65 459.9 1045.94C459.822 1042.24 458.783 1038.62 456.885 1035.43C454.987 1032.25 452.294 1029.62 449.071 1027.79C445.848 1025.96 442.205 1025 438.499 1025V1024.97Z" fill="#E6E6E6"/>
<path d="M268.632 656.552H87.0059V574.573L268.632 358.687H355.386V579.229H400.42V656.552H355.386V723.61H268.632V656.552ZM268.632 579.199V466.302L172.656 579.229L268.632 579.199Z" fill="#407BFF"/>
<path d="M431.638 542.76C431.638 474.538 443.914 426.789 468.465 399.512C493.016 372.235 530.429 358.607 580.705 358.627C604.839 358.627 624.664 361.611 640.183 367.58C654.291 372.695 667.2 380.648 678.114 390.947C687.322 399.739 695.123 409.895 701.242 421.059C707.298 432.715 711.86 445.088 714.821 457.886C721.58 485.273 724.948 513.387 724.848 541.596C724.848 606.694 713.836 654.344 691.812 684.545C669.787 714.747 631.847 729.838 577.99 729.818C547.808 729.818 523.416 725.003 504.814 715.374C486.062 705.588 470.267 690.967 459.064 673.026C450.41 659.795 443.675 641.72 438.86 618.801C433.843 593.77 431.423 568.288 431.638 542.76ZM530.509 542.999C530.509 588.758 534.548 619.965 542.625 636.617C550.703 653.27 562.411 661.636 577.751 661.715C582.625 661.77 587.461 660.856 591.98 659.027C596.498 657.198 600.609 654.491 604.073 651.061C611.494 643.959 616.955 632.737 620.457 617.398C623.958 602.059 625.719 578.184 625.739 545.774C625.739 498.144 621.7 466.122 613.622 449.709C605.545 433.295 593.429 425.098 577.273 425.118C560.8 425.118 548.863 433.484 541.461 450.216C534.06 466.948 530.409 497.925 530.509 543.148V542.999Z" fill="#407BFF"/>
<path d="M937.331 656.552H755.705V574.573L937.331 358.687H1024.23V579.229H1069.24V656.552H1024.21V723.61H937.331V656.552ZM937.331 579.199V466.302L841.385 579.229L937.331 579.199Z" fill="#407BFF"/>
<g opacity="0.3">
<path d="M427.607 232.778C427.607 233.881 427.279 234.96 426.666 235.878C426.053 236.796 425.181 237.511 424.162 237.933C423.142 238.356 422.02 238.466 420.937 238.251C419.855 238.036 418.86 237.504 418.08 236.724C417.299 235.943 416.768 234.949 416.553 233.866C416.337 232.784 416.448 231.662 416.87 230.642C417.293 229.622 418.008 228.751 418.926 228.137C419.843 227.524 420.922 227.197 422.026 227.197C423.506 227.197 424.926 227.785 425.972 228.831C427.019 229.878 427.607 231.297 427.607 232.778Z" fill="#407BFF"/>
<path d="M45.6424 447.082C47.8181 447.082 49.5818 445.318 49.5818 443.143C49.5818 440.967 47.8181 439.203 45.6424 439.203C43.4668 439.203 41.7031 440.967 41.7031 443.143C41.7031 445.318 43.4668 447.082 45.6424 447.082Z" fill="#407BFF"/>
<path d="M696.492 1022.37C699.607 1022.37 702.132 1019.85 702.132 1016.73C702.132 1013.62 699.607 1011.09 696.492 1011.09C693.377 1011.09 690.852 1013.62 690.852 1016.73C690.852 1019.85 693.377 1022.37 696.492 1022.37Z" fill="#407BFF"/>
<path d="M832.131 792.876C834.306 792.876 836.07 791.113 836.07 788.937C836.07 786.761 834.306 784.998 832.131 784.998C829.955 784.998 828.191 786.761 828.191 788.937C828.191 791.113 829.955 792.876 832.131 792.876Z" fill="#407BFF"/>
<path d="M1093.77 83.5611C1093.77 84.3403 1093.54 85.1019 1093.11 85.7497C1092.67 86.3975 1092.06 86.9024 1091.34 87.2006C1090.62 87.4987 1089.83 87.5768 1089.06 87.4248C1088.3 87.2728 1087.6 86.8976 1087.05 86.3467C1086.5 85.7957 1086.12 85.0938 1085.97 84.3297C1085.82 83.5655 1085.89 82.7734 1086.19 82.0536C1086.49 81.3338 1087 80.7186 1087.64 80.2857C1088.29 79.8529 1089.05 79.6218 1089.83 79.6218C1090.88 79.6218 1091.88 80.0369 1092.62 80.7756C1093.36 81.5144 1093.77 82.5164 1093.77 83.5611Z" fill="#407BFF"/>
<path d="M343.451 3.93931C343.451 4.71844 343.22 5.48006 342.787 6.12788C342.354 6.77569 341.739 7.28061 341.019 7.57876C340.299 7.87692 339.507 7.95493 338.743 7.80293C337.979 7.65093 337.277 7.27575 336.726 6.72483C336.175 6.1739 335.8 5.47199 335.648 4.70783C335.496 3.94368 335.574 3.15162 335.872 2.4318C336.17 1.71199 336.675 1.09675 337.323 0.663894C337.971 0.231037 338.732 0 339.512 0C340.554 0.00780825 341.551 0.425349 342.288 1.16243C343.026 1.89951 343.443 2.89696 343.451 3.93931Z" fill="#407BFF"/>
<path d="M656.627 210.753C658.802 210.753 660.566 208.989 660.566 206.814C660.566 204.638 658.802 202.874 656.627 202.874C654.451 202.874 652.688 204.638 652.688 206.814C652.688 208.989 654.451 210.753 656.627 210.753Z" fill="#407BFF"/>
</g>
<path d="M249.381 210.783C285.493 210.783 314.767 181.509 314.767 145.397C314.767 109.284 285.493 80.0099 249.381 80.0099C213.269 80.0099 183.994 109.284 183.994 145.397C183.994 181.509 213.269 210.783 249.381 210.783Z" fill="#407BFF"/>
<path opacity="0.7" d="M249.381 210.783C285.493 210.783 314.767 181.509 314.767 145.397C314.767 109.284 285.493 80.0099 249.381 80.0099C213.269 80.0099 183.994 109.284 183.994 145.397C183.994 181.509 213.269 210.783 249.381 210.783Z" fill="white"/>
<path opacity="0.2" d="M226.849 96.0657C217.978 96.1057 209.207 97.9432 201.065 101.467C191.078 112.532 185.17 126.676 184.318 141.557C183.466 156.438 187.721 171.163 196.379 183.296C205.038 195.428 217.579 204.24 231.929 208.273C246.278 212.306 261.574 211.317 275.285 205.471C283.807 196.091 289.421 184.438 291.444 171.928C293.468 159.417 291.814 146.588 286.684 135C281.554 123.412 273.168 113.564 262.546 106.652C251.924 99.7399 239.522 96.0622 226.849 96.0657Z" fill="#407BFF"/>
<path opacity="0.2" d="M220.344 113.405C220.344 114.585 219.994 115.739 219.338 116.721C218.682 117.702 217.75 118.467 216.659 118.919C215.568 119.371 214.368 119.489 213.21 119.259C212.053 119.028 210.989 118.46 210.154 117.625C209.32 116.79 208.751 115.727 208.521 114.569C208.291 113.411 208.409 112.211 208.861 111.12C209.312 110.03 210.077 109.098 211.059 108.442C212.04 107.786 213.194 107.436 214.375 107.436C215.958 107.436 217.476 108.065 218.595 109.184C219.715 110.303 220.344 111.822 220.344 113.405Z" fill="#407BFF"/>
<path opacity="0.2" d="M290.658 107.436C290.658 108.616 290.308 109.77 289.652 110.752C288.996 111.733 288.064 112.499 286.973 112.95C285.883 113.402 284.683 113.52 283.525 113.29C282.367 113.06 281.304 112.491 280.469 111.656C279.634 110.822 279.066 109.758 278.835 108.6C278.605 107.443 278.723 106.242 279.175 105.152C279.627 104.061 280.392 103.129 281.373 102.473C282.355 101.817 283.509 101.467 284.689 101.467C286.272 101.467 287.79 102.096 288.91 103.215C290.029 104.335 290.658 105.853 290.658 107.436Z" fill="#407BFF"/>
<path opacity="0.2" d="M278.716 149.992C278.727 151.927 278.166 153.822 277.101 155.437C276.037 157.053 274.517 158.317 272.735 159.069C270.953 159.822 268.987 160.03 267.087 159.666C265.187 159.302 263.437 158.383 262.059 157.026C260.68 155.668 259.735 153.933 259.342 152.038C258.95 150.144 259.127 148.175 259.853 146.382C260.578 144.588 261.819 143.05 263.418 141.961C265.017 140.872 266.903 140.281 268.838 140.264C270.126 140.252 271.403 140.494 272.597 140.977C273.791 141.46 274.878 142.174 275.796 143.078C276.714 143.982 277.444 145.058 277.945 146.244C278.446 147.431 278.708 148.705 278.716 149.992Z" fill="#407BFF"/>
<path opacity="0.2" d="M247.623 177.896C247.623 180.481 246.857 183.008 245.42 185.158C243.984 187.307 241.943 188.983 239.554 189.972C237.166 190.962 234.537 191.22 232.002 190.716C229.466 190.212 227.137 188.967 225.309 187.139C223.481 185.311 222.236 182.982 221.732 180.446C221.227 177.91 221.486 175.282 222.475 172.894C223.465 170.505 225.14 168.464 227.29 167.027C229.439 165.591 231.967 164.824 234.552 164.824C238.019 164.824 241.343 166.202 243.795 168.653C246.246 171.104 247.623 174.429 247.623 177.896Z" fill="#407BFF"/>
<path d="M1024.33 934.107C1031.61 903.26 1012.51 872.351 981.661 865.071C950.814 857.79 919.905 876.895 912.624 907.742C905.344 938.589 924.448 969.498 955.295 976.779C986.143 984.059 1017.05 964.955 1024.33 934.107Z" fill="#407BFF"/>
<path opacity="0.3" d="M1024.33 934.107C1031.61 903.26 1012.51 872.351 981.661 865.071C950.814 857.79 919.905 876.895 912.624 907.742C905.344 938.589 924.448 969.498 955.295 976.779C986.143 984.059 1017.05 964.955 1024.33 934.107Z" fill="white"/>
<path opacity="0.4" d="M1004.71 876.497C992.012 872.717 978.393 873.449 966.169 878.57C953.946 883.691 943.871 892.884 937.656 904.59C931.441 916.295 929.47 929.791 932.075 942.785C934.681 955.779 941.704 967.471 951.951 975.875C964.668 979.689 978.313 978.976 990.563 973.857C1002.81 968.739 1012.91 959.532 1019.13 947.804C1025.35 936.077 1027.32 922.555 1024.69 909.542C1022.06 896.529 1015 884.83 1004.71 876.437V876.497Z" fill="#407BFF"/>
<path d="M913.694 938.004C852.396 966.833 898.116 989.066 984.453 958.029C1064.37 929.29 1094.87 893.06 1023.25 904.311C1027.1 919.531 926.975 958.536 913.694 938.004Z" fill="#407BFF"/>
<path opacity="0.2" d="M1004.03 358.687C923.779 412.912 819.894 484.416 791.096 656.552H785.127C813.03 486.446 913.125 413.121 993.403 358.687H1004.03Z" fill="black"/>
<path d="M588.968 897.179C538.235 897.179 488.068 874.289 463.627 836.925C448.556 813.827 431.038 765.451 483.204 700.9L487.829 704.66C450.943 750.32 444.109 796.13 468.64 833.672C498.483 879.362 568.884 902.312 628.988 885.988C690.525 869.216 727.919 815.677 731.53 739.069C743.855 477.015 883.074 396.289 984.72 337.349C1047.93 300.731 1093.56 274.29 1083.56 218.453C1083.22 215.218 1082.21 212.091 1080.59 209.273C1078.96 206.456 1076.76 204.011 1074.13 202.099C1061.15 193.534 1035.78 199.473 1006.42 206.307C948.789 219.736 869.883 238.12 822.88 158.17L828.013 155.185C872.778 231.375 946.133 214.275 1005.04 200.547C1035.75 193.415 1062.28 187.237 1077.41 197.175C1083.83 201.383 1087.74 208.038 1089.35 217.468C1100.12 277.394 1050.55 306.163 987.734 342.571C887.252 400.825 749.674 480.597 737.468 739.487C733.738 818.87 694.763 874.408 630.54 891.867C616.98 895.476 603 897.262 588.968 897.179Z" fill="#407BFF"/>
<path opacity="0.2" d="M588.968 897.179C538.235 897.179 488.068 874.289 463.627 836.925C448.556 813.827 431.038 765.451 483.204 700.9L487.829 704.66C450.943 750.32 444.109 796.13 468.64 833.672C498.483 879.362 568.884 902.312 628.988 885.988C690.525 869.216 727.919 815.677 731.53 739.069C743.855 477.015 883.074 396.289 984.72 337.349C1047.93 300.731 1093.56 274.29 1083.56 218.453C1083.22 215.218 1082.21 212.091 1080.59 209.273C1078.96 206.456 1076.76 204.011 1074.13 202.099C1061.15 193.534 1035.78 199.473 1006.42 206.307C948.789 219.736 869.883 238.12 822.88 158.17L828.013 155.185C872.778 231.375 946.133 214.275 1005.04 200.547C1035.75 193.415 1062.28 187.237 1077.41 197.175C1083.83 201.383 1087.74 208.038 1089.35 217.468C1100.12 277.394 1050.55 306.163 987.734 342.571C887.252 400.825 749.674 480.597 737.468 739.487C733.738 818.87 694.763 874.408 630.54 891.867C616.98 895.476 603 897.262 588.968 897.179Z" fill="white"/>
<path d="M761.254 87.4709C775.005 87.5503 788.666 89.693 801.781 93.8276C801.781 93.8276 834.609 149.843 838.488 162.676C837.116 175.33 815.748 196.071 815.748 196.071L761.254 87.4709Z" fill="#407BFF"/>
<path opacity="0.3" d="M761.254 87.4709C775.005 87.5503 788.666 89.693 801.781 93.8276C801.781 93.8276 834.609 149.843 838.488 162.676C837.116 175.33 815.748 196.071 815.748 196.071L761.254 87.4709Z" fill="white"/>
<path d="M858.51 359.582C845.838 344.127 834.28 327.792 823.922 310.699C821.415 306.382 819.038 301.985 816.79 297.508C815.506 294.971 814.283 292.435 813.089 289.868C811.51 287.377 810.295 284.674 809.478 281.84C805.897 244.029 818.849 216.185 806.494 185.835L757.342 205.054C757.342 205.054 761.52 259.13 771.07 291.599C777.038 311.684 790.408 329.052 803.3 345.138C807.359 350.152 811.239 355.315 815.238 360.358C819.237 365.402 823.355 369.49 827.175 374.235C832.994 381.427 834.905 388.321 830.488 396.797L829.771 398.14C828.518 400.348 834.367 402.855 838.068 398.14C844.036 390.44 843.201 390.918 848.394 384.352C851.557 380.383 855.168 376.056 858.302 372.415C859.815 370.63 860.663 368.376 860.701 366.036C860.739 363.696 859.965 361.415 858.51 359.582Z" fill="#407BFF"/>
<path opacity="0.7" d="M858.51 359.582C845.838 344.127 834.28 327.792 823.922 310.699C821.415 306.382 819.038 301.985 816.79 297.508C815.506 294.971 814.283 292.435 813.089 289.868C811.51 287.377 810.295 284.674 809.478 281.84C805.897 244.029 818.849 216.185 806.494 185.835L757.342 205.054C757.342 205.054 761.52 259.13 771.07 291.599C777.038 311.684 790.408 329.052 803.3 345.138C807.359 350.152 811.239 355.315 815.238 360.358C819.237 365.402 823.355 369.49 827.175 374.235C832.994 381.427 834.905 388.321 830.488 396.797L829.771 398.14C828.518 400.348 834.367 402.855 838.068 398.14C844.036 390.44 843.201 390.918 848.394 384.352C851.557 380.383 855.168 376.056 858.302 372.415C859.815 370.63 860.663 368.376 860.701 366.036C860.739 363.696 859.965 361.415 858.51 359.582Z" fill="white"/>
<path opacity="0.3" d="M846.487 344.034C838.676 352.393 830.014 359.914 820.643 366.476C821.926 367.908 823.179 369.46 824.463 370.833C833.851 364.49 842.378 356.957 849.829 348.421L846.487 344.034Z" fill="#407BFF"/>
<path opacity="0.3" d="M858.482 359.612C858.39 359.451 858.28 359.301 858.154 359.164C855.833 361.783 854.493 365.127 854.364 368.624C854.172 371.019 854.561 373.425 855.498 375.638L858.333 372.265C859.814 370.497 860.638 368.271 860.665 365.965C860.692 363.659 859.921 361.414 858.482 359.612Z" fill="#407BFF"/>
<path d="M749.585 123.283C744.253 131.266 737.858 138.485 730.575 144.74C726.531 148.214 722.106 151.218 717.384 153.693C714.899 154.96 712.326 156.047 709.685 156.946L707.655 157.603L706.999 157.782C706.539 157.939 706.071 158.068 705.596 158.17C704.732 158.372 703.854 158.512 702.97 158.588C700.452 158.78 697.92 158.548 695.479 157.901C692.378 157.014 689.407 155.719 686.646 154.051C684.436 152.76 682.294 151.355 680.229 149.843C676.494 147.02 672.926 143.981 669.545 140.741C663.025 134.56 657.035 127.841 651.639 120.657C650.583 119.256 650.051 117.528 650.138 115.775C650.225 114.022 650.925 112.355 652.115 111.066C653.305 109.776 654.91 108.945 656.651 108.718C658.391 108.491 660.156 108.882 661.637 109.824L661.876 109.973C668.919 114.449 676.021 119.165 682.945 123.372C686.466 125.432 689.869 127.521 693.241 129.132C694.77 129.938 696.345 130.655 697.956 131.281C698.977 131.725 700.068 131.987 701.179 132.057C701.179 132.057 701.179 131.848 700.045 131.878C699.704 131.907 699.365 131.957 699.031 132.027H698.374L699.359 131.52C700.691 130.817 701.977 130.03 703.209 129.162C705.873 127.272 708.369 125.155 710.669 122.835C715.931 117.405 720.864 111.665 725.442 105.646C727.818 102.539 731.318 100.49 735.19 99.9384C739.062 99.387 742.995 100.378 746.144 102.697C749.293 105.017 751.405 108.48 752.026 112.341C752.647 116.202 751.728 120.153 749.466 123.343L749.585 123.283Z" fill="#407BFF"/>
<path opacity="0.7" d="M749.585 123.283C744.253 131.266 737.858 138.485 730.575 144.74C726.531 148.214 722.106 151.218 717.384 153.693C714.899 154.96 712.326 156.047 709.685 156.946L707.655 157.603L706.999 157.782C706.539 157.939 706.071 158.068 705.596 158.17C704.732 158.372 703.854 158.512 702.97 158.588C700.452 158.78 697.92 158.548 695.479 157.901C692.378 157.014 689.407 155.719 686.646 154.051C684.436 152.76 682.294 151.355 680.229 149.843C676.494 147.02 672.926 143.981 669.545 140.741C663.025 134.56 657.035 127.841 651.639 120.657C650.583 119.256 650.051 117.528 650.138 115.775C650.225 114.022 650.925 112.355 652.115 111.066C653.305 109.776 654.91 108.945 656.651 108.718C658.391 108.491 660.156 108.882 661.637 109.824L661.876 109.973C668.919 114.449 676.021 119.165 682.945 123.372C686.466 125.432 689.869 127.521 693.241 129.132C694.77 129.938 696.345 130.655 697.956 131.281C698.977 131.725 700.068 131.987 701.179 132.057C701.179 132.057 701.179 131.848 700.045 131.878C699.704 131.907 699.365 131.957 699.031 132.027H698.374L699.359 131.52C700.691 130.817 701.977 130.03 703.209 129.162C705.873 127.272 708.369 125.155 710.669 122.835C715.931 117.405 720.864 111.665 725.442 105.646C727.818 102.539 731.318 100.49 735.19 99.9384C739.062 99.387 742.995 100.378 746.144 102.697C749.293 105.017 751.405 108.48 752.026 112.341C752.647 116.202 751.728 120.153 749.466 123.343L749.585 123.283Z" fill="white"/>
<path d="M640.48 103.795L643.971 109.764C643.971 109.764 646.657 117.583 651.999 119.015L666.503 114.33L665.757 113.106C663.907 110.301 664.086 104.84 664.742 100.304C665.399 95.7674 663.041 95.6181 661.31 96.7522C660.295 97.3789 659.609 99.4679 658.774 101.676C658.081 100.684 657.302 99.7555 656.446 98.9009L652.029 94.4841C651.102 93.5784 649.868 93.0566 648.572 93.0234C647.277 92.9902 646.017 93.448 645.046 94.305L641.464 97.4983C640.605 98.2772 640.039 99.327 639.86 100.473C639.681 101.619 639.899 102.791 640.48 103.795Z" fill="#407BFF"/>
<path opacity="0.7" d="M640.48 103.795L643.971 109.764C643.971 109.764 646.657 117.583 651.999 119.015L666.503 114.33L665.757 113.106C663.907 110.301 664.086 104.84 664.742 100.304C665.399 95.7674 663.041 95.6181 661.31 96.7522C660.295 97.3789 659.609 99.4679 658.774 101.676C658.081 100.684 657.302 99.7555 656.446 98.9009L652.029 94.4841C651.102 93.5784 649.868 93.0566 648.572 93.0234C647.277 92.9902 646.017 93.448 645.046 94.305L641.464 97.4983C640.605 98.2772 640.039 99.327 639.86 100.473C639.681 101.619 639.899 102.791 640.48 103.795Z" fill="white"/>
<path d="M775.935 82.308C759.838 86.5722 744.418 93.0716 730.126 101.617C727.903 103.015 726.161 105.059 725.131 107.475C724.102 109.891 723.835 112.564 724.366 115.136C730.126 143.248 743.346 181.03 757.343 205.053L823.356 177.747C823.804 166.108 807.778 128.446 791.454 92.0369C788.529 85.5013 782.919 80.5771 775.935 82.308Z" fill="#407BFF"/>
<path opacity="0.8" d="M775.935 82.308C759.838 86.5722 744.418 93.0716 730.126 101.617C727.903 103.015 726.161 105.059 725.131 107.475C724.102 109.891 723.835 112.564 724.366 115.136C730.126 143.248 743.346 181.03 757.343 205.053L823.356 177.747C823.804 166.108 807.778 128.446 791.454 92.0369C788.529 85.5013 782.919 80.5771 775.935 82.308Z" fill="white"/>
<path opacity="0.3" d="M801.661 115.106L788.59 110.719C791.574 118.388 802.109 128.088 809.48 133.817C807.093 127.819 804.437 121.552 801.661 115.106Z" fill="#407BFF"/>
<path d="M771.612 52.7632C766.151 42.3778 754.363 37.1552 740.217 38.3191C728.28 39.3337 717.715 51.5098 718.969 58.0753C720.222 64.6408 730.249 67.4461 732.07 69.744L723.803 75.7127C722.824 76.4195 721.998 77.3172 721.374 78.3517C720.751 79.3861 720.344 80.536 720.176 81.7321C720.009 82.9281 720.085 84.1457 720.401 85.3115C720.717 86.4772 721.265 87.5671 722.013 88.5155C725.504 92.9323 730.1 97.4684 732.756 100.811C755.616 100.214 772.537 91.4998 778.625 83.1138C776.447 72.4598 777.014 63.089 771.612 52.7632Z" fill="#407BFF"/>
<path opacity="0.8" d="M771.612 52.7632C766.151 42.3778 754.363 37.1552 740.217 38.3191C728.28 39.3337 717.715 51.5098 718.969 58.0753C720.222 64.6408 730.249 67.4461 732.07 69.744L723.803 75.7127C722.824 76.4195 721.998 77.3172 721.374 78.3517C720.751 79.3861 720.344 80.536 720.176 81.7321C720.009 82.9281 720.085 84.1457 720.401 85.3115C720.717 86.4772 721.265 87.5671 722.013 88.5155C725.504 92.9323 730.1 97.4684 732.756 100.811C755.616 100.214 772.537 91.4998 778.625 83.1138C776.447 72.4598 777.014 63.089 771.612 52.7632Z" fill="white"/>
<path d="M760.387 59.2093C762.01 63.3713 762.363 67.921 761.4 72.2832C760.438 76.6455 758.204 80.6246 754.98 83.7174C751.757 86.8102 747.689 88.878 743.291 89.6594C738.893 90.4408 734.361 89.9006 730.27 88.1072C726.179 86.3139 722.711 83.3478 720.305 79.5839C717.899 75.82 716.663 71.4273 716.753 66.9611C716.843 62.4948 718.255 58.1555 720.811 54.4916C723.366 50.8277 726.951 48.0038 731.111 46.3767C736.695 44.2012 742.915 44.3307 748.404 46.7367C753.893 49.1427 758.203 53.6285 760.387 59.2093Z" fill="#263238"/>
<path d="M954.161 328.276C953.803 318.458 953.385 319.323 953.116 311.057C952.937 305.983 952.907 300.343 952.877 295.479C952.856 293.171 952.045 290.941 950.579 289.16C949.112 287.379 947.08 286.154 944.82 285.69C940.881 284.884 936.911 284.138 932.883 283.302C927.749 282.198 922.646 281.005 917.603 279.542C913.663 278.408 909.784 277.155 905.934 275.752C902.084 274.35 897.757 272.768 893.728 270.918C889.043 268.918 884.387 266.769 879.791 264.561C874.628 262.084 869.525 259.517 864.422 256.921C844.815 224.302 844.427 202.935 823.358 177.747L778.115 198.219C778.115 198.219 811.361 257.19 833.982 282.198C847.023 296.613 867.466 303.089 885.7 307.804C898.861 311.176 912.201 313.772 925.541 316.249C930.734 317.204 936.374 317.563 940.851 320.666C944.163 323.206 946.434 326.867 947.237 330.962C947.436 331.798 947.615 332.633 947.774 333.469C948.252 335.976 954.34 334.245 954.161 328.276Z" fill="#407BFF"/>
<path opacity="0.8" d="M954.161 328.276C953.803 318.458 953.385 319.323 953.116 311.057C952.937 305.983 952.907 300.343 952.877 295.479C952.856 293.171 952.045 290.941 950.579 289.16C949.112 287.379 947.08 286.154 944.82 285.69C940.881 284.884 936.911 284.138 932.883 283.302C927.749 282.198 922.646 281.005 917.603 279.542C913.663 278.408 909.784 277.155 905.934 275.752C902.084 274.35 897.757 272.768 893.728 270.918C889.043 268.918 884.387 266.769 879.791 264.561C874.628 262.084 869.525 259.517 864.422 256.921C844.815 224.302 844.427 202.935 823.358 177.747L778.115 198.219C778.115 198.219 811.361 257.19 833.982 282.198C847.023 296.613 867.466 303.089 885.7 307.804C898.861 311.176 912.201 313.772 925.541 316.249C930.734 317.204 936.374 317.563 940.851 320.666C944.163 323.206 946.434 326.867 947.237 330.962C947.436 331.798 947.615 332.633 947.774 333.469C948.252 335.976 954.34 334.245 954.161 328.276Z" fill="white"/>
<path opacity="0.3" d="M931.363 282.795C929.573 282.407 927.782 282.019 925.962 281.572C926.111 291.897 921.276 309.684 919.516 315.086L925.186 316.16C928.902 305.41 930.984 294.163 931.363 282.795Z" fill="#407BFF"/>
<path opacity="0.3" d="M952.877 295.449C952.867 293.139 952.06 290.903 950.592 289.12C949.124 287.336 947.085 286.114 944.82 285.66L941.984 285.093C942.464 288.486 944.2 291.575 946.849 293.748C948.547 295.331 950.59 296.496 952.817 297.15C952.877 296.464 952.877 295.926 952.877 295.449Z" fill="#407BFF"/>
<path d="M756.149 59.3884C757.373 63.9246 752.3 68.6697 748.241 64.7602C744.492 60.7193 740.387 57.0237 735.975 53.7182C731.797 51.1218 737.348 46.5856 743.884 48.3464C746.674 49.0471 749.25 50.4196 751.388 52.3443C753.526 54.2689 755.16 56.6872 756.149 59.3884Z" fill="white"/>
<path d="M756.51 203.591C754.391 204.367 758.241 207.948 758.241 207.948C758.241 207.948 800.021 193.653 825.388 178.941C825.449 178.05 825.297 177.157 824.944 176.337C824.591 175.517 824.048 174.793 823.359 174.225C801.648 185.269 779.33 195.073 756.51 203.591Z" fill="#407BFF"/>
<path opacity="0.5" d="M756.51 203.591C754.391 204.367 758.241 207.948 758.241 207.948C758.241 207.948 800.021 193.653 825.388 178.941C825.449 178.05 825.297 177.157 824.944 176.337C824.591 175.517 824.048 174.793 823.359 174.225C801.648 185.269 779.33 195.073 756.51 203.591Z" fill="white"/>
<path d="M787.249 80.3384C795.486 84.5164 803.215 88.9034 811.124 93.7679C814.973 96.215 818.793 98.692 822.583 101.378C826.374 104.064 830.134 106.809 833.924 109.913L835.327 111.077L837.087 112.688C838.141 113.675 839.137 114.722 840.072 115.822C841.027 116.867 841.832 117.881 842.608 118.806C843.384 119.732 844.19 120.836 844.906 121.791C847.687 125.627 850.257 129.612 852.606 133.728C857.231 141.709 861.222 150.041 864.543 158.647C865.157 160.273 865.189 162.062 864.633 163.708C864.077 165.355 862.968 166.758 861.495 167.68C860.021 168.601 858.274 168.984 856.55 168.763C854.826 168.541 853.232 167.73 852.039 166.466L851.89 166.287C845.921 159.96 840.131 153.246 834.372 147.038C828.612 140.831 822.673 134.444 817.838 131.669C811.064 127.461 803.514 123.253 796.023 119.135L773.461 106.6C769.963 104.748 767.344 101.582 766.18 97.799C765.015 94.0157 765.402 89.9248 767.254 86.4264C769.106 82.928 772.272 80.3086 776.055 79.1445C779.839 77.9804 783.93 78.3669 787.428 80.219L787.249 80.3384Z" fill="#407BFF"/>
<path opacity="0.8" d="M787.249 80.3384C795.486 84.5164 803.215 88.9034 811.124 93.7679C814.973 96.215 818.793 98.692 822.583 101.378C826.374 104.064 830.134 106.809 833.924 109.913L835.327 111.077L837.087 112.688C838.141 113.675 839.137 114.722 840.072 115.822C841.027 116.867 841.832 117.881 842.608 118.806C843.384 119.732 844.19 120.836 844.906 121.791C847.687 125.627 850.257 129.612 852.606 133.728C857.231 141.709 861.222 150.041 864.543 158.647C865.157 160.273 865.189 162.062 864.633 163.708C864.077 165.355 862.968 166.758 861.495 167.68C860.021 168.601 858.274 168.984 856.55 168.763C854.826 168.541 853.232 167.73 852.039 166.466L851.89 166.287C845.921 159.96 840.131 153.246 834.372 147.038C828.612 140.831 822.673 134.444 817.838 131.669C811.064 127.461 803.514 123.253 796.023 119.135L773.461 106.6C769.963 104.748 767.344 101.582 766.18 97.799C765.015 94.0157 765.402 89.9248 767.254 86.4264C769.106 82.928 772.272 80.3086 776.055 79.1445C779.839 77.9804 783.93 78.3669 787.428 80.219L787.249 80.3384Z" fill="white"/>
<path d="M871.674 173.39L869.078 167.123C869.078 167.123 867.675 159.006 862.632 156.737L847.71 159.095L848.218 160.408C849.62 163.392 848.576 168.854 847.203 173.211C845.83 177.568 848.158 178.135 850.038 177.27C851.142 176.792 852.157 174.852 853.321 172.793C853.867 173.837 854.495 174.835 855.201 175.777L858.871 180.851C859.655 181.869 860.791 182.556 862.056 182.777C863.322 182.998 864.624 182.737 865.706 182.045L869.764 179.448C870.725 178.807 871.437 177.857 871.785 176.755C872.132 175.653 872.093 174.466 871.674 173.39Z" fill="#407BFF"/>
<path opacity="0.8" d="M871.674 173.39L869.078 167.123C869.078 167.123 867.675 159.006 862.632 156.737L847.71 159.095L848.218 160.408C849.62 163.392 848.576 168.854 847.203 173.211C845.83 177.568 848.158 178.135 850.038 177.27C851.142 176.792 852.157 174.852 853.321 172.793C853.867 173.837 854.495 174.835 855.201 175.777L858.871 180.851C859.655 181.869 860.791 182.556 862.056 182.777C863.322 182.998 864.624 182.737 865.706 182.045L869.764 179.448C870.725 178.807 871.437 177.857 871.785 176.755C872.132 175.653 872.093 174.466 871.674 173.39Z" fill="white"/>
<path opacity="0.3" d="M774.626 114.658L771.015 114.957L748.662 168.913C749.884 169.001 751.112 168.901 752.303 168.615C752.303 168.615 781.43 157.752 790.234 153.693C784.295 141.487 774.626 114.658 774.626 114.658Z" fill="#407BFF"/>
<path d="M733.859 128.804C736.575 142.908 741.618 156.463 748.781 168.913C759.704 165.153 777.908 158.05 786.712 153.992C780.854 141.225 775.654 128.166 771.134 114.867C761.614 115.583 741.111 123.283 733.859 128.804Z" fill="white"/>
<path opacity="0.3" d="M756.032 140.473C755.595 141.932 754.736 143.229 753.562 144.2C752.389 145.171 750.953 145.772 749.438 145.927C747.923 146.082 746.395 145.784 745.049 145.071C743.704 144.358 742.599 143.261 741.877 141.92C741.154 140.579 740.845 139.054 740.99 137.538C741.134 136.022 741.725 134.582 742.687 133.402C743.65 132.221 744.941 131.353 746.398 130.906C747.854 130.46 749.41 130.455 750.869 130.893C752.823 131.48 754.464 132.818 755.433 134.615C756.401 136.411 756.616 138.518 756.032 140.473Z" fill="#407BFF"/>
<path opacity="0.6" d="M761.732 130.207C761.544 130.817 761.131 131.333 760.577 131.649C760.022 131.965 759.368 132.057 758.748 131.908C758.107 131.708 757.569 131.265 757.251 130.673C756.933 130.082 756.86 129.389 757.046 128.744C757.246 128.111 757.686 127.581 758.272 127.269C758.858 126.956 759.543 126.886 760.18 127.073C760.801 127.284 761.312 127.732 761.603 128.319C761.894 128.907 761.94 129.585 761.732 130.207Z" fill="#407BFF"/>
<path opacity="0.6" d="M768.384 127.61C768.292 127.929 768.137 128.226 767.929 128.484C767.721 128.742 767.464 128.957 767.172 129.115C766.881 129.273 766.561 129.372 766.231 129.406C765.901 129.439 765.568 129.407 765.25 129.311C764.904 129.241 764.576 129.1 764.288 128.896C764 128.691 763.757 128.429 763.576 128.126C763.395 127.823 763.279 127.485 763.236 127.135C763.193 126.784 763.223 126.429 763.325 126.09C763.428 125.752 763.599 125.439 763.83 125.172C764.06 124.904 764.344 124.687 764.662 124.535C764.981 124.383 765.328 124.299 765.681 124.289C766.034 124.279 766.386 124.343 766.713 124.477C767.028 124.572 767.322 124.729 767.577 124.938C767.832 125.148 768.044 125.405 768.199 125.696C768.354 125.987 768.45 126.306 768.482 126.635C768.514 126.963 768.481 127.295 768.384 127.61Z" fill="#407BFF"/>
<path opacity="0.5" d="M777.788 150.858L750.183 161.751L748.512 156.319L776.117 145.427L777.788 150.858Z" fill="#407BFF"/>
<path opacity="0.2" d="M625.501 565.62C625.437 582.997 623.758 600.331 620.487 617.398C616.966 632.737 611.494 643.958 604.073 651.061C600.617 654.492 596.512 657.201 591.998 659.031C587.484 660.86 582.651 661.772 577.781 661.715C562.442 661.715 550.733 653.349 542.656 636.617C541.236 633.612 540.03 630.51 539.045 627.336C521.986 641.987 506.1 657.953 491.534 675.085L475.688 693.767C484.215 702.41 494.056 709.652 504.844 715.224C523.427 724.834 547.819 729.648 578.02 729.668C583.332 729.668 588.465 729.519 593.449 729.221C611.721 702.185 626.84 673.147 638.512 642.675L682.83 527.122L625.501 565.62Z" fill="black"/>
<path d="M225.99 723.163L278.216 775.388L424.448 637.602C374.132 618.472 276.037 673.115 225.99 723.163Z" fill="#263238"/>
<path d="M408.122 905.296L355.896 853.07L493.683 706.838C512.812 757.154 458.169 855.249 408.122 905.296Z" fill="#263238"/>
<path d="M608.011 576.154L664.982 466.301L555.129 523.272C519.846 541.575 487.266 564.674 458.317 591.912L271.051 768.226L363.058 860.233L539.342 672.966C566.59 644.019 589.699 611.439 608.011 576.154Z" fill="#407BFF"/>
<path opacity="0.6" d="M608.011 576.154L664.982 466.301L555.129 523.272C519.846 541.575 487.266 564.674 458.317 591.912L271.051 768.226L363.058 860.233L539.342 672.966C566.59 644.019 589.699 611.439 608.011 576.154Z" fill="white"/>
<path d="M491.027 678.756C512.289 678.756 529.525 661.52 529.525 640.258C529.525 618.996 512.289 601.76 491.027 601.76C469.765 601.76 452.529 618.996 452.529 640.258C452.529 661.52 469.765 678.756 491.027 678.756Z" fill="white"/>
<path d="M491.025 664.998C504.689 664.998 515.765 653.921 515.765 640.258C515.765 626.594 504.689 615.518 491.025 615.518C477.362 615.518 466.285 626.594 466.285 640.258C466.285 653.921 477.362 664.998 491.025 664.998Z" fill="#407BFF"/>
<path opacity="0.3" d="M394.157 827.196L304.09 737.129L377.833 667.684L463.602 753.453L394.157 827.196Z" fill="#407BFF"/>
<path d="M246.371 805.769C178.896 811.26 156.543 854.413 148.933 911.832C145.053 941.078 143.323 970.713 118.762 987.843C117.262 988.834 116.128 990.289 115.533 991.986C114.938 993.682 114.914 995.527 115.465 997.238C116.016 998.95 117.112 1000.43 118.586 1001.46C120.059 1002.49 121.829 1003.01 123.626 1002.94C214.17 1000.11 256.399 955.791 261.711 937.288C260.308 946.962 257.805 956.444 254.25 965.55C253.599 967.157 253.471 968.928 253.886 970.612C254.3 972.296 255.235 973.806 256.558 974.927C257.881 976.048 259.524 976.723 261.253 976.856C262.982 976.989 264.709 976.573 266.187 975.666C291.614 959.76 323.486 930.454 325.605 882.914C306.893 856.502 246.371 805.769 246.371 805.769Z" fill="#407BFF"/>
<path opacity="0.2" d="M246.371 805.769C178.896 811.26 156.543 854.413 148.933 911.832C145.053 941.078 143.323 970.713 118.762 987.843C117.262 988.834 116.128 990.289 115.533 991.986C114.938 993.682 114.914 995.527 115.465 997.238C116.016 998.95 117.112 1000.43 118.586 1001.46C120.059 1002.49 121.829 1003.01 123.626 1002.94C214.17 1000.11 256.399 955.791 261.711 937.288C260.308 946.962 257.805 956.444 254.25 965.55C253.599 967.157 253.471 968.928 253.886 970.612C254.3 972.296 255.235 973.806 256.558 974.927C257.881 976.048 259.524 976.723 261.253 976.856C262.982 976.989 264.709 976.573 266.187 975.666C291.614 959.76 323.486 930.454 325.605 882.914C306.893 856.502 246.371 805.769 246.371 805.769Z" fill="white"/>
<path d="M336.05 903.237L228.047 795.204L285.585 782.76L348.524 845.699L336.05 903.237Z" fill="#407BFF"/>
</svg>
